Titillium Sans Pro-Black Italic.ufo
<glyph name="exclam" format="2">
	<advance width="301"/>
	<unicode hex="0021"/>
	<note>
		exclam
	</note>
	<outline>
		<contour>
			<point x="368" y="710" type="line"/>
			<point x="126" y="710" type="line"/>
			<point x="48" y="254" type="line"/>
			<point x="248" y="254" type="line"/>
		</contour>
		<contour>
			<point x="250" y="190" type="line"/>
			<point x="22" y="190" type="line"/>
			<point x="-18" y="0" type="line"/>
			<point x="210" y="0" type="line"/>
		</contour>
	</outline>
</glyph>
<glyph name="quotedbl" format="2">
  <advance width="541"/>
  <unicode hex="0022"/>
  <note>
quotedbl
</note>
  <outline>
    <contour>
      <point x="354" y="730" type="line"/>
      <point x="116" y="730" type="line"/>
      <point x="81" y="420" type="line"/>
      <point x="257" y="420" type="line"/>
    </contour>
    <contour>
      <point x="624" y="730" type="line"/>
      <point x="386" y="730" type="line"/>
      <point x="351" y="420" type="line"/>
      <point x="527" y="420" type="line"/>
    </contour>
  </outline>
</glyph>
<glyph name="numbersign" format="2">
	<advance width="638"/>
	<unicode hex="0023"/>
	<note>
		numbersign
	</note>
	<outline>
		<contour>
			<point x="472" y="0" type="line"/>
			<point x="498" y="122" type="line"/>
			<point x="578" y="122" type="line"/>
			<point x="611" y="277" type="line"/>
			<point x="531" y="277" type="line"/>
			<point x="555" y="388" type="line"/>
			<point x="635" y="388" type="line"/>
			<point x="668" y="543" type="line"/>
			<point x="588" y="543" type="line"/>
			<point x="614" y="665" type="line"/>
			<point x="444" y="665" type="line"/>
			<point x="418" y="543" type="line"/>
			<point x="342" y="543" type="line"/>
			<point x="368" y="665" type="line"/>
			<point x="198" y="665" type="line"/>
			<point x="172" y="543" type="line"/>
			<point x="92" y="543" type="line"/>
			<point x="59" y="388" type="line"/>
			<point x="139" y="388" type="line"/>
			<point x="115" y="277" type="line"/>
			<point x="35" y="277" type="line"/>
			<point x="2" y="122" type="line"/>
			<point x="82" y="122" type="line"/>
			<point x="56" y="0" type="line"/>
			<point x="226" y="0" type="line"/>
			<point x="252" y="122" type="line"/>
			<point x="328" y="122" type="line"/>
			<point x="302" y="0" type="line"/>
		</contour>
		<contour>
			<point x="302" y="397" type="line"/>
			<point x="396" y="397" type="line"/>
			<point x="368" y="268" type="line"/>
			<point x="274" y="268" type="line"/>
		</contour>
	</outline>
</glyph>
<glyph name="dollar" format="2">
  <advance width="582"/>
  <unicode hex="0024"/>
  <note>
dollar
</note>
  <outline>
    <contour>
      <point x="533" y="484" type="curve"/>
      <point x="584" y="653" type="line"/>
      <point x="584" y="653"/>
      <point x="510" y="668"/>
      <point x="427" y="674" type="curve"/>
      <point x="469" y="800" type="line"/>
      <point x="406" y="800" type="line"/>
      <point x="365" y="677" type="line"/>
      <point x="363" y="677" type="line" smooth="yes"/>
      <point x="138" y="677"/>
      <point x="64" y="540"/>
      <point x="64" y="415" type="curve" smooth="yes"/>
      <point x="64" y="344"/>
      <point x="102" y="293"/>
      <point x="187" y="268" type="curve" smooth="yes"/>
      <point x="269" y="244" type="line" smooth="yes"/>
      <point x="305" y="233"/>
      <point x="317" y="229"/>
      <point x="317" y="213" type="curve" smooth="yes"/>
      <point x="317" y="177"/>
      <point x="281" y="174"/>
      <point x="242" y="174" type="curve" smooth="yes"/>
      <point x="168" y="174"/>
      <point x="55" y="187"/>
      <point x="55" y="187" type="curve"/>
      <point x="0" y="21" type="line"/>
      <point x="0" y="21"/>
      <point x="80" y="0"/>
      <point x="183" y="-5" type="curve"/>
      <point x="138" y="-142" type="line"/>
      <point x="201" y="-142" type="line"/>
      <point x="246" y="-6" type="line"/>
      <point x="476" y="1"/>
      <point x="551" y="139"/>
      <point x="551" y="291" type="curve" smooth="yes"/>
      <point x="551" y="349"/>
      <point x="518" y="385"/>
      <point x="425" y="415" type="curve" smooth="yes"/>
      <point x="338" y="443" type="line" smooth="yes"/>
      <point x="296" y="457"/>
      <point x="295" y="463"/>
      <point x="295" y="472" type="curve" smooth="yes"/>
      <point x="295" y="491"/>
      <point x="309" y="498"/>
      <point x="353" y="498" type="curve" smooth="yes"/>
      <point x="440" y="498"/>
      <point x="533" y="484"/>
    </contour>
  </outline>
</glyph>
<glyph name="percent" format="2">
  <advance width="708"/>
  <unicode hex="0025"/>
  <note>
percent
</note>
  <outline>
    <contour>
      <point x="696" y="732" type="line"/>
      <point x="666" y="756" type="line"/>
      <point x="48" y="-39" type="line"/>
      <point x="79" y="-62" type="line"/>
    </contour>
    <contour>
      <point x="262" y="725" type="curve" smooth="yes"/>
      <point x="103" y="725"/>
      <point x="67" y="584"/>
      <point x="67" y="498" type="curve" smooth="yes"/>
      <point x="67" y="407"/>
      <point x="108" y="371"/>
      <point x="195" y="371" type="curve" smooth="yes"/>
      <point x="343" y="371"/>
      <point x="388" y="500"/>
      <point x="388" y="599" type="curve" smooth="yes"/>
      <point x="388" y="689"/>
      <point x="346" y="725"/>
    </contour>
    <contour>
      <point x="245" y="615" type="curve" smooth="yes"/>
      <point x="251" y="615"/>
      <point x="253" y="612"/>
      <point x="253" y="603" type="curve" smooth="yes"/>
      <point x="253" y="574"/>
      <point x="233" y="481"/>
      <point x="211" y="481" type="curve" smooth="yes"/>
      <point x="205" y="481"/>
      <point x="203" y="484"/>
      <point x="203" y="493" type="curve" smooth="yes"/>
      <point x="203" y="528"/>
      <point x="224" y="615"/>
    </contour>
    <contour>
      <point x="556" y="340" type="curve" smooth="yes"/>
      <point x="397" y="340"/>
      <point x="361" y="199"/>
      <point x="361" y="113" type="curve" smooth="yes"/>
      <point x="361" y="22"/>
      <point x="402" y="-14"/>
      <point x="489" y="-14" type="curve" smooth="yes"/>
      <point x="637" y="-14"/>
      <point x="682" y="115"/>
      <point x="682" y="214" type="curve" smooth="yes"/>
      <point x="682" y="304"/>
      <point x="640" y="340"/>
    </contour>
    <contour>
      <point x="539" y="230" type="curve" smooth="yes"/>
      <point x="545" y="230"/>
      <point x="547" y="227"/>
      <point x="547" y="218" type="curve" smooth="yes"/>
      <point x="547" y="189"/>
      <point x="527" y="96"/>
      <point x="505" y="96" type="curve" smooth="yes"/>
      <point x="499" y="96"/>
      <point x="497" y="99"/>
      <point x="497" y="108" type="curve" smooth="yes"/>
      <point x="497" y="143"/>
      <point x="518" y="230"/>
    </contour>
  </outline>
</glyph>
<glyph name="ampersand" format="2">
	<advance width="763"/>
	<unicode hex="0026"/>
	<note>
		ampersand
	</note>
	<outline>
		<contour>
			<point x="445" y="726" type="curve" smooth="yes"/>
			<point x="265" y="726"/>
			<point x="156" y="661"/>
			<point x="156" y="527" type="curve" smooth="yes"/>
			<point x="156" y="470"/>
			<point x="177" y="435"/>
			<point x="200" y="408" type="curve"/>
			<point x="68" y="389"/>
			<point x="6" y="304"/>
			<point x="6" y="200" type="curve" smooth="yes"/>
			<point x="6" y="54"/>
			<point x="100" y="-14"/>
			<point x="258" y="-14" type="curve" smooth="yes"/>
			<point x="371" y="-14"/>
			<point x="437" y="28"/>
			<point x="469" y="65" type="curve"/>
			<point x="554" y="-46" type="line"/>
			<point x="719" y="73" type="line"/>
			<point x="646" y="165" type="line"/>
			<point x="710" y="221"/>
			<point x="742" y="276"/>
			<point x="767" y="337" type="curve"/>
			<point x="575" y="344" type="line"/>
			<point x="569" y="329"/>
			<point x="562" y="315"/>
			<point x="542" y="293" type="curve"/>
			<point x="492" y="360" type="line"/>
			<point x="606" y="395"/>
			<point x="679" y="443"/>
			<point x="679" y="553" type="curve" smooth="yes"/>
			<point x="679" y="678"/>
			<point x="584" y="726"/>
		</contour>
		<contour>
			<point x="391" y="524" type="curve" smooth="yes"/>
			<point x="391" y="549"/>
			<point x="403" y="574"/>
			<point x="434" y="574" type="curve" smooth="yes"/>
			<point x="458" y="574"/>
			<point x="470" y="561"/>
			<point x="470" y="544" type="curve" smooth="yes"/>
			<point x="470" y="503"/>
			<point x="448" y="485"/>
			<point x="412" y="469" type="curve"/>
			<point x="399" y="487"/>
			<point x="391" y="503"/>
		</contour>
		<contour>
			<point x="300" y="159" type="curve" smooth="yes"/>
			<point x="262" y="159"/>
			<point x="240" y="179"/>
			<point x="240" y="213" type="curve" smooth="yes"/>
			<point x="240" y="243"/>
			<point x="257" y="273"/>
			<point x="294" y="289" type="curve"/>
			<point x="375" y="183" type="line"/>
			<point x="348" y="165"/>
			<point x="325" y="159"/>
		</contour>
	</outline>
</glyph>
<glyph name="quotesingle" format="2">
  <advance width="271"/>
  <unicode hex="0027"/>
  <note>
quotesingle
</note>
  <outline>
    <contour>
      <point x="354" y="730" type="line"/>
      <point x="116" y="730" type="line"/>
      <point x="81" y="420" type="line"/>
      <point x="257" y="420" type="line"/>
    </contour>
  </outline>
</glyph>
<glyph name="parenleft" format="2">
  <advance width="356"/>
  <unicode hex="0028"/>
  <note>
parenleft
</note>
  <outline>
    <contour>
      <point x="448" y="750" type="curve"/>
      <point x="253" y="750" type="line"/>
      <point x="100" y="563"/>
      <point x="17" y="367"/>
      <point x="17" y="159" type="curve" smooth="yes"/>
      <point x="17" y="0"/>
      <point x="67" y="-125"/>
      <point x="67" y="-125" type="curve"/>
      <point x="262" y="-125" type="line"/>
      <point x="262" y="-125"/>
      <point x="240" y="-43"/>
      <point x="240" y="82" type="curve" smooth="yes"/>
      <point x="240" y="312"/>
      <point x="314" y="524"/>
    </contour>
  </outline>
</glyph>
<glyph name="parenright" format="2">
  <advance width="356"/>
  <unicode hex="0029"/>
  <note>
parenright
</note>
  <outline>
    <contour>
      <point x="-69" y="-125" type="curve"/>
      <point x="126" y="-125" type="line"/>
      <point x="279" y="62"/>
      <point x="362" y="258"/>
      <point x="362" y="466" type="curve" smooth="yes"/>
      <point x="362" y="625"/>
      <point x="312" y="750"/>
      <point x="312" y="750" type="curve"/>
      <point x="117" y="750" type="line"/>
      <point x="117" y="750"/>
      <point x="139" y="668"/>
      <point x="139" y="543" type="curve" smooth="yes"/>
      <point x="139" y="313"/>
      <point x="65" y="101"/>
    </contour>
  </outline>
</glyph>
<glyph name="asterisk" format="2">
  <advance width="478"/>
  <unicode hex="002A"/>
  <note>
asterisk
</note>
  <outline>
    <contour>
      <point x="421" y="331" type="line"/>
      <point x="379" y="436" type="line"/>
      <point x="491" y="428" type="line"/>
      <point x="491" y="575" type="line"/>
      <point x="378" y="567" type="line"/>
      <point x="420" y="670" type="line"/>
      <point x="280" y="715" type="line"/>
      <point x="253" y="606" type="line"/>
      <point x="168" y="678" type="line"/>
      <point x="82" y="559" type="line"/>
      <point x="177" y="499" type="line"/>
      <point x="84" y="440" type="line"/>
      <point x="169" y="322" type="line"/>
      <point x="255" y="394" type="line"/>
      <point x="284" y="286" type="line"/>
    </contour>
  </outline>
</glyph>
<glyph name="plus" format="2">
  <advance width="560"/>
  <unicode hex="002B"/>
  <note>
plus
</note>
  <outline>
    <contour>
      <point x="214" y="374" type="line"/>
      <point x="74" y="374" type="line"/>
      <point x="36" y="194" type="line"/>
      <point x="176" y="194" type="line"/>
      <point x="146" y="54" type="line"/>
      <point x="326" y="54" type="line"/>
      <point x="356" y="194" type="line"/>
      <point x="496" y="194" type="line"/>
      <point x="534" y="374" type="line"/>
      <point x="394" y="374" type="line"/>
      <point x="424" y="514" type="line"/>
      <point x="244" y="514" type="line"/>
    </contour>
  </outline>
</glyph>
<glyph name="comma" format="2">
  <advance width="294"/>
  <unicode hex="002C"/>
  <note>
comma
</note>
  <outline>
    <contour>
      <point x="267" y="200" type="line"/>
      <point x="25" y="200" type="line"/>
      <point x="-61" y="-103" type="line"/>
      <point x="124" y="-103" type="line"/>
    </contour>
  </outline>
</glyph>
<glyph name="hyphen" format="2">
	<advance width="360"/>
	<unicode hex="002D"/>
	<note>
		hyphen
	</note>
	<outline>
		<contour>
			<point x="353" y="374" type="line"/>
			<point x="55" y="374" type="line"/>
			<point x="17" y="194" type="line"/>
			<point x="315" y="194" type="line"/>
		</contour>
	</outline>
</glyph>
<glyph name="period" format="2">
  <advance width="297"/>
  <unicode hex="002E"/>
  <note>
period
</note>
  <outline>
    <contour>
      <point x="255" y="200" type="line"/>
      <point x="18" y="200" type="line"/>
      <point x="-25" y="0" type="line"/>
      <point x="212" y="0" type="line"/>
    </contour>
  </outline>
</glyph>
<glyph name="slash" format="2">
	<advance width="487"/>
	<unicode hex="002F"/>
	<note>
		slash
	</note>
	<outline>
		<contour>
			<point x="559" y="634" type="line"/>
			<point x="401" y="734" type="line"/>
			<point x="-36" y="44" type="line"/>
			<point x="123" y="-56" type="line"/>
		</contour>
	</outline>
</glyph>
<glyph name="zero" format="2">
  <advance width="590"/>
  <unicode hex="0030"/>
  <note>
zero
</note>
  <outline>
    <contour>
      <point x="365" y="690" type="curve" smooth="yes"/>
      <point x="114" y="690"/>
      <point x="31" y="403"/>
      <point x="31" y="200" type="curve" smooth="yes"/>
      <point x="31" y="48"/>
      <point x="117" y="-14"/>
      <point x="261" y="-14" type="curve" smooth="yes"/>
      <point x="506" y="-14"/>
      <point x="592" y="273"/>
      <point x="592" y="471" type="curve" smooth="yes"/>
      <point x="592" y="635"/>
      <point x="495" y="690"/>
    </contour>
    <contour>
      <point x="346" y="500" type="curve" smooth="yes"/>
      <point x="357" y="500"/>
      <point x="368" y="496"/>
      <point x="368" y="470" type="curve" smooth="yes"/>
      <point x="368" y="424"/>
      <point x="332" y="176"/>
      <point x="276" y="176" type="curve" smooth="yes"/>
      <point x="264" y="176"/>
      <point x="255" y="182"/>
      <point x="255" y="207" type="curve" smooth="yes"/>
      <point x="255" y="247"/>
      <point x="291" y="500"/>
    </contour>
  </outline>
</glyph>
<glyph name="one" format="2">
	<advance width="450"/>
	<unicode hex="0031"/>
	<note>
		one
	</note>
	<outline>
		<contour>
			<point x="496" y="673" type="line"/>
			<point x="307" y="673" type="line"/>
			<point x="53" y="547" type="line"/>
			<point x="111" y="387" type="line"/>
			<point x="220" y="435" type="line"/>
			<point x="127" y="0" type="line"/>
			<point x="352" y="0" type="line"/>
		</contour>
	</outline>
</glyph>
<glyph name="two" format="2">
  <advance width="527"/>
  <unicode hex="0032"/>
  <note>
two
</note>
  <outline>
    <contour>
      <point x="12" y="175" type="line"/>
      <point x="-25" y="0" type="line"/>
      <point x="442" y="0" type="line"/>
      <point x="482" y="184" type="line"/>
      <point x="267" y="184" type="line"/>
      <point x="345" y="238" type="line" smooth="yes"/>
      <point x="492" y="340"/>
      <point x="545" y="417"/>
      <point x="545" y="530" type="curve" smooth="yes"/>
      <point x="545" y="637"/>
      <point x="469" y="690"/>
      <point x="345" y="690" type="curve" smooth="yes"/>
      <point x="227" y="690"/>
      <point x="116" y="653"/>
      <point x="116" y="653" type="curve"/>
      <point x="89" y="478" type="line"/>
      <point x="89" y="478"/>
      <point x="171" y="494"/>
      <point x="228" y="494" type="curve" smooth="yes"/>
      <point x="287" y="494"/>
      <point x="302" y="478"/>
      <point x="302" y="458" type="curve" smooth="yes"/>
      <point x="302" y="409"/>
      <point x="235" y="364"/>
      <point x="117" y="264" type="curve" smooth="yes"/>
    </contour>
  </outline>
</glyph>
<glyph name="three" format="2">
	<advance width="558"/>
	<unicode hex="0033"/>
	<note>
		three
	</note>
	<outline>
		<contour>
			<point x="119" y="660" type="curve"/>
			<point x="87" y="486" type="line"/>
			<point x="87" y="486"/>
			<point x="194" y="495"/>
			<point x="251" y="495" type="curve" smooth="yes"/>
			<point x="301" y="495"/>
			<point x="316" y="488"/>
			<point x="316" y="466" type="curve" smooth="yes"/>
			<point x="316" y="445"/>
			<point x="304" y="428"/>
			<point x="259" y="428" type="curve" smooth="yes"/>
			<point x="122" y="428" type="line"/>
			<point x="85" y="254" type="line"/>
			<point x="233" y="252" type="line" smooth="yes"/>
			<point x="267" y="252"/>
			<point x="279" y="243"/>
			<point x="279" y="220" type="curve" smooth="yes"/>
			<point x="279" y="184"/>
			<point x="246" y="182"/>
			<point x="212" y="182" type="curve" smooth="yes"/>
			<point x="139" y="182"/>
			<point x="21" y="191"/>
			<point x="21" y="191" type="curve"/>
			<point x="-23" y="13" type="line"/>
			<point x="-23" y="13"/>
			<point x="91" y="-14"/>
			<point x="204" y="-14" type="curve" smooth="yes"/>
			<point x="417" y="-14"/>
			<point x="522" y="84"/>
			<point x="522" y="222" type="curve" smooth="yes"/>
			<point x="522" y="306"/>
			<point x="485" y="333"/>
			<point x="436" y="351" type="curve"/>
			<point x="537" y="389"/>
			<point x="559" y="465"/>
			<point x="559" y="525" type="curve" smooth="yes"/>
			<point x="559" y="644"/>
			<point x="474" y="690"/>
			<point x="341" y="690" type="curve" smooth="yes"/>
			<point x="233" y="690"/>
			<point x="119" y="660"/>
		</contour>
	</outline>
</glyph>
<glyph name="four" format="2">
	<advance width="570"/>
	<unicode hex="0034"/>
	<note>
		four
	</note>
	<outline>
		<contour>
			<point x="-8" y="80" type="line"/>
			<point x="251" y="80" type="line"/>
			<point x="234" y="0" type="line"/>
			<point x="463" y="0" type="line"/>
			<point x="480" y="80" type="line"/>
			<point x="515" y="80" type="line"/>
			<point x="555" y="268" type="line"/>
			<point x="511" y="268" type="line"/>
			<point x="537" y="388" type="line"/>
			<point x="333" y="381" type="line"/>
			<point x="290" y="268" type="line"/>
			<point x="241" y="268" type="line"/>
			<point x="461" y="673" type="line"/>
			<point x="185" y="673" type="line"/>
			<point x="27" y="242" type="line"/>
		</contour>
	</outline>
</glyph>
<glyph name="five" format="2">
  <advance width="557"/>
  <unicode hex="0035"/>
  <note>
five
</note>
  <outline>
    <contour>
      <point x="541" y="483" type="line"/>
      <point x="582" y="673" type="line"/>
      <point x="143" y="673" type="line"/>
      <point x="40" y="246" type="line"/>
      <point x="181" y="228" type="line"/>
      <point x="181" y="228"/>
      <point x="216" y="248"/>
      <point x="259" y="248" type="curve" smooth="yes"/>
      <point x="285" y="248"/>
      <point x="302" y="242"/>
      <point x="302" y="216" type="curve" smooth="yes"/>
      <point x="302" y="188"/>
      <point x="284" y="175"/>
      <point x="228" y="175" type="curve" smooth="yes"/>
      <point x="159" y="175"/>
      <point x="31" y="201"/>
      <point x="31" y="201" type="curve"/>
      <point x="-23" y="26" type="line"/>
      <point x="-23" y="26"/>
      <point x="105" y="-14"/>
      <point x="226" y="-14" type="curve" smooth="yes"/>
      <point x="456" y="-14"/>
      <point x="534" y="128"/>
      <point x="534" y="262" type="curve" smooth="yes"/>
      <point x="534" y="392"/>
      <point x="460" y="434"/>
      <point x="355" y="434" type="curve" smooth="yes"/>
      <point x="292" y="434"/>
      <point x="256" y="419"/>
      <point x="256" y="419" type="curve"/>
      <point x="274" y="483" type="line"/>
    </contour>
  </outline>
</glyph>
<glyph name="six" format="2">
  <advance width="581"/>
  <unicode hex="0036"/>
  <note>
six
</note>
  <outline>
    <contour>
      <point x="569" y="486" type="curve"/>
      <point x="621" y="655" type="line"/>
      <point x="621" y="655"/>
      <point x="488" y="690"/>
      <point x="383" y="690" type="curve" smooth="yes"/>
      <point x="104" y="690"/>
      <point x="34" y="389"/>
      <point x="34" y="229" type="curve" smooth="yes"/>
      <point x="34" y="57"/>
      <point x="122" y="-14"/>
      <point x="268" y="-14" type="curve" smooth="yes"/>
      <point x="472" y="-14"/>
      <point x="555" y="122"/>
      <point x="555" y="273" type="curve" smooth="yes"/>
      <point x="555" y="397"/>
      <point x="494" y="440"/>
      <point x="403" y="440" type="curve" smooth="yes"/>
      <point x="315" y="440"/>
      <point x="275" y="401"/>
      <point x="275" y="401" type="curve"/>
      <point x="302" y="471"/>
      <point x="322" y="503"/>
      <point x="398" y="503" type="curve" smooth="yes"/>
      <point x="461" y="503"/>
      <point x="569" y="486"/>
    </contour>
    <contour>
      <point x="307" y="273" type="curve" smooth="yes"/>
      <point x="330" y="273"/>
      <point x="342" y="259"/>
      <point x="342" y="232" type="curve" smooth="yes"/>
      <point x="342" y="200"/>
      <point x="329" y="168"/>
      <point x="288" y="168" type="curve" smooth="yes"/>
      <point x="260" y="168"/>
      <point x="241" y="183"/>
      <point x="241" y="209" type="curve" smooth="yes"/>
      <point x="241" y="222"/>
      <point x="241" y="235"/>
      <point x="246" y="253" type="curve"/>
      <point x="246" y="253"/>
      <point x="272" y="273"/>
    </contour>
  </outline>
</glyph>
<glyph name="seven" format="2">
	<advance width="491"/>
	<unicode hex="0037"/>
	<note>
		seven
	</note>
	<outline>
		<contour>
			<point x="557" y="673" type="line"/>
			<point x="105" y="673" type="line"/>
			<point x="61" y="469" type="line"/>
			<point x="280" y="469" type="line"/>
			<point x="275" y="443" type="line"/>
			<point x="44" y="78" type="line"/>
			<point x="212" y="-18" type="line"/>
			<point x="511" y="457" type="line"/>
		</contour>
	</outline>
</glyph>
<glyph name="eight" format="2">
  <advance width="589"/>
  <unicode hex="0038"/>
  <note>
eight
</note>
  <outline>
    <contour>
      <point x="10" y="148" type="curve" smooth="yes"/>
      <point x="10" y="42"/>
      <point x="91" y="-14"/>
      <point x="251" y="-14" type="curve" smooth="yes"/>
      <point x="448" y="-14"/>
      <point x="552" y="72"/>
      <point x="552" y="234" type="curve" smooth="yes"/>
      <point x="552" y="285"/>
      <point x="525" y="328"/>
      <point x="468" y="350" type="curve"/>
      <point x="575" y="398"/>
      <point x="596" y="469"/>
      <point x="596" y="539" type="curve" smooth="yes"/>
      <point x="596" y="644"/>
      <point x="501" y="690"/>
      <point x="367" y="690" type="curve" smooth="yes"/>
      <point x="205" y="690"/>
      <point x="83" y="621"/>
      <point x="83" y="474" type="curve" smooth="yes"/>
      <point x="83" y="420"/>
      <point x="116" y="379"/>
      <point x="153" y="353" type="curve"/>
      <point x="52" y="315"/>
      <point x="10" y="232"/>
    </contour>
    <contour>
      <point x="347" y="521" type="curve" smooth="yes"/>
      <point x="372" y="521"/>
      <point x="381" y="507"/>
      <point x="381" y="491" type="curve" smooth="yes"/>
      <point x="381" y="467"/>
      <point x="368" y="442"/>
      <point x="341" y="423" type="curve"/>
      <point x="314" y="423" type="line"/>
      <point x="304" y="430"/>
      <point x="298" y="445"/>
      <point x="298" y="463" type="curve" smooth="yes"/>
      <point x="298" y="488"/>
      <point x="311" y="521"/>
    </contour>
    <contour>
      <point x="234" y="192" type="curve" smooth="yes"/>
      <point x="234" y="217"/>
      <point x="247" y="242"/>
      <point x="281" y="263" type="curve"/>
      <point x="307" y="263" type="line"/>
      <point x="319" y="254"/>
      <point x="328" y="238"/>
      <point x="328" y="214" type="curve" smooth="yes"/>
      <point x="328" y="179"/>
      <point x="313" y="156"/>
      <point x="275" y="156" type="curve" smooth="yes"/>
      <point x="245" y="156"/>
      <point x="234" y="171"/>
    </contour>
  </outline>
</glyph>
<glyph name="nine" format="2">
	<advance width="585"/>
	<unicode hex="0039"/>
	<note>
		nine
	</note>
	<outline>
		<contour>
			<point x="52" y="190" type="curve"/>
			<point x="0" y="21" type="line"/>
			<point x="0" y="21"/>
			<point x="144" y="-14"/>
			<point x="249" y="-14" type="curve" smooth="yes"/>
			<point x="518" y="-14"/>
			<point x="580" y="247"/>
			<point x="580" y="447" type="curve" smooth="yes"/>
			<point x="580" y="619"/>
			<point x="492" y="690"/>
			<point x="346" y="690" type="curve" smooth="yes"/>
			<point x="142" y="690"/>
			<point x="59" y="559"/>
			<point x="59" y="408" type="curve" smooth="yes"/>
			<point x="59" y="284"/>
			<point x="120" y="240"/>
			<point x="211" y="240" type="curve" smooth="yes"/>
			<point x="287" y="240"/>
			<point x="329" y="265"/>
			<point x="329" y="265" type="curve"/>
			<point x="332" y="213"/>
			<point x="310" y="173"/>
			<point x="234" y="173" type="curve" smooth="yes"/>
			<point x="171" y="173"/>
			<point x="52" y="190"/>
		</contour>
		<contour>
			<point x="307" y="403" type="curve" smooth="yes"/>
			<point x="284" y="403"/>
			<point x="272" y="419"/>
			<point x="272" y="446" type="curve" smooth="yes"/>
			<point x="272" y="478"/>
			<point x="287" y="508"/>
			<point x="325" y="508" type="curve" smooth="yes"/>
			<point x="353" y="508"/>
			<point x="373" y="493"/>
			<point x="373" y="467" type="curve" smooth="yes"/>
			<point x="373" y="454"/>
			<point x="373" y="440"/>
			<point x="368" y="424" type="curve"/>
			<point x="368" y="424"/>
			<point x="342" y="403"/>
		</contour>
	</outline>
</glyph>
<glyph name="colon" format="2">
	<advance width="306"/>
	<unicode hex="003A"/>
	<note>
		colon
	</note>
	<outline>
		<contour>
			<point x="322" y="495" type="line"/>
			<point x="85" y="495" type="line"/>
			<point x="42" y="295" type="line"/>
			<point x="279" y="295" type="line"/>
		</contour>
		<contour>
			<point x="259" y="200" type="line"/>
			<point x="22" y="200" type="line"/>
			<point x="-21" y="0" type="line"/>
			<point x="216" y="0" type="line"/>
		</contour>
	</outline>
</glyph>
<glyph name="semicolon" format="2">
  <advance width="311"/>
  <unicode hex="003B"/>
  <note>
semicolon
</note>
  <outline>
    <contour>
      <point x="324" y="495" type="line"/>
      <point x="87" y="495" type="line"/>
      <point x="44" y="295" type="line"/>
      <point x="281" y="295" type="line"/>
    </contour>
    <contour>
      <point x="276" y="200" type="line"/>
      <point x="34" y="200" type="line"/>
      <point x="-52" y="-103" type="line"/>
      <point x="133" y="-103" type="line"/>
    </contour>
  </outline>
</glyph>
<glyph name="less" format="2">
  <advance width="560"/>
  <unicode hex="003C"/>
  <note>
less
</note>
  <outline>
    <contour>
      <point x="476" y="200" type="line"/>
      <point x="236" y="271" type="line"/>
      <point x="506" y="342" type="line"/>
      <point x="549" y="555" type="line"/>
      <point x="99" y="398" type="line"/>
      <point x="51" y="170" type="line"/>
      <point x="433" y="13" type="line"/>
    </contour>
  </outline>
</glyph>
<glyph name="equal" format="2">
	<advance width="560"/>
	<unicode hex="003D"/>
	<note>
		equal
	</note>
	<outline>
		<contour>
			<point x="541" y="472" type="line"/>
			<point x="109" y="472" type="line"/>
			<point x="75" y="312" type="line"/>
			<point x="507" y="312" type="line"/>
		</contour>
		<contour>
			<point x="495" y="256" type="line"/>
			<point x="63" y="256" type="line"/>
			<point x="29" y="96" type="line"/>
			<point x="461" y="96" type="line"/>
		</contour>
	</outline>
</glyph>
<glyph name="greater" format="2">
  <advance width="560"/>
  <unicode hex="003E"/>
  <note>
greater
</note>
  <outline>
    <contour>
      <point x="95" y="368" type="line"/>
      <point x="335" y="297" type="line"/>
      <point x="65" y="226" type="line"/>
      <point x="22" y="13" type="line"/>
      <point x="472" y="170" type="line"/>
      <point x="520" y="398" type="line"/>
      <point x="138" y="555" type="line"/>
    </contour>
  </outline>
</glyph>
<glyph name="question" format="2">
	<advance width="474"/>
	<unicode hex="003F"/>
	<note>
		question
	</note>
	<outline>
		<contour>
			<point x="520" y="561" type="curve" smooth="yes"/>
			<point x="520" y="655"/>
			<point x="461" y="726"/>
			<point x="329" y="726" type="curve" smooth="yes"/>
			<point x="207" y="726"/>
			<point x="107" y="694"/>
			<point x="107" y="694" type="curve"/>
			<point x="80" y="532" type="line"/>
			<point x="80" y="532"/>
			<point x="159" y="546"/>
			<point x="219" y="546" type="curve" smooth="yes"/>
			<point x="264" y="546"/>
			<point x="281" y="538"/>
			<point x="281" y="508" type="curve" smooth="yes"/>
			<point x="281" y="468"/>
			<point x="254" y="454"/>
			<point x="211" y="429" type="curve" smooth="yes"/>
			<point x="155" y="396"/>
			<point x="99" y="359"/>
			<point x="99" y="291" type="curve" smooth="yes"/>
			<point x="99" y="265"/>
			<point x="109" y="254"/>
			<point x="109" y="254" type="curve"/>
			<point x="284" y="254" type="line"/>
			<point x="287" y="271" type="line" smooth="yes"/>
			<point x="290" y="290"/>
			<point x="313" y="311"/>
			<point x="384" y="353" type="curve" smooth="yes"/>
			<point x="468" y="403"/>
			<point x="520" y="473"/>
		</contour>
		<contour>
			<point x="300" y="190" type="line"/>
			<point x="72" y="190" type="line"/>
			<point x="31" y="0" type="line"/>
			<point x="259" y="0" type="line"/>
		</contour>
	</outline>
</glyph>
<glyph name="at" format="2">
	<advance width="1073"/>
	<unicode hex="0040"/>
	<note>
		at
	</note>
	<outline>
		<contour>
			<point x="779" y="9" type="curve" smooth="yes"/>
			<point x="989" y="9"/>
			<point x="1067" y="190"/>
			<point x="1067" y="360" type="curve" smooth="yes"/>
			<point x="1067" y="624"/>
			<point x="921" y="745"/>
			<point x="621" y="745" type="curve" smooth="yes"/>
			<point x="138" y="745"/>
			<point x="14" y="419"/>
			<point x="14" y="158" type="curve" smooth="yes"/>
			<point x="14" y="-104"/>
			<point x="135" y="-219"/>
			<point x="429" y="-219" type="curve" smooth="yes"/>
			<point x="517" y="-219"/>
			<point x="597" y="-207"/>
			<point x="597" y="-207" type="curve"/>
			<point x="626" y="-59" type="line"/>
			<point x="626" y="-59"/>
			<point x="521" y="-69"/>
			<point x="481" y="-69" type="curve" smooth="yes"/>
			<point x="273" y="-69"/>
			<point x="178" y="-45"/>
			<point x="178" y="169" type="curve" smooth="yes"/>
			<point x="178" y="338"/>
			<point x="236" y="595"/>
			<point x="614" y="595" type="curve" smooth="yes"/>
			<point x="807" y="595"/>
			<point x="903" y="532"/>
			<point x="903" y="368" type="curve" smooth="yes"/>
			<point x="903" y="275"/>
			<point x="872" y="165"/>
			<point x="812" y="165" type="curve" smooth="yes"/>
			<point x="795" y="165"/>
			<point x="781" y="172"/>
			<point x="781" y="201" type="curve" smooth="yes"/>
			<point x="781" y="221"/>
			<point x="783" y="251"/>
			<point x="795" y="303" type="curve" smooth="yes"/>
			<point x="831" y="462" type="line"/>
			<point x="723" y="488"/>
			<point x="636" y="504"/>
			<point x="547" y="504" type="curve" smooth="yes"/>
			<point x="347" y="504"/>
			<point x="281" y="300"/>
			<point x="281" y="172" type="curve" smooth="yes"/>
			<point x="281" y="73"/>
			<point x="323" y="6"/>
			<point x="436" y="6" type="curve" smooth="yes"/>
			<point x="490" y="6"/>
			<point x="552" y="44"/>
			<point x="605" y="99" type="curve"/>
			<point x="630" y="42"/>
			<point x="688" y="9"/>
		</contour>
		<contour>
			<point x="513" y="169" type="curve" smooth="yes"/>
			<point x="496" y="169"/>
			<point x="486" y="182"/>
			<point x="486" y="218" type="curve" smooth="yes"/>
			<point x="486" y="292"/>
			<point x="503" y="351"/>
			<point x="543" y="351" type="curve" smooth="yes"/>
			<point x="561" y="351"/>
			<point x="596" y="342"/>
			<point x="596" y="342" type="curve"/>
			<point x="570" y="217" type="line"/>
			<point x="555" y="192"/>
			<point x="533" y="169"/>
		</contour>
	</outline>
</glyph>
<glyph name="D" format="2">
  <advance width="669"/>
  <unicode hex="0044"/>
  <note>
D
</note>
  <outline>
    <contour>
      <point x="137" y="710" type="line"/>
      <point x="-15" y="0" type="line"/>
      <point x="322" y="0" type="line" smooth="yes"/>
      <point x="567" y="0"/>
      <point x="673" y="239"/>
      <point x="673" y="459" type="curve" smooth="yes"/>
      <point x="673" y="639"/>
      <point x="571" y="710"/>
      <point x="395" y="710" type="curve" smooth="yes"/>
    </contour>
    <contour>
      <point x="305" y="189" type="curve" smooth="yes"/>
      <point x="254" y="189" type="line"/>
      <point x="326" y="521" type="line"/>
      <point x="368" y="521" type="line" smooth="yes"/>
      <point x="418" y="521"/>
      <point x="437" y="501"/>
      <point x="437" y="426" type="curve" smooth="yes"/>
      <point x="437" y="300"/>
      <point x="391" y="189"/>
    </contour>
  </outline>
</glyph>
<glyph name="E" format="2">
	<advance width="566"/>
	<unicode hex="0045"/>
	<note>
		E
	</note>
	<outline>
		<contour>
			<point x="628" y="710" type="line"/>
			<point x="136" y="710" type="line"/>
			<point x="-14" y="0" type="line"/>
			<point x="486" y="0" type="line"/>
			<point x="526" y="185" type="line"/>
			<point x="254" y="185" type="line"/>
			<point x="273" y="276" type="line"/>
			<point x="473" y="276" type="line"/>
			<point x="513" y="446" type="line"/>
			<point x="309" y="446" type="line"/>
			<point x="326" y="525" type="line"/>
			<point x="588" y="525" type="line"/>
		</contour>
	</outline>
</glyph>
<glyph name="F" format="2">
	<advance width="529"/>
	<unicode hex="0046"/>
	<note>
		F
	</note>
	<outline>
		<contour>
			<point x="610" y="710" type="line"/>
			<point x="136" y="710" type="line"/>
			<point x="-14" y="0" type="line"/>
			<point x="215" y="0" type="line"/>
			<point x="264" y="233" type="line"/>
			<point x="448" y="233" type="line"/>
			<point x="488" y="413" type="line"/>
			<point x="302" y="413" type="line"/>
			<point x="326" y="525" type="line"/>
			<point x="570" y="525" type="line"/>
		</contour>
	</outline>
</glyph>
<glyph name="H" format="2">
  <advance width="678"/>
  <unicode hex="0048"/>
  <note>
H
</note>
  <outline>
    <contour>
      <point x="269" y="259" type="line"/>
      <point x="408" y="259" type="line"/>
      <point x="353" y="0" type="line"/>
      <point x="582" y="0" type="line"/>
      <point x="734" y="710" type="line"/>
      <point x="505" y="710" type="line"/>
      <point x="449" y="449" type="line"/>
      <point x="310" y="449" type="line"/>
      <point x="366" y="710" type="line"/>
      <point x="137" y="710" type="line"/>
      <point x="-15" y="0" type="line"/>
      <point x="214" y="0" type="line"/>
    </contour>
  </outline>
</glyph>
<glyph name="I" format="2">
	<advance width="309"/>
	<unicode hex="0049"/>
	<note>
		I
	</note>
	<outline>
		<contour>
			<point x="365" y="710" type="line"/>
			<point x="136" y="710" type="line"/>
			<point x="-15" y="0" type="line"/>
			<point x="214" y="0" type="line"/>
		</contour>
	</outline>
</glyph>
<glyph name="J" format="2">
	<advance width="345"/>
	<unicode hex="004A"/>
	<note>
		J
	</note>
	<outline>
		<contour>
			<point x="290" y="183" type="curve" smooth="yes"/>
			<point x="403" y="710" type="line"/>
			<point x="176" y="710" type="line"/>
			<point x="81" y="268" type="line" smooth="yes"/>
			<point x="64" y="187"/>
			<point x="60" y="184"/>
			<point x="8" y="184" type="curve"/>
			<point x="-32" y="-7" type="line"/>
			<point x="196" y="-7"/>
			<point x="256" y="25"/>
		</contour>
	</outline>
</glyph>
<glyph name="M" format="2">
	<advance width="860"/>
	<unicode hex="004D"/>
	<note>
		M
	</note>
	<outline>
		<contour>
			<point x="469" y="710" type="line"/>
			<point x="137" y="710" type="line"/>
			<point x="-15" y="0" type="line"/>
			<point x="202" y="0" type="line"/>
			<point x="285" y="385" type="line"/>
			<point x="309" y="385" type="line"/>
			<point x="287" y="0" type="line"/>
			<point x="461" y="0" type="line"/>
			<point x="605" y="385" type="line"/>
			<point x="629" y="385" type="line"/>
			<point x="546" y="0" type="line"/>
			<point x="764" y="0" type="line"/>
			<point x="916" y="710" type="line"/>
			<point x="581" y="710" type="line"/>
			<point x="452" y="364" type="line"/>
		</contour>
	</outline>
</glyph>
<glyph name="N" format="2">
  <advance width="717"/>
  <unicode hex="004E"/>
  <note>
N
</note>
  <outline>
    <contour>
      <point x="353" y="710" type="line"/>
      <point x="137" y="710" type="line"/>
      <point x="-15" y="0" type="line"/>
      <point x="212" y="0" type="line"/>
      <point x="280" y="313" type="line"/>
      <point x="304" y="313" type="line"/>
      <point x="405" y="0" type="line"/>
      <point x="621" y="0" type="line"/>
      <point x="773" y="710" type="line"/>
      <point x="546" y="710" type="line"/>
      <point x="482" y="406" type="line"/>
      <point x="458" y="406" type="line"/>
    </contour>
  </outline>
</glyph>
<glyph name="Q" format="2">
	<advance width="731"/>
	<unicode hex="0051"/>
	<note>
		Q
	</note>
	<outline>
		<contour>
			<point x="295" y="-13" type="curve" smooth="yes"/>
			<point x="305" y="-13"/>
			<point x="314" y="-13"/>
			<point x="323" y="-12" type="curve"/>
			<point x="393" y="-159" type="line"/>
			<point x="590" y="-69" type="line"/>
			<point x="534" y="45" type="line"/>
			<point x="665" y="133"/>
			<point x="736" y="294"/>
			<point x="736" y="474" type="curve" smooth="yes"/>
			<point x="736" y="624"/>
			<point x="644" y="726"/>
			<point x="445" y="726" type="curve" smooth="yes"/>
			<point x="126" y="726"/>
			<point x="34" y="418"/>
			<point x="34" y="258" type="curve" smooth="yes"/>
			<point x="34" y="88"/>
			<point x="135" y="-13"/>
		</contour>
		<contour>
			<point x="347" y="175" type="curve" smooth="yes"/>
			<point x="307" y="175"/>
			<point x="275" y="196"/>
			<point x="275" y="248" type="curve" smooth="yes"/>
			<point x="275" y="393"/>
			<point x="331" y="537"/>
			<point x="424" y="537" type="curve" smooth="yes"/>
			<point x="477" y="537"/>
			<point x="494" y="511"/>
			<point x="494" y="463" type="curve" smooth="yes"/>
			<point x="494" y="336"/>
			<point x="445" y="175"/>
		</contour>
	</outline>
</glyph>
<glyph name="T" format="2">
  <advance width="554"/>
  <unicode hex="0054"/>
  <note>
T
</note>
  <outline>
    <contour>
      <point x="638" y="710" type="line"/>
      <point x="108" y="710" type="line"/>
      <point x="68" y="520" type="line"/>
      <point x="218" y="520" type="line"/>
      <point x="109" y="0" type="line"/>
      <point x="338" y="0" type="line"/>
      <point x="447" y="520" type="line"/>
      <point x="597" y="520" type="line"/>
    </contour>
  </outline>
</glyph>
<glyph name="V" format="2">
  <advance width="624"/>
  <unicode hex="0056"/>
  <note>
V
</note>
  <outline>
    <contour>
      <point x="92" y="0" type="line"/>
      <point x="434" y="0" type="line"/>
      <point x="710" y="710" type="line"/>
      <point x="470" y="710" type="line"/>
      <point x="325" y="234" type="line"/>
      <point x="300" y="234" type="line"/>
      <point x="338" y="710" type="line"/>
      <point x="98" y="710" type="line"/>
    </contour>
  </outline>
</glyph>
<glyph name="W" format="2">
  <advance width="932"/>
  <unicode hex="0057"/>
  <note>
W
</note>
  <outline>
    <contour>
      <point x="270" y="234" type="line"/>
      <point x="337" y="710" type="line"/>
      <point x="112" y="710" type="line"/>
      <point x="40" y="0" type="line"/>
      <point x="361" y="0" type="line"/>
      <point x="500" y="459" type="line"/>
      <point x="458" y="0" type="line"/>
      <point x="785" y="0" type="line"/>
      <point x="1004" y="710" type="line"/>
      <point x="778" y="710" type="line"/>
      <point x="660" y="234" type="line"/>
      <point x="635" y="234" type="line"/>
      <point x="675" y="700" type="line"/>
      <point x="438" y="700" type="line"/>
      <point x="295" y="234" type="line"/>
    </contour>
  </outline>
</glyph>
<glyph name="X" format="2">
  <advance width="612"/>
  <unicode hex="0058"/>
  <note>
X
</note>
  <outline>
    <contour>
      <point x="171" y="349" type="line"/>
      <point x="-55" y="0" type="line"/>
      <point x="177" y="0" type="line"/>
      <point x="296" y="226" type="line"/>
      <point x="322" y="0" type="line"/>
      <point x="555" y="0" type="line"/>
      <point x="486" y="379" type="line"/>
      <point x="703" y="710" type="line"/>
      <point x="479" y="710" type="line"/>
      <point x="355" y="504" type="line"/>
      <point x="335" y="710" type="line"/>
      <point x="104" y="710" type="line"/>
    </contour>
  </outline>
</glyph>
<glyph name="Y" format="2">
	<advance width="583"/>
	<unicode hex="0059"/>
	<note>
		Y
	</note>
	<outline>
		<contour>
			<point x="172" y="240" type="line"/>
			<point x="124" y="0" type="line"/>
			<point x="351" y="0" type="line"/>
			<point x="400" y="240" type="line"/>
			<point x="692" y="710" type="line"/>
			<point x="448" y="710" type="line"/>
			<point x="332" y="455" type="line"/>
			<point x="308" y="710" type="line"/>
			<point x="85" y="710" type="line"/>
		</contour>
	</outline>
</glyph>
<glyph name="Z" format="2">
	<advance width="616"/>
	<unicode hex="005A"/>
	<note>
		Z
	</note>
	<outline>
		<contour>
			<point x="670" y="710" type="line"/>
			<point x="131" y="710" type="line"/>
			<point x="90" y="520" type="line"/>
			<point x="308" y="520" type="line"/>
			<point x="303" y="495" type="line"/>
			<point x="13" y="190" type="line"/>
			<point x="-27" y="0" type="line"/>
			<point x="538" y="0" type="line"/>
			<point x="578" y="190" type="line"/>
			<point x="340" y="190" type="line"/>
			<point x="346" y="215" type="line"/>
			<point x="628" y="511" type="line"/>
		</contour>
	</outline>
</glyph>
<glyph name="bracketleft" format="2">
	<advance width="363"/>
	<unicode hex="005B"/>
	<note>
		bracketleft
	</note>
	<outline>
		<contour>
			<point x="329" y="570" type="line"/>
			<point x="403" y="570" type="line"/>
			<point x="441" y="750" type="line"/>
			<point x="142" y="750" type="line"/>
			<point x="-44" y="-125" type="line"/>
			<point x="255" y="-125" type="line"/>
			<point x="293" y="55" type="line"/>
			<point x="219" y="55" type="line"/>
		</contour>
	</outline>
</glyph>
<glyph name="backslash" format="2">
  <advance width="732"/>
  <unicode hex="005C"/>
  <note>
backslash
</note>
  <outline>
    <contour>
      <point x="680" y="44" type="line"/>
      <point x="243" y="734" type="line"/>
      <point x="85" y="634" type="line"/>
      <point x="521" y="-56" type="line"/>
    </contour>
  </outline>
</glyph>
<glyph name="bracketright" format="2">
  <advance width="363"/>
  <unicode hex="005D"/>
  <note>
bracketright
</note>
  <outline>
    <contour>
      <point x="57" y="55" type="line"/>
      <point x="-17" y="55" type="line"/>
      <point x="-55" y="-125" type="line"/>
      <point x="244" y="-125" type="line"/>
      <point x="430" y="750" type="line"/>
      <point x="131" y="750" type="line"/>
      <point x="93" y="570" type="line"/>
      <point x="167" y="570" type="line"/>
    </contour>
  </outline>
</glyph>
<glyph name="asciicircum" format="2">
	<advance width="560"/>
	<unicode hex="005E"/>
	<note>
		asciicircum
	</note>
	<outline>
		<contour>
			<point x="262" y="321" type="line"/>
			<point x="340" y="498" type="line"/>
			<point x="344" y="321" type="line"/>
			<point x="555" y="321" type="line"/>
			<point x="505" y="673" type="line"/>
			<point x="231" y="673" type="line"/>
			<point x="33" y="321" type="line"/>
		</contour>
	</outline>
</glyph>
<glyph name="underscore" format="2">
  <advance width="566"/>
  <unicode hex="005F"/>
  <note>
underscore
</note>
  <outline>
    <contour>
      <point x="480" y="-40" type="line"/>
      <point x="-40" y="-40" type="line"/>
      <point x="-70" y="-180" type="line"/>
      <point x="450" y="-180" type="line"/>
    </contour>
  </outline>
</glyph>
<glyph name="grave" format="2">
	<advance width="446"/>
	<unicode hex="0060"/>
	<note>
		grave
	</note>
	<outline>
		<contour>
			<point x="420" y="680" type="line"/>
			<point x="150" y="805" type="line"/>
			<point x="81" y="640" type="line"/>
			<point x="371" y="561" type="line"/>
		</contour>
	</outline>
</glyph>
<glyph name="b" format="2">
  <advance width="573"/>
  <unicode hex="0062"/>
  <note>
b
</note>
  <outline>
    <contour>
      <point x="416" y="537" type="curve" smooth="yes"/>
      <point x="335" y="537"/>
      <point x="296" y="480"/>
      <point x="296" y="480" type="curve"/>
      <point x="350" y="730" type="line"/>
      <point x="127" y="730" type="line"/>
      <point x="-17" y="31" type="line"/>
      <point x="-17" y="31"/>
      <point x="209" y="-14"/>
      <point x="301" y="-14" type="curve" smooth="yes"/>
      <point x="459" y="-14"/>
      <point x="563" y="146"/>
      <point x="563" y="355" type="curve" smooth="yes"/>
      <point x="563" y="466"/>
      <point x="511" y="537"/>
    </contour>
    <contour>
      <point x="291" y="146" type="curve" smooth="yes"/>
      <point x="265" y="146"/>
      <point x="225" y="157"/>
      <point x="225" y="157" type="curve"/>
      <point x="263" y="330" type="line"/>
      <point x="263" y="330"/>
      <point x="292" y="370"/>
      <point x="318" y="370" type="curve" smooth="yes"/>
      <point x="341" y="370"/>
      <point x="349" y="343"/>
      <point x="349" y="307" type="curve" smooth="yes"/>
      <point x="349" y="222"/>
      <point x="322" y="146"/>
    </contour>
  </outline>
</glyph>
<glyph name="f" format="2">
	<advance width="377"/>
	<unicode hex="0066"/>
	<note>
		f
	</note>
	<outline>
		<contour>
			<point x="-31" y="-200" type="line"/>
			<point x="149" y="-200" type="line"/>
			<point x="233" y="11" type="line"/>
			<point x="303" y="339" type="line"/>
			<point x="382" y="339" type="line"/>
			<point x="420" y="520" type="line"/>
			<point x="342" y="520" type="line"/>
			<point x="347" y="561"/>
			<point x="355" y="570"/>
			<point x="386" y="570" type="curve" smooth="yes"/>
			<point x="400" y="570"/>
			<point x="432" y="568"/>
			<point x="432" y="568" type="curve"/>
			<point x="467" y="732" type="line"/>
			<point x="467" y="732"/>
			<point x="389" y="748"/>
			<point x="344" y="748" type="curve" smooth="yes"/>
			<point x="231" y="748"/>
			<point x="166" y="708"/>
			<point x="138" y="589" type="curve" smooth="yes"/>
			<point x="122" y="520" type="line"/>
			<point x="76" y="520" type="line"/>
			<point x="37" y="339" type="line"/>
			<point x="84" y="339" type="line"/>
		</contour>
	</outline>
</glyph>
<glyph name="i" format="2">
	<advance width="281"/>
	<unicode hex="0069"/>
	<note>
		i
	</note>
	<outline>
		<contour>
			<point x="351" y="730" type="line"/>
			<point x="130" y="730" type="line"/>
			<point x="95" y="566" type="line"/>
			<point x="316" y="566" type="line"/>
		</contour>
		<contour>
			<point x="306" y="520" type="line"/>
			<point x="86" y="520" type="line"/>
			<point x="-24" y="0" type="line"/>
			<point x="195" y="0" type="line"/>
		</contour>
	</outline>
</glyph>
<glyph name="j" format="2">
  <advance width="284"/>
  <unicode hex="006A"/>
  <note>
j
</note>
  <outline>
    <contour>
      <point x="353" y="730" type="line"/>
      <point x="132" y="730" type="line"/>
      <point x="97" y="566" type="line"/>
      <point x="318" y="566" type="line"/>
    </contour>
    <contour>
      <point x="309" y="520" type="line"/>
      <point x="89" y="520" type="line"/>
      <point x="-5" y="76" type="line" smooth="yes"/>
      <point x="-20" y="4"/>
      <point x="-30" y="-2"/>
      <point x="-117" y="-40" type="curve"/>
      <point x="-83" y="-210" type="line"/>
      <point x="125" y="-148"/>
      <point x="173" y="-118"/>
      <point x="216" y="83" type="curve" smooth="yes"/>
    </contour>
  </outline>
</glyph>
<glyph name="k" format="2">
	<advance width="552"/>
	<unicode hex="006B"/>
	<note>
		k
	</note>
	<outline>
		<contour>
			<point x="131" y="730" type="line"/>
			<point x="-24" y="0" type="line"/>
			<point x="195" y="0" type="line"/>
			<point x="232" y="172" type="line"/>
			<point x="271" y="172" type="line"/>
			<point x="281" y="0" type="line"/>
			<point x="493" y="0" type="line"/>
			<point x="478" y="285" type="line"/>
			<point x="608" y="520" type="line"/>
			<point x="379" y="520" type="line"/>
			<point x="302" y="367" type="line"/>
			<point x="273" y="367" type="line"/>
			<point x="351" y="730" type="line"/>
		</contour>
	</outline>
</glyph>
<glyph name="l" format="2">
	<advance width="317"/>
	<unicode hex="006C"/>
	<note>
		l
	</note>
	<outline>
		<contour>
			<point x="237" y="206" type="curve" smooth="yes"/>
			<point x="348" y="730" type="line"/>
			<point x="128" y="730" type="line"/>
			<point x="9" y="168" type="line" smooth="yes"/>
			<point x="-17" y="43"/>
			<point x="10" y="-14"/>
			<point x="135" y="-14" type="curve" smooth="yes"/>
			<point x="200" y="-14"/>
			<point x="250" y="1"/>
			<point x="250" y="1" type="curve"/>
			<point x="287" y="175" type="line"/>
			<point x="287" y="175"/>
			<point x="271" y="174"/>
			<point x="261" y="174" type="curve" smooth="yes"/>
			<point x="239" y="174"/>
			<point x="232" y="181"/>
		</contour>
	</outline>
</glyph>
<glyph name="p" format="2">
	<advance width="574"/>
	<unicode hex="0070"/>
	<note>
		p
	</note>
	<outline>
		<contour>
			<point x="277" y="520" type="line"/>
			<point x="86" y="520" type="line"/>
			<point x="-67" y="-200" type="line"/>
			<point x="149" y="-200" type="line"/>
			<point x="192" y="3" type="line"/>
			<point x="192" y="3"/>
			<point x="248" y="-13"/>
			<point x="295" y="-13" type="curve" smooth="yes"/>
			<point x="493" y="-13"/>
			<point x="563" y="194"/>
			<point x="563" y="350" type="curve" smooth="yes"/>
			<point x="563" y="454"/>
			<point x="527" y="536"/>
			<point x="425" y="536" type="curve" smooth="yes"/>
			<point x="326" y="536"/>
			<point x="273" y="455"/>
			<point x="273" y="455" type="curve"/>
		</contour>
		<contour>
			<point x="315" y="360" type="curve" smooth="yes"/>
			<point x="337" y="360"/>
			<point x="346" y="332"/>
			<point x="346" y="298" type="curve" smooth="yes"/>
			<point x="346" y="219"/>
			<point x="326" y="146"/>
			<point x="288" y="146" type="curve" smooth="yes"/>
			<point x="265" y="146"/>
			<point x="225" y="157"/>
			<point x="225" y="157" type="curve"/>
			<point x="260" y="320" type="line"/>
			<point x="260" y="320"/>
			<point x="289" y="360"/>
		</contour>
	</outline>
</glyph>
<glyph name="q" format="2">
	<advance width="571"/>
	<unicode hex="0071"/>
	<note>
		q
	</note>
	<outline>
		<contour>
			<point x="165" y="-14" type="curve" smooth="yes"/>
			<point x="238" y="-14"/>
			<point x="276" y="48"/>
			<point x="276" y="48" type="curve"/>
			<point x="224" y="-200" type="line"/>
			<point x="447" y="-200" type="line"/>
			<point x="589" y="491" type="line"/>
			<point x="589" y="491"/>
			<point x="369" y="536"/>
			<point x="277" y="536" type="curve" smooth="yes"/>
			<point x="118" y="536"/>
			<point x="9" y="353"/>
			<point x="9" y="167" type="curve" smooth="yes"/>
			<point x="9" y="57"/>
			<point x="60" y="-14"/>
		</contour>
		<contour>
			<point x="280" y="376" type="curve" smooth="yes"/>
			<point x="304" y="376"/>
			<point x="347" y="365"/>
			<point x="347" y="365" type="curve"/>
			<point x="312" y="202" type="line"/>
			<point x="312" y="202"/>
			<point x="283" y="162"/>
			<point x="257" y="162" type="curve" smooth="yes"/>
			<point x="238" y="162"/>
			<point x="226" y="184"/>
			<point x="226" y="220" type="curve" smooth="yes"/>
			<point x="226" y="315"/>
			<point x="252" y="376"/>
		</contour>
	</outline>
</glyph>
<glyph name="r" format="2">
	<advance width="367"/>
	<unicode hex="0072"/>
	<note>
		r
	</note>
	<outline>
		<contour>
			<point x="282" y="520" type="line"/>
			<point x="86" y="520" type="line"/>
			<point x="-24" y="0" type="line"/>
			<point x="194" y="0" type="line"/>
			<point x="255" y="289" type="line"/>
			<point x="255" y="289"/>
			<point x="314" y="306"/>
			<point x="361" y="316" type="curve"/>
			<point x="413" y="535" type="line"/>
			<point x="340" y="519"/>
			<point x="276" y="453"/>
			<point x="276" y="453" type="curve"/>
		</contour>
	</outline>
</glyph>
<glyph name="v" format="2">
	<advance width="548"/>
	<unicode hex="0076"/>
	<note>
		v
	</note>
	<outline>
		<contour>
			<point x="245" y="187" type="line"/>
			<point x="286" y="520" type="line"/>
			<point x="62" y="520" type="line"/>
			<point x="35" y="0" type="line"/>
			<point x="402" y="0" type="line"/>
			<point x="596" y="520" type="line"/>
			<point x="367" y="520" type="line"/>
			<point x="269" y="187" type="line"/>
		</contour>
	</outline>
</glyph>
<glyph name="w" format="2">
  <advance width="786"/>
  <unicode hex="0077"/>
  <note>
w
</note>
  <outline>
    <contour>
      <point x="230" y="187" type="line"/>
      <point x="300" y="520" type="line"/>
      <point x="68" y="520" type="line"/>
      <point x="16" y="0" type="line"/>
      <point x="324" y="0" type="line"/>
      <point x="396" y="228" type="line"/>
      <point x="367" y="0" type="line"/>
      <point x="663" y="0" type="line"/>
      <point x="823" y="520" type="line"/>
      <point x="602" y="520" type="line"/>
      <point x="530" y="187" type="line"/>
      <point x="505" y="187" type="line"/>
      <point x="528" y="507" type="line"/>
      <point x="373" y="507" type="line"/>
      <point x="255" y="187" type="line"/>
    </contour>
  </outline>
</glyph>
<glyph name="x" format="2">
	<advance width="552"/>
	<unicode hex="0078"/>
	<note>
		x
	</note>
	<outline>
		<contour>
			<point x="282" y="520" type="line"/>
			<point x="46" y="520" type="line"/>
			<point x="162" y="266" type="line"/>
			<point x="-59" y="0" type="line"/>
			<point x="165" y="0" type="line"/>
			<point x="238" y="99" type="line"/>
			<point x="273" y="0" type="line"/>
			<point x="506" y="0" type="line"/>
			<point x="408" y="245" type="line"/>
			<point x="611" y="520" type="line"/>
			<point x="391" y="520" type="line"/>
			<point x="318" y="409" type="line"/>
		</contour>
	</outline>
</glyph>
<glyph name="y" format="2">
	<advance width="553"/>
	<unicode hex="0079"/>
	<note>
		y
	</note>
	<outline>
		<contour>
			<point x="290" y="520" type="line"/>
			<point x="61" y="520" type="line"/>
			<point x="39" y="0" type="line"/>
			<point x="179" y="0" type="line"/>
			<point x="93" y="-200" type="line"/>
			<point x="334" y="-200" type="line"/>
			<point x="600" y="520" type="line"/>
			<point x="371" y="520" type="line"/>
			<point x="267" y="187" type="line"/>
			<point x="242" y="187" type="line"/>
		</contour>
	</outline>
</glyph>
<glyph name="z" format="2">
	<advance width="512"/>
	<unicode hex="007A"/>
	<note>
		z
	</note>
	<outline>
		<contour>
			<point x="528" y="520" type="line"/>
			<point x="84" y="520" type="line"/>
			<point x="45" y="340" type="line"/>
			<point x="195" y="340" type="line"/>
			<point x="192" y="325" type="line"/>
			<point x="10" y="185" type="line"/>
			<point x="-29" y="0" type="line"/>
			<point x="437" y="0" type="line"/>
			<point x="477" y="190" type="line"/>
			<point x="302" y="190" type="line"/>
			<point x="306" y="205" type="line"/>
			<point x="489" y="335" type="line"/>
		</contour>
	</outline>
</glyph>
<glyph name="braceleft" format="2">
  <advance width="373"/>
  <unicode hex="007B"/>
  <note>
braceleft
</note>
  <outline>
    <contour>
      <point x="271" y="201" type="curve" smooth="yes"/>
      <point x="286" y="269"/>
      <point x="277" y="285"/>
      <point x="219" y="313" type="curve"/>
      <point x="287" y="331"/>
      <point x="302" y="347"/>
      <point x="317" y="417" type="curve" smooth="yes"/>
      <point x="325" y="454"/>
      <point x="328" y="482"/>
      <point x="335" y="515" type="curve" smooth="yes"/>
      <point x="346" y="565"/>
      <point x="357" y="573"/>
      <point x="419" y="578" type="curve"/>
      <point x="458" y="758" type="line"/>
      <point x="230" y="764"/>
      <point x="147" y="737"/>
      <point x="122" y="603" type="curve" smooth="yes"/>
      <point x="115" y="566"/>
      <point x="111" y="469"/>
      <point x="104" y="433" type="curve" smooth="yes"/>
      <point x="100" y="417"/>
      <point x="82" y="404"/>
      <point x="52" y="399" type="curve"/>
      <point x="16" y="230" type="line"/>
      <point x="44" y="224"/>
      <point x="56" y="210"/>
      <point x="52" y="190" type="curve" smooth="yes"/>
      <point x="47" y="166"/>
      <point x="15" y="98"/>
      <point x="7" y="59" type="curve" smooth="yes"/>
      <point x="-23" y="-87"/>
      <point x="69" y="-133"/>
      <point x="268" y="-133" type="curve"/>
      <point x="307" y="47" type="line"/>
      <point x="247" y="52"/>
      <point x="239" y="64"/>
      <point x="250" y="114" type="curve" smooth="yes"/>
      <point x="257" y="147"/>
      <point x="265" y="172"/>
    </contour>
  </outline>
</glyph>
<glyph name="bar" format="2">
	<advance width="302"/>
	<unicode hex="007C"/>
	<note>
		bar
	</note>
	<outline>
		<contour>
			<point x="360" y="730" type="line"/>
			<point x="142" y="730" type="line"/>
			<point x="-62" y="-230" type="line"/>
			<point x="156" y="-230" type="line"/>
		</contour>
	</outline>
</glyph>
<glyph name="braceright" format="2">
  <advance width="373"/>
  <unicode hex="007D"/>
  <note>
braceright
</note>
  <outline>
    <contour>
      <point x="125" y="424" type="curve" smooth="yes"/>
      <point x="110" y="356"/>
      <point x="119" y="340"/>
      <point x="177" y="312" type="curve"/>
      <point x="109" y="294"/>
      <point x="94" y="278"/>
      <point x="79" y="208" type="curve" smooth="yes"/>
      <point x="71" y="171"/>
      <point x="68" y="143"/>
      <point x="61" y="110" type="curve" smooth="yes"/>
      <point x="50" y="60"/>
      <point x="39" y="52"/>
      <point x="-23" y="47" type="curve"/>
      <point x="-62" y="-133" type="line"/>
      <point x="166" y="-139"/>
      <point x="249" y="-112"/>
      <point x="274" y="22" type="curve" smooth="yes"/>
      <point x="281" y="59"/>
      <point x="285" y="156"/>
      <point x="292" y="192" type="curve" smooth="yes"/>
      <point x="296" y="208"/>
      <point x="314" y="221"/>
      <point x="344" y="226" type="curve"/>
      <point x="380" y="395" type="line"/>
      <point x="352" y="401"/>
      <point x="340" y="415"/>
      <point x="344" y="435" type="curve" smooth="yes"/>
      <point x="349" y="459"/>
      <point x="381" y="527"/>
      <point x="389" y="566" type="curve" smooth="yes"/>
      <point x="419" y="712"/>
      <point x="327" y="758"/>
      <point x="128" y="758" type="curve"/>
      <point x="89" y="578" type="line"/>
      <point x="149" y="573"/>
      <point x="157" y="561"/>
      <point x="146" y="511" type="curve" smooth="yes"/>
      <point x="139" y="478"/>
      <point x="131" y="453"/>
    </contour>
  </outline>
</glyph>
<glyph name="asciitilde" format="2">
  <advance width="560"/>
  <unicode hex="007E"/>
  <note>
asciitilde
</note>
  <outline>
    <contour>
      <point x="530" y="240" type="curve"/>
      <point x="502" y="392" type="line"/>
      <point x="502" y="392"/>
      <point x="432" y="352"/>
      <point x="384" y="352" type="curve" smooth="yes"/>
      <point x="333" y="352"/>
      <point x="294" y="401"/>
      <point x="223" y="401" type="curve" smooth="yes"/>
      <point x="150" y="401"/>
      <point x="40" y="328"/>
      <point x="40" y="328" type="curve"/>
      <point x="68" y="176" type="line"/>
      <point x="68" y="176"/>
      <point x="138" y="216"/>
      <point x="186" y="216" type="curve" smooth="yes"/>
      <point x="237" y="216"/>
      <point x="276" y="167"/>
      <point x="347" y="167" type="curve" smooth="yes"/>
      <point x="420" y="167"/>
      <point x="530" y="240"/>
    </contour>
  </outline>
</glyph>
<glyph name="exclamdown" format="2">
  <advance width="296"/>
  <unicode hex="00A1"/>
  <note>
exclamdown
</note>
  <outline>
    <contour>
      <point x="49" y="330" type="line"/>
      <point x="277" y="330" type="line"/>
      <point x="317" y="520" type="line"/>
      <point x="89" y="520" type="line"/>
    </contour>
    <contour>
      <point x="-69" y="-190" type="line"/>
      <point x="173" y="-190" type="line"/>
      <point x="251" y="266" type="line"/>
      <point x="51" y="266" type="line"/>
    </contour>
  </outline>
</glyph>
<glyph name="cent" format="2">
  <advance width="515"/>
  <unicode hex="00A2"/>
  <note>
cent
</note>
  <outline>
    <contour>
      <point x="212" y="42" type="curve"/>
      <point x="185" y="-87" type="line"/>
      <point x="246" y="-87" type="line"/>
      <point x="274" y="43" type="line"/>
      <point x="369" y="47"/>
      <point x="445" y="64"/>
      <point x="445" y="64" type="curve"/>
      <point x="471" y="212" type="line"/>
      <point x="471" y="212"/>
      <point x="376" y="208"/>
      <point x="295" y="208" type="curve" smooth="yes"/>
      <point x="268" y="208"/>
      <point x="256" y="217"/>
      <point x="256" y="242" type="curve" smooth="yes"/>
      <point x="256" y="284"/>
      <point x="274" y="340"/>
      <point x="327" y="340" type="curve" smooth="yes"/>
      <point x="408" y="340"/>
      <point x="489" y="336"/>
      <point x="489" y="336" type="curve"/>
      <point x="527" y="486" type="line"/>
      <point x="527" y="486"/>
      <point x="451" y="502"/>
      <point x="372" y="505" type="curve"/>
      <point x="400" y="639" type="line"/>
      <point x="339" y="639" type="line"/>
      <point x="311" y="506" type="line"/>
      <point x="99" y="499"/>
      <point x="27" y="345"/>
      <point x="27" y="207" type="curve" smooth="yes"/>
      <point x="27" y="102"/>
      <point x="79" y="45"/>
    </contour>
  </outline>
</glyph>
<glyph name="sterling" format="2">
  <advance width="553"/>
  <unicode hex="00A3"/>
  <note>
sterling
</note>
  <outline>
    <contour>
      <point x="552" y="490" type="curve"/>
      <point x="593" y="656" type="line"/>
      <point x="593" y="656"/>
      <point x="500" y="677"/>
      <point x="422" y="677" type="curve" smooth="yes"/>
      <point x="240" y="677"/>
      <point x="173" y="634"/>
      <point x="140" y="493" type="curve" smooth="yes"/>
      <point x="117" y="393" type="line"/>
      <point x="55" y="393" type="line"/>
      <point x="39" y="319" type="line"/>
      <point x="101" y="319" type="line"/>
      <point x="72" y="183" type="line"/>
      <point x="10" y="183" type="line"/>
      <point x="-29" y="0" type="line"/>
      <point x="361" y="0" type="line"/>
      <point x="485" y="16" type="line"/>
      <point x="506" y="198" type="line"/>
      <point x="385" y="183" type="line"/>
      <point x="292" y="183" type="line"/>
      <point x="321" y="319" type="line"/>
      <point x="458" y="319" type="line"/>
      <point x="474" y="393" type="line"/>
      <point x="337" y="393" type="line"/>
      <point x="343" y="421" type="line" smooth="yes"/>
      <point x="354" y="474"/>
      <point x="373" y="494"/>
      <point x="453" y="494" type="curve" smooth="yes"/>
      <point x="482" y="494"/>
      <point x="552" y="490"/>
    </contour>
  </outline>
</glyph>
<glyph name="currency" format="2">
	<advance width="526"/>
	<unicode hex="00A4"/>
	<note>
		currency
	</note>
	<outline>
		<contour>
			<point x="369" y="103" type="curve"/>
			<point x="418" y="40" type="line"/>
			<point x="464" y="78" type="line"/>
			<point x="415" y="142" type="line"/>
			<point x="475" y="198"/>
			<point x="492" y="274"/>
			<point x="492" y="324" type="curve" smooth="yes"/>
			<point x="492" y="350"/>
			<point x="486" y="373"/>
			<point x="473" y="394" type="curve"/>
			<point x="549" y="458" type="line"/>
			<point x="510" y="503" type="line"/>
			<point x="435" y="440" type="line"/>
			<point x="404" y="469"/>
			<point x="363" y="484"/>
			<point x="310" y="484" type="curve" smooth="yes"/>
			<point x="257" y="484"/>
			<point x="204" y="467"/>
			<point x="161" y="438" type="curve"/>
			<point x="112" y="501" type="line"/>
			<point x="66" y="462" type="line"/>
			<point x="116" y="398" type="line"/>
			<point x="53" y="338"/>
			<point x="38" y="262"/>
			<point x="38" y="219" type="curve" smooth="yes"/>
			<point x="38" y="191"/>
			<point x="44" y="167"/>
			<point x="58" y="146" type="curve"/>
			<point x="-19" y="82" type="line"/>
			<point x="19" y="35" type="line"/>
			<point x="94" y="98" type="line"/>
			<point x="125" y="69"/>
			<point x="166" y="56"/>
			<point x="219" y="56" type="curve" smooth="yes"/>
			<point x="272" y="56"/>
			<point x="326" y="74"/>
		</contour>
		<contour>
			<point x="250" y="200" type="curve" smooth="yes"/>
			<point x="216" y="200"/>
			<point x="192" y="220"/>
			<point x="192" y="253" type="curve" smooth="yes"/>
			<point x="192" y="301"/>
			<point x="232" y="340"/>
			<point x="280" y="340" type="curve" smooth="yes"/>
			<point x="314" y="340"/>
			<point x="338" y="320"/>
			<point x="338" y="287" type="curve" smooth="yes"/>
			<point x="338" y="239"/>
			<point x="298" y="200"/>
		</contour>
	</outline>
</glyph>
<glyph name="yen" format="2">
	<advance width="594"/>
	<unicode hex="00A5"/>
	<note>
		yen
	</note>
	<outline>
		<contour>
			<point x="134" y="0" type="line"/>
			<point x="348" y="0" type="line"/>
			<point x="370" y="104" type="line"/>
			<point x="477" y="104" type="line"/>
			<point x="493" y="178" type="line"/>
			<point x="386" y="178" type="line"/>
			<point x="397" y="228" type="line"/>
			<point x="504" y="228" type="line"/>
			<point x="520" y="302" type="line"/>
			<point x="436" y="302" type="line"/>
			<point x="670" y="665" type="line"/>
			<point x="436" y="665" type="line"/>
			<point x="324" y="422" type="line"/>
			<point x="316" y="665" type="line"/>
			<point x="94" y="665" type="line"/>
			<point x="175" y="302" type="line"/>
			<point x="92" y="302" type="line"/>
			<point x="76" y="228" type="line"/>
			<point x="183" y="228" type="line"/>
			<point x="172" y="178" type="line"/>
			<point x="65" y="178" type="line"/>
			<point x="49" y="104" type="line"/>
			<point x="156" y="104" type="line"/>
		</contour>
	</outline>
</glyph>
<glyph name="brokenbar" format="2">
  <advance width="302"/>
  <unicode hex="00A6"/>
  <note>
brokenbar
</note>
  <outline>
    <contour>
      <point x="273" y="320" type="line"/>
      <point x="360" y="730" type="line"/>
      <point x="142" y="730" type="line"/>
      <point x="55" y="320" type="line"/>
    </contour>
    <contour>
      <point x="156" y="-230" type="line"/>
      <point x="243" y="180" type="line"/>
      <point x="25" y="180" type="line"/>
      <point x="-62" y="-230" type="line"/>
    </contour>
  </outline>
</glyph>
<glyph name="section" format="2">
	<advance width="604"/>
	<unicode hex="00A7"/>
	<note>
		section
	</note>
	<outline>
		<contour>
			<point x="580" y="535" type="curve"/>
			<point x="621" y="699" type="line"/>
			<point x="621" y="699"/>
			<point x="505" y="726"/>
			<point x="396" y="726" type="curve" smooth="yes"/>
			<point x="184" y="726"/>
			<point x="88" y="636"/>
			<point x="88" y="502" type="curve" smooth="yes"/>
			<point x="88" y="457"/>
			<point x="96" y="432"/>
			<point x="119" y="396" type="curve"/>
			<point x="59" y="357"/>
			<point x="26" y="319"/>
			<point x="26" y="252" type="curve" smooth="yes"/>
			<point x="26" y="175"/>
			<point x="73" y="139"/>
			<point x="156" y="120" type="curve" smooth="yes"/>
			<point x="281" y="92"/>
			<point x="303" y="89"/>
			<point x="303" y="72" type="curve" smooth="yes"/>
			<point x="303" y="50"/>
			<point x="280" y="39"/>
			<point x="239" y="39" type="curve" smooth="yes"/>
			<point x="166" y="39"/>
			<point x="18" y="62"/>
			<point x="18" y="62" type="curve"/>
			<point x="-35" y="-104" type="line"/>
			<point x="-35" y="-104"/>
			<point x="122" y="-139"/>
			<point x="249" y="-139" type="curve" smooth="yes"/>
			<point x="429" y="-139"/>
			<point x="535" y="-36"/>
			<point x="535" y="88" type="curve" smooth="yes"/>
			<point x="535" y="133"/>
			<point x="525" y="155"/>
			<point x="496" y="177" type="curve"/>
			<point x="561" y="211"/>
			<point x="594" y="264"/>
			<point x="594" y="341" type="curve" smooth="yes"/>
			<point x="594" y="414"/>
			<point x="539" y="448"/>
			<point x="449" y="467" type="curve" smooth="yes"/>
			<point x="322" y="493"/>
			<point x="317" y="499"/>
			<point x="317" y="515" type="curve" smooth="yes"/>
			<point x="317" y="536"/>
			<point x="334" y="545"/>
			<point x="394" y="545" type="curve" smooth="yes"/>
			<point x="462" y="545"/>
			<point x="580" y="535"/>
		</contour>
		<contour>
			<point x="327" y="327" type="curve" smooth="yes"/>
			<point x="361" y="316"/>
			<point x="392" y="312"/>
			<point x="386" y="287" type="curve" smooth="yes"/>
			<point x="383" y="270"/>
			<point x="378" y="257"/>
			<point x="365" y="238" type="curve"/>
			<point x="350" y="245"/>
			<point x="319" y="254"/>
			<point x="291" y="264" type="curve" smooth="yes"/>
			<point x="254" y="277"/>
			<point x="243" y="284"/>
			<point x="243" y="296" type="curve" smooth="yes"/>
			<point x="243" y="315"/>
			<point x="254" y="335"/>
			<point x="266" y="345" type="curve"/>
			<point x="280" y="342"/>
			<point x="301" y="335"/>
		</contour>
	</outline>
</glyph>
<glyph name="dieresis" format="2">
	<advance width="498"/>
	<unicode hex="00A8"/>
	<note>
		dieresis
	</note>
	<outline>
		<contour>
			<point x="498" y="730" type="line"/>
			<point x="324" y="730" type="line"/>
			<point x="292" y="576" type="line"/>
			<point x="466" y="576" type="line"/>
		</contour>
		<contour>
			<point x="274" y="730" type="line"/>
			<point x="100" y="730" type="line"/>
			<point x="68" y="576" type="line"/>
			<point x="242" y="576" type="line"/>
		</contour>
	</outline>
</glyph>
<glyph name="copyright" format="2">
  <advance width="654"/>
  <unicode hex="00A9"/>
  <note>
copyright
</note>
  <outline>
    <contour>
      <point x="408" y="748" type="curve" smooth="yes"/>
      <point x="203" y="748"/>
      <point x="69" y="579"/>
      <point x="69" y="406" type="curve" smooth="yes"/>
      <point x="69" y="255"/>
      <point x="172" y="152"/>
      <point x="326" y="152" type="curve" smooth="yes"/>
      <point x="531" y="152"/>
      <point x="666" y="321"/>
      <point x="666" y="495" type="curve" smooth="yes"/>
      <point x="666" y="643"/>
      <point x="564" y="748"/>
    </contour>
    <contour>
      <point x="405" y="685" type="curve" smooth="yes"/>
      <point x="527" y="685"/>
      <point x="597" y="606"/>
      <point x="597" y="496" type="curve" smooth="yes"/>
      <point x="597" y="359"/>
      <point x="492" y="215"/>
      <point x="329" y="215" type="curve" smooth="yes"/>
      <point x="207" y="215"/>
      <point x="137" y="295"/>
      <point x="137" y="405" type="curve" smooth="yes"/>
      <point x="137" y="541"/>
      <point x="242" y="685"/>
    </contour>
    <contour>
      <point x="431" y="301" type="curve"/>
      <point x="442" y="387" type="line"/>
      <point x="442" y="387"/>
      <point x="404" y="382"/>
      <point x="371" y="382" type="curve" smooth="yes"/>
      <point x="353" y="382"/>
      <point x="344" y="393"/>
      <point x="344" y="417" type="curve" smooth="yes"/>
      <point x="344" y="460"/>
      <point x="359" y="519"/>
      <point x="400" y="519" type="curve" smooth="yes"/>
      <point x="433" y="519"/>
      <point x="469" y="513"/>
      <point x="469" y="513" type="curve"/>
      <point x="496" y="603" type="line"/>
      <point x="496" y="603"/>
      <point x="465" y="619"/>
      <point x="415" y="619" type="curve" smooth="yes"/>
      <point x="260" y="619"/>
      <point x="231" y="480"/>
      <point x="231" y="395" type="curve" smooth="yes"/>
      <point x="231" y="322"/>
      <point x="267" y="282"/>
      <point x="338" y="282" type="curve" smooth="yes"/>
      <point x="397" y="282"/>
      <point x="431" y="301"/>
    </contour>
  </outline>
</glyph>
<glyph name="ordfeminine" format="2">
	<advance width="435"/>
	<unicode hex="00AA"/>
	<note>
		ordfeminine
	</note>
	<outline>
		<contour>
			<point x="437" y="499" type="curve" smooth="yes"/>
			<point x="461" y="611" type="line" smooth="yes"/>
			<point x="463" y="622"/>
			<point x="465" y="633"/>
			<point x="465" y="642" type="curve" smooth="yes"/>
			<point x="465" y="703"/>
			<point x="414" y="726"/>
			<point x="304" y="726" type="curve" smooth="yes"/>
			<point x="221" y="726"/>
			<point x="132" y="709"/>
			<point x="132" y="709" type="curve"/>
			<point x="112" y="602" type="line"/>
			<point x="112" y="602"/>
			<point x="206" y="614"/>
			<point x="275" y="614" type="curve" smooth="yes"/>
			<point x="300" y="614"/>
			<point x="302" y="610"/>
			<point x="301" y="598" type="curve" smooth="yes"/>
			<point x="300" y="589" type="line"/>
			<point x="202" y="586" type="line" smooth="yes"/>
			<point x="115" y="583"/>
			<point x="74" y="546"/>
			<point x="74" y="475" type="curve" smooth="yes"/>
			<point x="74" y="405"/>
			<point x="114" y="371"/>
			<point x="178" y="371" type="curve" smooth="yes"/>
			<point x="232" y="371"/>
			<point x="281" y="401"/>
			<point x="281" y="401" type="curve"/>
			<point x="299" y="382"/>
			<point x="331" y="373"/>
			<point x="368" y="373" type="curve" smooth="yes"/>
			<point x="387" y="373"/>
			<point x="408" y="375"/>
			<point x="429" y="378" type="curve"/>
			<point x="451" y="480" type="line"/>
			<point x="440" y="482"/>
			<point x="436" y="485"/>
			<point x="436" y="492" type="curve" smooth="yes"/>
			<point x="436" y="494"/>
			<point x="436" y="496"/>
		</contour>
		<contour>
			<point x="256" y="510" type="curve" smooth="yes"/>
			<point x="283" y="512" type="line"/>
			<point x="277" y="483" type="line"/>
			<point x="277" y="483"/>
			<point x="265" y="472"/>
			<point x="245" y="472" type="curve" smooth="yes"/>
			<point x="235" y="472"/>
			<point x="228" y="477"/>
			<point x="228" y="489" type="curve" smooth="yes"/>
			<point x="228" y="504"/>
			<point x="238" y="509"/>
		</contour>
		<contour>
			<point x="421" y="336" type="line"/>
			<point x="66" y="336" type="line"/>
			<point x="41" y="216" type="line"/>
			<point x="396" y="216" type="line"/>
		</contour>
	</outline>
</glyph>
<glyph name="guillemetleft" format="2">
	<advance width="711"/>
	<unicode hex="00AB"/>
	<note>
		guillemetleft
	</note>
	<outline>
		<contour>
			<point x="335" y="125" type="line"/>
			<point x="202" y="244" type="line"/>
			<point x="396" y="380" type="line"/>
			<point x="303" y="519" type="line"/>
			<point x="46" y="339" type="line"/>
			<point x="12" y="179" type="line"/>
			<point x="212" y="-1" type="line"/>
		</contour>
		<contour>
			<point x="665" y="129" type="line"/>
			<point x="534" y="245" type="line"/>
			<point x="725" y="379" type="line"/>
			<point x="633" y="515" type="line"/>
			<point x="381" y="338" type="line"/>
			<point x="348" y="181" type="line"/>
			<point x="544" y="5" type="line"/>
		</contour>
	</outline>
</glyph>
<glyph name="logicalnot" format="2">
	<advance width="560"/>
	<unicode hex="00AC"/>
	<note>
		logicalnot
	</note>
	<outline>
		<contour>
			<point x="303" y="126" type="line"/>
			<point x="483" y="126" type="line"/>
			<point x="547" y="428" type="line"/>
			<point x="78" y="428" type="line"/>
			<point x="43" y="264" type="line"/>
			<point x="332" y="264" type="line"/>
		</contour>
	</outline>
</glyph>
<glyph name="softhyphen" format="2">
	<advance width="0"/>
	<unicode hex="00AD"/>
	<note>
		softhyphen
	</note>
	<outline>
		<contour>
			<point x="173" y="374" type="line"/>
			<point x="-125" y="374" type="line"/>
			<point x="-163" y="194" type="line"/>
			<point x="135" y="194" type="line"/>
		</contour>
	</outline>
</glyph>
<glyph name="registered" format="2">
	<advance width="654"/>
	<unicode hex="00AE"/>
	<note>
		registered
	</note>
	<outline>
		<contour>
			<point x="408" y="748" type="curve" smooth="yes"/>
			<point x="203" y="748"/>
			<point x="69" y="579"/>
			<point x="69" y="406" type="curve" smooth="yes"/>
			<point x="69" y="255"/>
			<point x="172" y="152"/>
			<point x="326" y="152" type="curve" smooth="yes"/>
			<point x="531" y="152"/>
			<point x="666" y="321"/>
			<point x="666" y="495" type="curve" smooth="yes"/>
			<point x="666" y="643"/>
			<point x="564" y="748"/>
		</contour>
		<contour>
			<point x="405" y="685" type="curve" smooth="yes"/>
			<point x="527" y="685"/>
			<point x="597" y="606"/>
			<point x="597" y="496" type="curve" smooth="yes"/>
			<point x="597" y="359"/>
			<point x="492" y="215"/>
			<point x="329" y="215" type="curve" smooth="yes"/>
			<point x="207" y="215"/>
			<point x="137" y="295"/>
			<point x="137" y="405" type="curve" smooth="yes"/>
			<point x="137" y="541"/>
			<point x="242" y="685"/>
		</contour>
		<contour>
			<point x="334" y="385" type="line"/>
			<point x="363" y="385" type="line"/>
			<point x="376" y="291" type="line"/>
			<point x="476" y="291" type="line"/>
			<point x="457" y="403" type="line"/>
			<point x="506" y="423"/>
			<point x="524" y="472"/>
			<point x="524" y="516" type="curve" smooth="yes"/>
			<point x="524" y="582"/>
			<point x="482" y="609"/>
			<point x="424" y="609" type="curve" smooth="yes"/>
			<point x="281" y="609" type="line"/>
			<point x="213" y="291" type="line"/>
			<point x="314" y="291" type="line"/>
		</contour>
		<contour>
			<point x="377" y="455" type="curve" smooth="yes"/>
			<point x="348" y="455" type="line"/>
			<point x="365" y="536" type="line"/>
			<point x="393" y="536" type="line" smooth="yes"/>
			<point x="414" y="536"/>
			<point x="423" y="521"/>
			<point x="423" y="505" type="curve" smooth="yes"/>
			<point x="423" y="474"/>
			<point x="404" y="455"/>
		</contour>
	</outline>
</glyph>
<glyph name="macron" format="2">
	<advance width="427"/>
	<unicode hex="00AF"/>
	<note>
		macron
	</note>
	<outline>
		<contour>
			<point x="429" y="736" type="line"/>
			<point x="102" y="736" type="line"/>
			<point x="74" y="606" type="line"/>
			<point x="401" y="606" type="line"/>
		</contour>
	</outline>
</glyph>
<glyph name="degree" format="2">
	<advance width="394"/>
	<unicode hex="00B0"/>
	<note>
		degree
	</note>
	<outline>
		<contour>
			<point x="279" y="726" type="curve" smooth="yes"/>
			<point x="164" y="726"/>
			<point x="90" y="637"/>
			<point x="90" y="543" type="curve" smooth="yes"/>
			<point x="90" y="457"/>
			<point x="151" y="399"/>
			<point x="243" y="399" type="curve" smooth="yes"/>
			<point x="355" y="399"/>
			<point x="432" y="485"/>
			<point x="432" y="582" type="curve" smooth="yes"/>
			<point x="432" y="668"/>
			<point x="371" y="726"/>
		</contour>
		<contour>
			<point x="272" y="616" type="curve" smooth="yes"/>
			<point x="299" y="616"/>
			<point x="316" y="600"/>
			<point x="316" y="576" type="curve" smooth="yes"/>
			<point x="316" y="537"/>
			<point x="287" y="510"/>
			<point x="250" y="510" type="curve" smooth="yes"/>
			<point x="223" y="510"/>
			<point x="206" y="525"/>
			<point x="206" y="549" type="curve" smooth="yes"/>
			<point x="206" y="581"/>
			<point x="233" y="616"/>
		</contour>
	</outline>
</glyph>
<glyph name="plusminus" format="2">
  <advance width="560"/>
  <unicode hex="00B1"/>
  <note>
plusminus
</note>
  <outline>
    <contour>
      <point x="234" y="467" type="line"/>
      <point x="93" y="467" type="line"/>
      <point x="58" y="303" type="line"/>
      <point x="199" y="303" type="line"/>
      <point x="179" y="205" type="line"/>
      <point x="359" y="205" type="line"/>
      <point x="379" y="303" type="line"/>
      <point x="520" y="303" type="line"/>
      <point x="555" y="467" type="line"/>
      <point x="414" y="467" type="line"/>
      <point x="435" y="565" type="line"/>
      <point x="255" y="565" type="line"/>
    </contour>
    <contour>
      <point x="456" y="0" type="line"/>
      <point x="491" y="164" type="line"/>
      <point x="29" y="164" type="line"/>
      <point x="-6" y="0" type="line"/>
    </contour>
  </outline>
</glyph>
<glyph name="twosuperior" format="2">
  <advance width="302"/>
  <unicode hex="00B2"/>
  <note>
twosuperior
</note>
  <outline>
    <contour>
      <point x="71" y="507" type="line"/>
      <point x="50" y="407" type="line"/>
      <point x="315" y="407" type="line"/>
      <point x="338" y="516" type="line"/>
      <point x="230" y="516" type="line"/>
      <point x="280" y="543" type="line" smooth="yes"/>
      <point x="334" y="572"/>
      <point x="367" y="603"/>
      <point x="367" y="662" type="curve" smooth="yes"/>
      <point x="367" y="710"/>
      <point x="331" y="747"/>
      <point x="251" y="747" type="curve" smooth="yes"/>
      <point x="206" y="747"/>
      <point x="121" y="736"/>
      <point x="121" y="736" type="curve"/>
      <point x="102" y="623" type="line"/>
      <point x="102" y="623"/>
      <point x="146" y="629"/>
      <point x="176" y="629" type="curve" smooth="yes"/>
      <point x="197" y="629"/>
      <point x="202" y="625"/>
      <point x="202" y="614" type="curve" smooth="yes"/>
      <point x="202" y="595"/>
      <point x="188" y="582"/>
      <point x="152" y="559" type="curve" smooth="yes"/>
    </contour>
  </outline>
</glyph>
<glyph name="threesuperior" format="2">
  <advance width="316"/>
  <unicode hex="00B3"/>
  <note>
threesuperior
</note>
  <outline>
    <contour>
      <point x="121" y="739" type="curve"/>
      <point x="106" y="638" type="line"/>
      <point x="106" y="638"/>
      <point x="181" y="644"/>
      <point x="198" y="644" type="curve" smooth="yes"/>
      <point x="214" y="644"/>
      <point x="221" y="643"/>
      <point x="221" y="632" type="curve" smooth="yes"/>
      <point x="221" y="621"/>
      <point x="211" y="617"/>
      <point x="197" y="617" type="curve" smooth="yes"/>
      <point x="125" y="617" type="line"/>
      <point x="105" y="527" type="line"/>
      <point x="178" y="527" type="line" smooth="yes"/>
      <point x="192" y="527"/>
      <point x="198" y="525"/>
      <point x="198" y="515" type="curve" smooth="yes"/>
      <point x="198" y="500"/>
      <point x="183" y="500"/>
      <point x="166" y="500" type="curve" smooth="yes"/>
      <point x="151" y="500"/>
      <point x="75" y="506"/>
      <point x="75" y="506" type="curve"/>
      <point x="46" y="407" type="line"/>
      <point x="46" y="407"/>
      <point x="132" y="393"/>
      <point x="186" y="393" type="curve" smooth="yes"/>
      <point x="291" y="393"/>
      <point x="353" y="430"/>
      <point x="353" y="518" type="curve" smooth="yes"/>
      <point x="353" y="543"/>
      <point x="339" y="565"/>
      <point x="312" y="576" type="curve"/>
      <point x="353" y="592"/>
      <point x="371" y="621"/>
      <point x="371" y="664" type="curve" smooth="yes"/>
      <point x="371" y="719"/>
      <point x="325" y="747"/>
      <point x="253" y="747" type="curve" smooth="yes"/>
      <point x="209" y="747"/>
      <point x="121" y="739"/>
    </contour>
  </outline>
</glyph>
<glyph name="acute" format="2">
  <advance width="446"/>
  <unicode hex="00B4"/>
  <note>
acute
</note>
  <outline>
    <contour>
      <point x="455" y="640" type="line"/>
      <point x="401" y="800" type="line"/>
      <point x="89" y="680" type="line"/>
      <point x="123" y="561" type="line"/>
    </contour>
  </outline>
</glyph>
<glyph name="micro" format="2">
	<advance width="591"/>
	<unicode hex="00B5"/>
	<note>
		micro
	</note>
	<outline>
		<contour>
			<point x="498" y="0" type="line"/>
			<point x="609" y="520" type="line"/>
			<point x="390" y="520" type="line"/>
			<point x="326" y="214" type="line"/>
			<point x="326" y="214"/>
			<point x="307" y="178"/>
			<point x="275" y="178" type="curve" smooth="yes"/>
			<point x="251" y="178"/>
			<point x="246" y="207"/>
			<point x="255" y="248" type="curve" smooth="yes"/>
			<point x="312" y="520" type="line"/>
			<point x="94" y="520" type="line"/>
			<point x="-60" y="-200" type="line"/>
			<point x="140" y="-200" type="line"/>
			<point x="190" y="26" type="line"/>
			<point x="196" y="19"/>
			<point x="214" y="13"/>
			<point x="229" y="13" type="curve" smooth="yes"/>
			<point x="273" y="13"/>
			<point x="306" y="56"/>
			<point x="306" y="56" type="curve"/>
			<point x="300" y="0" type="line"/>
		</contour>
	</outline>
</glyph>
<glyph name="paragraph" format="2">
  <advance width="669"/>
  <unicode hex="00B6"/>
  <note>
paragraph
</note>
  <outline>
    <contour>
      <point x="442" y="560" type="line"/>
      <point x="490" y="560" type="line"/>
      <point x="371" y="0" type="line"/>
      <point x="531" y="0" type="line"/>
      <point x="650" y="560" type="line"/>
      <point x="706" y="560" type="line"/>
      <point x="738" y="710" type="line"/>
      <point x="309" y="710" type="line" smooth="yes"/>
      <point x="142" y="710"/>
      <point x="64" y="599"/>
      <point x="64" y="486" type="curve" smooth="yes"/>
      <point x="64" y="384"/>
      <point x="127" y="316"/>
      <point x="224" y="316" type="curve" smooth="yes"/>
      <point x="231" y="316" type="line"/>
      <point x="163" y="0" type="line"/>
      <point x="323" y="0" type="line"/>
    </contour>
  </outline>
</glyph>
<glyph name="periodcentered" format="2">
	<advance width="271"/>
	<unicode hex="00B7"/>
	<note>
		periodcentered
	</note>
	<outline>
		<contour>
			<point x="259" y="359" type="line"/>
			<point x="54" y="359" type="line"/>
			<point x="12" y="159" type="line"/>
			<point x="217" y="159" type="line"/>
		</contour>
	</outline>
</glyph>
<glyph name="cedilla" format="2">
  <advance width="354"/>
  <unicode hex="00B8"/>
  <note>
cedilla
</note>
  <outline>
    <contour>
      <point x="174" y="-120" type="curve" smooth="yes"/>
      <point x="174" y="-71"/>
      <point x="138" y="-42"/>
      <point x="67" y="-41" type="curve"/>
      <point x="85" y="3" type="line"/>
      <point x="9" y="3" type="line"/>
      <point x="-35" y="-109" type="line"/>
      <point x="-26" y="-109" type="line" smooth="yes"/>
      <point x="-1" y="-109"/>
      <point x="9" y="-114"/>
      <point x="9" y="-126" type="curve" smooth="yes"/>
      <point x="9" y="-145"/>
      <point x="-1" y="-151"/>
      <point x="-35" y="-151" type="curve" smooth="yes"/>
      <point x="-52" y="-151"/>
      <point x="-83" y="-150"/>
      <point x="-83" y="-150" type="curve"/>
      <point x="-104" y="-231" type="line"/>
      <point x="-104" y="-231"/>
      <point x="-46" y="-240"/>
      <point x="11" y="-240" type="curve" smooth="yes"/>
      <point x="117" y="-240"/>
      <point x="174" y="-211"/>
    </contour>
  </outline>
</glyph>
<glyph name="onesuperior" format="2">
  <advance width="271"/>
  <unicode hex="00B9"/>
  <note>
onesuperior
</note>
  <outline>
    <contour>
      <point x="350" y="738" type="line"/>
      <point x="226" y="738" type="line"/>
      <point x="85" y="665" type="line"/>
      <point x="104" y="552" type="line"/>
      <point x="169" y="582" type="line"/>
      <point x="131" y="407" type="line"/>
      <point x="279" y="407" type="line"/>
    </contour>
  </outline>
</glyph>
<glyph name="ordmasculine" format="2">
	<advance width="452"/>
	<unicode hex="00BA"/>
	<note>
		ordmasculine
	</note>
	<outline>
		<contour>
			<point x="316" y="726" type="curve" smooth="yes"/>
			<point x="112" y="726"/>
			<point x="84" y="581"/>
			<point x="84" y="511" type="curve" smooth="yes"/>
			<point x="84" y="419"/>
			<point x="147" y="371"/>
			<point x="260" y="371" type="curve" smooth="yes"/>
			<point x="466" y="371"/>
			<point x="491" y="516"/>
			<point x="491" y="584" type="curve" smooth="yes"/>
			<point x="491" y="677"/>
			<point x="429" y="726"/>
		</contour>
		<contour>
			<point x="276" y="492" type="curve" smooth="yes"/>
			<point x="258" y="492"/>
			<point x="248" y="499"/>
			<point x="248" y="521" type="curve" smooth="yes"/>
			<point x="248" y="546"/>
			<point x="255" y="606"/>
			<point x="300" y="606" type="curve" smooth="yes"/>
			<point x="319" y="606"/>
			<point x="329" y="599"/>
			<point x="329" y="579" type="curve" smooth="yes"/>
			<point x="329" y="552"/>
			<point x="314" y="492"/>
		</contour>
		<contour>
			<point x="428" y="336" type="line"/>
			<point x="57" y="336" type="line"/>
			<point x="31" y="216" type="line"/>
			<point x="402" y="216" type="line"/>
		</contour>
	</outline>
</glyph>
<glyph name="guillemetright" format="2">
  <advance width="709"/>
  <unicode hex="00BB"/>
  <note>
guillemetright
</note>
  <outline>
    <contour>
      <point x="375" y="393" type="line"/>
      <point x="508" y="274" type="line"/>
      <point x="314" y="138" type="line"/>
      <point x="407" y="-1" type="line"/>
      <point x="664" y="179" type="line"/>
      <point x="698" y="339" type="line"/>
      <point x="498" y="519" type="line"/>
    </contour>
    <contour>
      <point x="45" y="389" type="line"/>
      <point x="176" y="273" type="line"/>
      <point x="-15" y="139" type="line"/>
      <point x="77" y="3" type="line"/>
      <point x="329" y="180" type="line"/>
      <point x="362" y="337" type="line"/>
      <point x="166" y="513" type="line"/>
    </contour>
  </outline>
</glyph>
<glyph name="onequarter" format="2">
  <advance width="670"/>
  <unicode hex="00BC"/>
  <note>
onequarter
</note>
  <outline>
    <contour>
      <point x="656" y="732" type="line"/>
      <point x="626" y="756" type="line"/>
      <point x="8" y="-39" type="line"/>
      <point x="39" y="-62" type="line"/>
    </contour>
    <contour>
      <point x="354" y="716" type="line"/>
      <point x="230" y="716" type="line"/>
      <point x="89" y="643" type="line"/>
      <point x="108" y="530" type="line"/>
      <point x="173" y="560" type="line"/>
      <point x="135" y="385" type="line"/>
      <point x="283" y="385" type="line"/>
    </contour>
    <contour>
      <point x="301" y="41" type="line"/>
      <point x="457" y="41" type="line"/>
      <point x="449" y="0" type="line"/>
      <point x="586" y="0" type="line"/>
      <point x="594" y="41" type="line"/>
      <point x="607" y="41" type="line"/>
      <point x="630" y="146" type="line"/>
      <point x="617" y="146" type="line"/>
      <point x="631" y="215" type="line"/>
      <point x="504" y="198" type="line"/>
      <point x="493" y="146" type="line"/>
      <point x="456" y="146" type="line"/>
      <point x="563" y="331" type="line"/>
      <point x="421" y="331" type="line"/>
      <point x="320" y="130" type="line"/>
    </contour>
  </outline>
</glyph>
<glyph name="onehalf" format="2">
  <advance width="643"/>
  <unicode hex="00BD"/>
  <note>
onehalf
</note>
  <outline>
    <contour>
      <point x="656" y="732" type="line"/>
      <point x="626" y="756" type="line"/>
      <point x="8" y="-39" type="line"/>
      <point x="39" y="-62" type="line"/>
    </contour>
    <contour>
      <point x="354" y="716" type="line"/>
      <point x="230" y="716" type="line"/>
      <point x="89" y="643" type="line"/>
      <point x="108" y="530" type="line"/>
      <point x="173" y="560" type="line"/>
      <point x="135" y="385" type="line"/>
      <point x="283" y="385" type="line"/>
    </contour>
    <contour>
      <point x="322" y="100" type="line"/>
      <point x="301" y="0" type="line"/>
      <point x="566" y="0" type="line"/>
      <point x="589" y="109" type="line"/>
      <point x="481" y="109" type="line"/>
      <point x="531" y="136" type="line" smooth="yes"/>
      <point x="585" y="165"/>
      <point x="618" y="196"/>
      <point x="618" y="255" type="curve" smooth="yes"/>
      <point x="618" y="303"/>
      <point x="582" y="340"/>
      <point x="502" y="340" type="curve" smooth="yes"/>
      <point x="457" y="340"/>
      <point x="372" y="329"/>
      <point x="372" y="329" type="curve"/>
      <point x="353" y="216" type="line"/>
      <point x="353" y="216"/>
      <point x="397" y="222"/>
      <point x="427" y="222" type="curve" smooth="yes"/>
      <point x="448" y="222"/>
      <point x="453" y="218"/>
      <point x="453" y="207" type="curve" smooth="yes"/>
      <point x="453" y="188"/>
      <point x="439" y="175"/>
      <point x="403" y="152" type="curve" smooth="yes"/>
    </contour>
  </outline>
</glyph>
<glyph name="threequarters" format="2">
	<advance width="685"/>
	<unicode hex="00BE"/>
	<note>
		threequarters
	</note>
	<outline>
		<contour>
			<point x="677" y="732" type="line"/>
			<point x="647" y="756" type="line"/>
			<point x="29" y="-39" type="line"/>
			<point x="60" y="-62" type="line"/>
		</contour>
		<contour>
			<point x="117" y="717" type="curve"/>
			<point x="102" y="616" type="line"/>
			<point x="102" y="616"/>
			<point x="177" y="622"/>
			<point x="194" y="622" type="curve" smooth="yes"/>
			<point x="210" y="622"/>
			<point x="217" y="621"/>
			<point x="217" y="610" type="curve" smooth="yes"/>
			<point x="217" y="599"/>
			<point x="207" y="595"/>
			<point x="193" y="595" type="curve" smooth="yes"/>
			<point x="121" y="595" type="line"/>
			<point x="101" y="505" type="line"/>
			<point x="174" y="505" type="line" smooth="yes"/>
			<point x="188" y="505"/>
			<point x="194" y="503"/>
			<point x="194" y="493" type="curve" smooth="yes"/>
			<point x="194" y="478"/>
			<point x="179" y="478"/>
			<point x="162" y="478" type="curve" smooth="yes"/>
			<point x="147" y="478"/>
			<point x="71" y="484"/>
			<point x="71" y="484" type="curve"/>
			<point x="42" y="385" type="line"/>
			<point x="42" y="385"/>
			<point x="128" y="371"/>
			<point x="182" y="371" type="curve" smooth="yes"/>
			<point x="287" y="371"/>
			<point x="349" y="408"/>
			<point x="349" y="496" type="curve" smooth="yes"/>
			<point x="349" y="521"/>
			<point x="335" y="543"/>
			<point x="308" y="554" type="curve"/>
			<point x="349" y="570"/>
			<point x="367" y="599"/>
			<point x="367" y="642" type="curve" smooth="yes"/>
			<point x="367" y="697"/>
			<point x="321" y="725"/>
			<point x="249" y="725" type="curve" smooth="yes"/>
			<point x="205" y="725"/>
			<point x="117" y="717"/>
		</contour>
		<contour>
			<point x="322" y="41" type="line"/>
			<point x="478" y="41" type="line"/>
			<point x="470" y="0" type="line"/>
			<point x="607" y="0" type="line"/>
			<point x="615" y="41" type="line"/>
			<point x="628" y="41" type="line"/>
			<point x="651" y="146" type="line"/>
			<point x="638" y="146" type="line"/>
			<point x="652" y="215" type="line"/>
			<point x="525" y="198" type="line"/>
			<point x="514" y="146" type="line"/>
			<point x="477" y="146" type="line"/>
			<point x="584" y="331" type="line"/>
			<point x="442" y="331" type="line"/>
			<point x="341" y="130" type="line"/>
		</contour>
	</outline>
</glyph>
<glyph name="questiondown" format="2">
	<advance width="470"/>
	<unicode hex="00BF"/>
	<note>
		questiondown
	</note>
	<outline>
		<contour>
			<point x="172" y="330" type="line"/>
			<point x="400" y="330" type="line"/>
			<point x="441" y="520" type="line"/>
			<point x="213" y="520" type="line"/>
		</contour>
		<contour>
			<point x="-48" y="-41" type="curve" smooth="yes"/>
			<point x="-48" y="-135"/>
			<point x="11" y="-206"/>
			<point x="143" y="-206" type="curve" smooth="yes"/>
			<point x="265" y="-206"/>
			<point x="365" y="-174"/>
			<point x="365" y="-174" type="curve"/>
			<point x="392" y="-12" type="line"/>
			<point x="392" y="-12"/>
			<point x="313" y="-26"/>
			<point x="253" y="-26" type="curve" smooth="yes"/>
			<point x="208" y="-26"/>
			<point x="191" y="-18"/>
			<point x="191" y="12" type="curve" smooth="yes"/>
			<point x="191" y="52"/>
			<point x="218" y="66"/>
			<point x="261" y="91" type="curve" smooth="yes"/>
			<point x="317" y="124"/>
			<point x="373" y="161"/>
			<point x="373" y="229" type="curve" smooth="yes"/>
			<point x="373" y="255"/>
			<point x="363" y="266"/>
			<point x="363" y="266" type="curve"/>
			<point x="188" y="266" type="line"/>
			<point x="185" y="249" type="line" smooth="yes"/>
			<point x="182" y="230"/>
			<point x="159" y="209"/>
			<point x="88" y="167" type="curve" smooth="yes"/>
			<point x="4" y="117"/>
			<point x="-48" y="47"/>
		</contour>
	</outline>
</glyph>
<glyph name="Aacute" format="2">
  <advance width="647"/>
  <unicode hex="00C1"/>
  <note>
Aacute
</note>
  <outline>
    <contour>
      <point x="615" y="830" type="line"/>
      <point x="546" y="995" type="line"/>
      <point x="276" y="870" type="line"/>
      <point x="325" y="751" type="line"/>
    </contour>
    <contour>
      <point x="246" y="710" type="line"/>
      <point x="-48" y="0" type="line"/>
      <point x="176" y="0" type="line"/>
      <point x="217" y="111" type="line"/>
      <point x="367" y="111" type="line"/>
      <point x="362" y="0" type="line"/>
      <point x="589" y="0" type="line"/>
      <point x="590" y="710" type="line"/>
    </contour>
    <contour>
      <point x="367" y="528" type="line"/>
      <point x="392" y="528" type="line"/>
      <point x="377" y="288" type="line"/>
      <point x="281" y="288" type="line"/>
    </contour>
  </outline>
</glyph>
<glyph name="Acircumflex" format="2">
	<advance width="647"/>
	<unicode hex="00C2"/>
	<note>
		Acircumflex
	</note>
	<outline>
		<contour>
			<point x="402" y="757" type="line"/>
			<point x="451" y="840" type="line"/>
			<point x="464" y="757" type="line"/>
			<point x="616" y="757" type="line"/>
			<point x="573" y="937" type="line"/>
			<point x="349" y="937" type="line"/>
			<point x="230" y="757" type="line"/>
		</contour>
		<contour>
			<point x="246" y="710" type="line"/>
			<point x="-48" y="0" type="line"/>
			<point x="176" y="0" type="line"/>
			<point x="217" y="111" type="line"/>
			<point x="367" y="111" type="line"/>
			<point x="362" y="0" type="line"/>
			<point x="589" y="0" type="line"/>
			<point x="590" y="710" type="line"/>
		</contour>
		<contour>
			<point x="367" y="528" type="line"/>
			<point x="392" y="528" type="line"/>
			<point x="377" y="288" type="line"/>
			<point x="281" y="288" type="line"/>
		</contour>
	</outline>
</glyph>
<glyph name="Atilde" format="2">
  <advance width="647"/>
  <unicode hex="00C3"/>
  <note>
Atilde
</note>
  <outline>
    <contour>
      <point x="654" y="839" type="curve"/>
      <point x="614" y="945" type="line"/>
      <point x="614" y="945"/>
      <point x="533" y="898"/>
      <point x="507" y="898" type="curve" smooth="yes"/>
      <point x="479" y="898"/>
      <point x="451" y="941"/>
      <point x="390" y="941" type="curve" smooth="yes"/>
      <point x="337" y="941"/>
      <point x="232" y="867"/>
      <point x="232" y="867" type="curve"/>
      <point x="275" y="764" type="line"/>
      <point x="275" y="764"/>
      <point x="334" y="801"/>
      <point x="362" y="801" type="curve" smooth="yes"/>
      <point x="395" y="801"/>
      <point x="430" y="757"/>
      <point x="482" y="757" type="curve" smooth="yes"/>
      <point x="536" y="757"/>
      <point x="654" y="839"/>
    </contour>
    <contour>
      <point x="246" y="710" type="line"/>
      <point x="-48" y="0" type="line"/>
      <point x="176" y="0" type="line"/>
      <point x="217" y="111" type="line"/>
      <point x="367" y="111" type="line"/>
      <point x="362" y="0" type="line"/>
      <point x="589" y="0" type="line"/>
      <point x="590" y="710" type="line"/>
    </contour>
    <contour>
      <point x="367" y="528" type="line"/>
      <point x="392" y="528" type="line"/>
      <point x="377" y="288" type="line"/>
      <point x="281" y="288" type="line"/>
    </contour>
  </outline>
</glyph>
<glyph name="Adieresis" format="2">
	<advance width="647"/>
	<unicode hex="00C4"/>
	<note>
		Adieresis
	</note>
	<outline>
		<contour>
			<point x="664" y="911" type="line"/>
			<point x="480" y="911" type="line"/>
			<point x="448" y="757" type="line"/>
			<point x="632" y="757" type="line"/>
		</contour>
		<contour>
			<point x="430" y="911" type="line"/>
			<point x="246" y="911" type="line"/>
			<point x="214" y="757" type="line"/>
			<point x="398" y="757" type="line"/>
		</contour>
		<contour>
			<point x="246" y="710" type="line"/>
			<point x="-48" y="0" type="line"/>
			<point x="176" y="0" type="line"/>
			<point x="217" y="111" type="line"/>
			<point x="367" y="111" type="line"/>
			<point x="362" y="0" type="line"/>
			<point x="589" y="0" type="line"/>
			<point x="590" y="710" type="line"/>
		</contour>
		<contour>
			<point x="367" y="528" type="line"/>
			<point x="392" y="528" type="line"/>
			<point x="377" y="288" type="line"/>
			<point x="281" y="288" type="line"/>
		</contour>
	</outline>
</glyph>
<glyph name="Aring" format="2">
  <advance width="647"/>
  <unicode hex="00C5"/>
  <note>
Aring
</note>
  <outline>
    <contour>
      <point x="454" y="930" type="curve" smooth="yes"/>
      <point x="352" y="930"/>
      <point x="282" y="898"/>
      <point x="282" y="813" type="curve" smooth="yes"/>
      <point x="282" y="760"/>
      <point x="337" y="732"/>
      <point x="424" y="732" type="curve" smooth="yes"/>
      <point x="526" y="732"/>
      <point x="596" y="764"/>
      <point x="596" y="849" type="curve" smooth="yes"/>
      <point x="596" y="902"/>
      <point x="541" y="930"/>
    </contour>
    <contour>
      <point x="442" y="847" type="curve" smooth="yes"/>
      <point x="459" y="847"/>
      <point x="469" y="844"/>
      <point x="469" y="835" type="curve" smooth="yes"/>
      <point x="469" y="819"/>
      <point x="456" y="814"/>
      <point x="435" y="814" type="curve" smooth="yes"/>
      <point x="418" y="814"/>
      <point x="408" y="817"/>
      <point x="408" y="827" type="curve" smooth="yes"/>
      <point x="408" y="844"/>
      <point x="425" y="847"/>
    </contour>
    <contour>
      <point x="246" y="710" type="line"/>
      <point x="-48" y="0" type="line"/>
      <point x="176" y="0" type="line"/>
      <point x="217" y="111" type="line"/>
      <point x="367" y="111" type="line"/>
      <point x="362" y="0" type="line"/>
      <point x="589" y="0" type="line"/>
      <point x="590" y="710" type="line"/>
    </contour>
    <contour>
      <point x="367" y="528" type="line"/>
      <point x="392" y="528" type="line"/>
      <point x="377" y="288" type="line"/>
      <point x="281" y="288" type="line"/>
    </contour>
  </outline>
</glyph>
<glyph name="Ccedilla" format="2">
  <advance width="546"/>
  <unicode hex="00C7"/>
  <note>
Ccedilla
</note>
  <outline>
    <contour>
      <point x="369" y="-120" type="curve" smooth="yes"/>
      <point x="369" y="-71"/>
      <point x="333" y="-42"/>
      <point x="262" y="-41" type="curve"/>
      <point x="273" y="-14" type="line"/>
      <point x="383" y="-14"/>
      <point x="471" y="10"/>
      <point x="471" y="10" type="curve"/>
      <point x="505" y="188" type="line"/>
      <point x="505" y="188"/>
      <point x="425" y="179"/>
      <point x="370" y="179" type="curve" smooth="yes"/>
      <point x="297" y="179"/>
      <point x="268" y="191"/>
      <point x="268" y="248" type="curve" smooth="yes"/>
      <point x="268" y="364"/>
      <point x="300" y="530"/>
      <point x="439" y="530" type="curve" smooth="yes"/>
      <point x="486" y="530"/>
      <point x="570" y="521"/>
      <point x="570" y="521" type="curve"/>
      <point x="614" y="699" type="line"/>
      <point x="614" y="699"/>
      <point x="534" y="726"/>
      <point x="421" y="726" type="curve" smooth="yes"/>
      <point x="108" y="726"/>
      <point x="31" y="399"/>
      <point x="31" y="215" type="curve" smooth="yes"/>
      <point x="31" y="76"/>
      <point x="82" y="8"/>
      <point x="199" y="-10" type="curve"/>
      <point x="160" y="-109" type="line"/>
      <point x="169" y="-109" type="line" smooth="yes"/>
      <point x="194" y="-109"/>
      <point x="204" y="-114"/>
      <point x="204" y="-126" type="curve" smooth="yes"/>
      <point x="204" y="-145"/>
      <point x="194" y="-151"/>
      <point x="160" y="-151" type="curve" smooth="yes"/>
      <point x="143" y="-151"/>
      <point x="112" y="-150"/>
      <point x="112" y="-150" type="curve"/>
      <point x="91" y="-231" type="line"/>
      <point x="91" y="-231"/>
      <point x="149" y="-240"/>
      <point x="206" y="-240" type="curve" smooth="yes"/>
      <point x="312" y="-240"/>
      <point x="369" y="-211"/>
    </contour>
  </outline>
</glyph>
<glyph name="Egrave" format="2">
  <advance width="566"/>
  <unicode hex="00C8"/>
  <note>
Egrave
</note>
  <outline>
    <contour>
      <point x="579" y="870" type="line"/>
      <point x="292" y="990" type="line"/>
      <point x="233" y="830" type="line"/>
      <point x="539" y="751" type="line"/>
    </contour>
    <contour>
      <point x="628" y="710" type="line"/>
      <point x="136" y="710" type="line"/>
      <point x="-14" y="0" type="line"/>
      <point x="486" y="0" type="line"/>
      <point x="526" y="185" type="line"/>
      <point x="254" y="185" type="line"/>
      <point x="273" y="276" type="line"/>
      <point x="473" y="276" type="line"/>
      <point x="513" y="446" type="line"/>
      <point x="309" y="446" type="line"/>
      <point x="326" y="525" type="line"/>
      <point x="588" y="525" type="line"/>
    </contour>
  </outline>
</glyph>
<glyph name="Eacute" format="2">
  <advance width="566"/>
  <unicode hex="00C9"/>
  <note>
Eacute
</note>
  <outline>
    <contour>
      <point x="578" y="830" type="line"/>
      <point x="509" y="995" type="line"/>
      <point x="239" y="870" type="line"/>
      <point x="288" y="751" type="line"/>
    </contour>
    <contour>
      <point x="628" y="710" type="line"/>
      <point x="136" y="710" type="line"/>
      <point x="-14" y="0" type="line"/>
      <point x="486" y="0" type="line"/>
      <point x="526" y="185" type="line"/>
      <point x="254" y="185" type="line"/>
      <point x="273" y="276" type="line"/>
      <point x="473" y="276" type="line"/>
      <point x="513" y="446" type="line"/>
      <point x="309" y="446" type="line"/>
      <point x="326" y="525" type="line"/>
      <point x="588" y="525" type="line"/>
    </contour>
  </outline>
</glyph>
<glyph name="Ecircumflex" format="2">
	<advance width="566"/>
	<unicode hex="00CA"/>
	<note>
		Ecircumflex
	</note>
	<outline>
		<contour>
			<point x="365" y="757" type="line"/>
			<point x="414" y="840" type="line"/>
			<point x="427" y="757" type="line"/>
			<point x="579" y="757" type="line"/>
			<point x="536" y="937" type="line"/>
			<point x="312" y="937" type="line"/>
			<point x="193" y="757" type="line"/>
		</contour>
		<contour>
			<point x="628" y="710" type="line"/>
			<point x="136" y="710" type="line"/>
			<point x="-14" y="0" type="line"/>
			<point x="486" y="0" type="line"/>
			<point x="526" y="185" type="line"/>
			<point x="254" y="185" type="line"/>
			<point x="273" y="276" type="line"/>
			<point x="473" y="276" type="line"/>
			<point x="513" y="446" type="line"/>
			<point x="309" y="446" type="line"/>
			<point x="326" y="525" type="line"/>
			<point x="588" y="525" type="line"/>
		</contour>
	</outline>
</glyph>
<glyph name="Edieresis" format="2">
  <advance width="566"/>
  <unicode hex="00CB"/>
  <note>
Edieresis
</note>
  <outline>
    <contour>
      <point x="627" y="911" type="line"/>
      <point x="443" y="911" type="line"/>
      <point x="411" y="757" type="line"/>
      <point x="595" y="757" type="line"/>
    </contour>
    <contour>
      <point x="393" y="911" type="line"/>
      <point x="209" y="911" type="line"/>
      <point x="177" y="757" type="line"/>
      <point x="361" y="757" type="line"/>
    </contour>
    <contour>
      <point x="628" y="710" type="line"/>
      <point x="136" y="710" type="line"/>
      <point x="-14" y="0" type="line"/>
      <point x="486" y="0" type="line"/>
      <point x="526" y="185" type="line"/>
      <point x="254" y="185" type="line"/>
      <point x="273" y="276" type="line"/>
      <point x="473" y="276" type="line"/>
      <point x="513" y="446" type="line"/>
      <point x="309" y="446" type="line"/>
      <point x="326" y="525" type="line"/>
      <point x="588" y="525" type="line"/>
    </contour>
  </outline>
</glyph>
<glyph name="Igrave" format="2">
	<advance width="309"/>
	<unicode hex="00CC"/>
	<note>
		Igrave
	</note>
	<outline>
		<contour>
			<point x="453" y="870" type="line"/>
			<point x="166" y="990" type="line"/>
			<point x="107" y="830" type="line"/>
			<point x="413" y="751" type="line"/>
		</contour>
		<contour>
			<point x="365" y="710" type="line"/>
			<point x="136" y="710" type="line"/>
			<point x="-15" y="0" type="line"/>
			<point x="214" y="0" type="line"/>
		</contour>
	</outline>
</glyph>
<glyph name="Iacute" format="2">
	<advance width="309"/>
	<unicode hex="00CD"/>
	<note>
		Iacute
	</note>
	<outline>
		<contour>
			<point x="452" y="830" type="line"/>
			<point x="383" y="995" type="line"/>
			<point x="113" y="870" type="line"/>
			<point x="162" y="751" type="line"/>
		</contour>
		<contour>
			<point x="365" y="710" type="line"/>
			<point x="136" y="710" type="line"/>
			<point x="-15" y="0" type="line"/>
			<point x="214" y="0" type="line"/>
		</contour>
	</outline>
</glyph>
<glyph name="Icircumflex" format="2">
  <advance width="309"/>
  <unicode hex="00CE"/>
  <note>
Icircumflex
</note>
  <outline>
    <contour>
      <point x="239" y="757" type="line"/>
      <point x="288" y="840" type="line"/>
      <point x="301" y="757" type="line"/>
      <point x="453" y="757" type="line"/>
      <point x="410" y="937" type="line"/>
      <point x="186" y="937" type="line"/>
      <point x="67" y="757" type="line"/>
    </contour>
    <contour>
      <point x="365" y="710" type="line"/>
      <point x="136" y="710" type="line"/>
      <point x="-15" y="0" type="line"/>
      <point x="214" y="0" type="line"/>
    </contour>
  </outline>
</glyph>
<glyph name="Idieresis" format="2">
  <advance width="309"/>
  <unicode hex="00CF"/>
  <note>
Idieresis
</note>
  <outline>
    <contour>
      <point x="501" y="911" type="line"/>
      <point x="317" y="911" type="line"/>
      <point x="285" y="757" type="line"/>
      <point x="469" y="757" type="line"/>
    </contour>
    <contour>
      <point x="267" y="911" type="line"/>
      <point x="83" y="911" type="line"/>
      <point x="51" y="757" type="line"/>
      <point x="235" y="757" type="line"/>
    </contour>
    <contour>
      <point x="365" y="710" type="line"/>
      <point x="136" y="710" type="line"/>
      <point x="-15" y="0" type="line"/>
      <point x="214" y="0" type="line"/>
    </contour>
  </outline>
</glyph>
<glyph name="Eth" format="2">
  <advance width="698"/>
  <unicode hex="00D0"/>
  <note>
Eth
</note>
  <outline>
    <contour>
      <point x="73" y="274" type="line"/>
      <point x="14" y="0" type="line"/>
      <point x="351" y="0" type="line" smooth="yes"/>
      <point x="596" y="0"/>
      <point x="702" y="239"/>
      <point x="702" y="459" type="curve" smooth="yes"/>
      <point x="702" y="639"/>
      <point x="600" y="710"/>
      <point x="424" y="710" type="curve" smooth="yes"/>
      <point x="166" y="710" type="line"/>
      <point x="106" y="428" type="line"/>
      <point x="59" y="428" type="line"/>
      <point x="27" y="274" type="line"/>
    </contour>
    <contour>
      <point x="334" y="189" type="curve" smooth="yes"/>
      <point x="283" y="189" type="line"/>
      <point x="301" y="274" type="line"/>
      <point x="384" y="274" type="line"/>
      <point x="416" y="428" type="line"/>
      <point x="335" y="428" type="line"/>
      <point x="355" y="521" type="line"/>
      <point x="397" y="521" type="line" smooth="yes"/>
      <point x="447" y="521"/>
      <point x="466" y="501"/>
      <point x="466" y="426" type="curve" smooth="yes"/>
      <point x="466" y="300"/>
      <point x="420" y="189"/>
    </contour>
  </outline>
</glyph>
<glyph name="Ntilde" format="2">
  <advance width="717"/>
  <unicode hex="00D1"/>
  <note>
Ntilde
</note>
  <outline>
    <contour>
      <point x="688" y="839" type="curve"/>
      <point x="648" y="945" type="line"/>
      <point x="648" y="945"/>
      <point x="567" y="898"/>
      <point x="541" y="898" type="curve" smooth="yes"/>
      <point x="513" y="898"/>
      <point x="485" y="941"/>
      <point x="424" y="941" type="curve" smooth="yes"/>
      <point x="371" y="941"/>
      <point x="266" y="867"/>
      <point x="266" y="867" type="curve"/>
      <point x="309" y="764" type="line"/>
      <point x="309" y="764"/>
      <point x="368" y="801"/>
      <point x="396" y="801" type="curve" smooth="yes"/>
      <point x="429" y="801"/>
      <point x="464" y="757"/>
      <point x="516" y="757" type="curve" smooth="yes"/>
      <point x="570" y="757"/>
      <point x="688" y="839"/>
    </contour>
    <contour>
      <point x="353" y="710" type="line"/>
      <point x="137" y="710" type="line"/>
      <point x="-15" y="0" type="line"/>
      <point x="212" y="0" type="line"/>
      <point x="280" y="313" type="line"/>
      <point x="304" y="313" type="line"/>
      <point x="405" y="0" type="line"/>
      <point x="621" y="0" type="line"/>
      <point x="773" y="710" type="line"/>
      <point x="546" y="710" type="line"/>
      <point x="482" y="406" type="line"/>
      <point x="458" y="406" type="line"/>
    </contour>
  </outline>
</glyph>
<glyph name="Ocircumflex" format="2">
	<advance width="731"/>
	<unicode hex="00D4"/>
	<note>
		Ocircumflex
	</note>
	<outline>
		<contour>
			<point x="447" y="757" type="line"/>
			<point x="496" y="840" type="line"/>
			<point x="509" y="757" type="line"/>
			<point x="661" y="757" type="line"/>
			<point x="618" y="937" type="line"/>
			<point x="394" y="937" type="line"/>
			<point x="275" y="757" type="line"/>
		</contour>
		<contour>
			<point x="338" y="-14" type="curve" smooth="yes"/>
			<point x="628" y="-14"/>
			<point x="737" y="255"/>
			<point x="737" y="455" type="curve" smooth="yes"/>
			<point x="737" y="660"/>
			<point x="609" y="726"/>
			<point x="439" y="726" type="curve" smooth="yes"/>
			<point x="149" y="726"/>
			<point x="34" y="453"/>
			<point x="34" y="253" type="curve" smooth="yes"/>
			<point x="34" y="48"/>
			<point x="168" y="-14"/>
		</contour>
		<contour>
			<point x="350" y="175" type="curve" smooth="yes"/>
			<point x="305" y="175"/>
			<point x="275" y="197"/>
			<point x="275" y="253" type="curve" smooth="yes"/>
			<point x="275" y="368"/>
			<point x="322" y="538"/>
			<point x="422" y="538" type="curve" smooth="yes"/>
			<point x="467" y="538"/>
			<point x="495" y="517"/>
			<point x="495" y="466" type="curve" smooth="yes"/>
			<point x="495" y="351"/>
			<point x="450" y="175"/>
		</contour>
	</outline>
</glyph>
<glyph name="multiply" format="2">
  <advance width="560"/>
  <unicode hex="00D7"/>
  <note>
multiply
</note>
  <outline>
    <contour>
      <point x="464" y="534" type="line"/>
      <point x="310" y="407" type="line"/>
      <point x="211" y="534" type="line"/>
      <point x="62" y="412" type="line"/>
      <point x="161" y="284" type="line"/>
      <point x="8" y="156" type="line"/>
      <point x="105" y="34" type="line"/>
      <point x="258" y="160" type="line"/>
      <point x="359" y="34" type="line"/>
      <point x="508" y="157" type="line"/>
      <point x="408" y="284" type="line"/>
      <point x="562" y="411" type="line"/>
    </contour>
  </outline>
</glyph>
<glyph name="Udieresis" format="2">
	<advance width="630"/>
	<unicode hex="00DC"/>
	<note>
		Udieresis
	</note>
	<outline>
		<contour>
			<point x="659" y="911" type="line"/>
			<point x="475" y="911" type="line"/>
			<point x="443" y="757" type="line"/>
			<point x="627" y="757" type="line"/>
		</contour>
		<contour>
			<point x="425" y="911" type="line"/>
			<point x="241" y="911" type="line"/>
			<point x="209" y="757" type="line"/>
			<point x="393" y="757" type="line"/>
		</contour>
		<contour>
			<point x="258" y="231" type="curve" smooth="yes"/>
			<point x="361" y="710" type="line"/>
			<point x="132" y="710" type="line"/>
			<point x="37" y="270" type="line" smooth="yes"/>
			<point x="-1" y="94"/>
			<point x="64" y="-14"/>
			<point x="292" y="-14" type="curve" smooth="yes"/>
			<point x="445" y="-14"/>
			<point x="545" y="36"/>
			<point x="589" y="240" type="curve" smooth="yes"/>
			<point x="690" y="710" type="line"/>
			<point x="461" y="710" type="line"/>
			<point x="358" y="231" type="line" smooth="yes"/>
			<point x="350" y="194"/>
			<point x="336" y="178"/>
			<point x="302" y="178" type="curve" smooth="yes"/>
			<point x="268" y="178"/>
			<point x="250" y="194"/>
		</contour>
	</outline>
</glyph>
<glyph name="Yacute" format="2">
	<advance width="583"/>
	<unicode hex="00DD"/>
	<note>
		Yacute
	</note>
	<outline>
		<contour>
			<point x="575" y="830" type="line"/>
			<point x="506" y="995" type="line"/>
			<point x="236" y="870" type="line"/>
			<point x="285" y="751" type="line"/>
		</contour>
		<contour>
			<point x="172" y="240" type="line"/>
			<point x="124" y="0" type="line"/>
			<point x="351" y="0" type="line"/>
			<point x="400" y="240" type="line"/>
			<point x="692" y="710" type="line"/>
			<point x="448" y="710" type="line"/>
			<point x="332" y="455" type="line"/>
			<point x="308" y="710" type="line"/>
			<point x="85" y="710" type="line"/>
		</contour>
	</outline>
</glyph>
<glyph name="Thorn" format="2">
	<advance width="623"/>
	<unicode hex="00DE"/>
	<note>
		Thorn
	</note>
	<outline>
		<contour>
			<point x="365" y="710" type="line"/>
			<point x="136" y="710" type="line"/>
			<point x="-15" y="0" type="line"/>
			<point x="214" y="0" type="line"/>
			<point x="233" y="89" type="line"/>
			<point x="302" y="89" type="line" smooth="yes"/>
			<point x="544" y="89"/>
			<point x="629" y="267"/>
			<point x="629" y="428" type="curve" smooth="yes"/>
			<point x="629" y="557"/>
			<point x="556" y="611"/>
			<point x="402" y="611" type="curve" smooth="yes"/>
			<point x="344" y="611" type="line"/>
		</contour>
		<contour>
			<point x="329" y="269" type="curve" smooth="yes"/>
			<point x="272" y="269" type="line"/>
			<point x="306" y="431" type="line"/>
			<point x="352" y="431" type="line" smooth="yes"/>
			<point x="383" y="431"/>
			<point x="397" y="418"/>
			<point x="397" y="386" type="curve" smooth="yes"/>
			<point x="397" y="329"/>
			<point x="367" y="269"/>
		</contour>
	</outline>
</glyph>
<glyph name="germandbls" format="2">
  <advance width="724"/>
  <unicode hex="00DF"/>
  <note>
germandbls
</note>
  <outline>
    <contour>
      <point x="90" y="535" type="curve" smooth="yes"/>
      <point x="-24" y="0" type="line"/>
      <point x="200" y="0" type="line"/>
      <point x="307" y="502" type="line" smooth="yes"/>
      <point x="316" y="544"/>
      <point x="343" y="567"/>
      <point x="396" y="567" type="curve" smooth="yes"/>
      <point x="442" y="567"/>
      <point x="454" y="550"/>
      <point x="454" y="532" type="curve" smooth="yes"/>
      <point x="454" y="511"/>
      <point x="440" y="493"/>
      <point x="396" y="454" type="curve" smooth="yes"/>
      <point x="349" y="412"/>
      <point x="324" y="382"/>
      <point x="324" y="337" type="curve" smooth="yes"/>
      <point x="324" y="302"/>
      <point x="341" y="282"/>
      <point x="373" y="258" type="curve" smooth="yes"/>
      <point x="435" y="212" type="line" smooth="yes"/>
      <point x="458" y="195"/>
      <point x="471" y="182"/>
      <point x="471" y="171" type="curve" smooth="yes"/>
      <point x="471" y="156"/>
      <point x="458" y="145"/>
      <point x="416" y="145" type="curve" smooth="yes"/>
      <point x="370" y="145"/>
      <point x="291" y="158"/>
      <point x="291" y="158" type="curve"/>
      <point x="253" y="11" type="line"/>
      <point x="253" y="11"/>
      <point x="330" y="-13"/>
      <point x="418" y="-13" type="curve" smooth="yes"/>
      <point x="592" y="-13"/>
      <point x="706" y="83"/>
      <point x="706" y="220" type="curve" smooth="yes"/>
      <point x="706" y="272"/>
      <point x="689" y="302"/>
      <point x="643" y="332" type="curve" smooth="yes"/>
      <point x="577" y="375" type="line" smooth="yes"/>
      <point x="552" y="391"/>
      <point x="539" y="402"/>
      <point x="539" y="417" type="curve" smooth="yes"/>
      <point x="539" y="436"/>
      <point x="548" y="445"/>
      <point x="588" y="469" type="curve" smooth="yes"/>
      <point x="654" y="508"/>
      <point x="702" y="533"/>
      <point x="702" y="605" type="curve" smooth="yes"/>
      <point x="702" y="679"/>
      <point x="649" y="748"/>
      <point x="408" y="748" type="curve" smooth="yes"/>
      <point x="217" y="748"/>
      <point x="125" y="698"/>
    </contour>
  </outline>
</glyph>
<glyph name="agrave" format="2">
  <advance width="570"/>
  <unicode hex="00E0"/>
  <note>
agrave
</note>
  <outline>
    <contour>
      <point x="540" y="680" type="line"/>
      <point x="270" y="805" type="line"/>
      <point x="201" y="640" type="line"/>
      <point x="491" y="561" type="line"/>
    </contour>
    <contour>
      <point x="168" y="-14" type="curve" smooth="yes"/>
      <point x="251" y="-14"/>
      <point x="310" y="69"/>
      <point x="310" y="69" type="curve"/>
      <point x="300" y="33"/>
      <point x="301" y="0"/>
      <point x="301" y="0" type="curve"/>
      <point x="503" y="0" type="line"/>
      <point x="503" y="0"/>
      <point x="498" y="90"/>
      <point x="514" y="172" type="curve" smooth="yes"/>
      <point x="575" y="483" type="line"/>
      <point x="575" y="483"/>
      <point x="384" y="536"/>
      <point x="265" y="536" type="curve" smooth="yes"/>
      <point x="117" y="536"/>
      <point x="8" y="336"/>
      <point x="8" y="174" type="curve" smooth="yes"/>
      <point x="8" y="46"/>
      <point x="68" y="-14"/>
    </contour>
    <contour>
      <point x="279" y="376" type="curve" smooth="yes"/>
      <point x="304" y="376"/>
      <point x="345" y="365"/>
      <point x="345" y="365" type="curve"/>
      <point x="311" y="202" type="line"/>
      <point x="311" y="202"/>
      <point x="282" y="162"/>
      <point x="256" y="162" type="curve" smooth="yes"/>
      <point x="241" y="162"/>
      <point x="225" y="176"/>
      <point x="225" y="223" type="curve" smooth="yes"/>
      <point x="225" y="296"/>
      <point x="245" y="376"/>
    </contour>
  </outline>
</glyph>
<glyph name="atilde" format="2">
	<advance width="570"/>
	<unicode hex="00E3"/>
	<note>
		atilde
	</note>
	<outline>
		<contour>
			<point x="589" y="660" type="curve"/>
			<point x="549" y="766" type="line"/>
			<point x="549" y="766"/>
			<point x="468" y="719"/>
			<point x="442" y="719" type="curve" smooth="yes"/>
			<point x="414" y="719"/>
			<point x="366" y="762"/>
			<point x="305" y="762" type="curve" smooth="yes"/>
			<point x="252" y="762"/>
			<point x="147" y="688"/>
			<point x="147" y="688" type="curve"/>
			<point x="190" y="585" type="line"/>
			<point x="190" y="585"/>
			<point x="249" y="622"/>
			<point x="277" y="622" type="curve" smooth="yes"/>
			<point x="310" y="622"/>
			<point x="365" y="578"/>
			<point x="417" y="578" type="curve" smooth="yes"/>
			<point x="471" y="578"/>
			<point x="589" y="660"/>
		</contour>
		<contour>
			<point x="168" y="-14" type="curve" smooth="yes"/>
			<point x="251" y="-14"/>
			<point x="310" y="69"/>
			<point x="310" y="69" type="curve"/>
			<point x="300" y="33"/>
			<point x="301" y="0"/>
			<point x="301" y="0" type="curve"/>
			<point x="503" y="0" type="line"/>
			<point x="503" y="0"/>
			<point x="498" y="90"/>
			<point x="514" y="172" type="curve" smooth="yes"/>
			<point x="575" y="483" type="line"/>
			<point x="575" y="483"/>
			<point x="384" y="536"/>
			<point x="265" y="536" type="curve" smooth="yes"/>
			<point x="117" y="536"/>
			<point x="8" y="336"/>
			<point x="8" y="174" type="curve" smooth="yes"/>
			<point x="8" y="46"/>
			<point x="68" y="-14"/>
		</contour>
		<contour>
			<point x="279" y="376" type="curve" smooth="yes"/>
			<point x="304" y="376"/>
			<point x="345" y="365"/>
			<point x="345" y="365" type="curve"/>
			<point x="311" y="202" type="line"/>
			<point x="311" y="202"/>
			<point x="282" y="162"/>
			<point x="256" y="162" type="curve" smooth="yes"/>
			<point x="241" y="162"/>
			<point x="225" y="176"/>
			<point x="225" y="223" type="curve" smooth="yes"/>
			<point x="225" y="296"/>
			<point x="245" y="376"/>
		</contour>
	</outline>
</glyph>
<glyph name="aring" format="2">
	<advance width="570"/>
	<unicode hex="00E5"/>
	<note>
		aring
	</note>
	<outline>
		<contour>
			<point x="230" y="655" type="curve" smooth="yes"/>
			<point x="230" y="595"/>
			<point x="285" y="566"/>
			<point x="359" y="566" type="curve" smooth="yes"/>
			<point x="461" y="566"/>
			<point x="526" y="613"/>
			<point x="526" y="701" type="curve" smooth="yes"/>
			<point x="526" y="761"/>
			<point x="470" y="790"/>
			<point x="396" y="790" type="curve" smooth="yes"/>
			<point x="294" y="790"/>
			<point x="230" y="743"/>
		</contour>
		<contour>
			<point x="345" y="673" type="curve" smooth="yes"/>
			<point x="345" y="691"/>
			<point x="361" y="700"/>
			<point x="383" y="700" type="curve" smooth="yes"/>
			<point x="400" y="700"/>
			<point x="410" y="694"/>
			<point x="410" y="683" type="curve" smooth="yes"/>
			<point x="410" y="663"/>
			<point x="394" y="655"/>
			<point x="373" y="655" type="curve" smooth="yes"/>
			<point x="355" y="655"/>
			<point x="345" y="660"/>
		</contour>
		<contour>
			<point x="168" y="-14" type="curve" smooth="yes"/>
			<point x="251" y="-14"/>
			<point x="310" y="69"/>
			<point x="310" y="69" type="curve"/>
			<point x="300" y="33"/>
			<point x="301" y="0"/>
			<point x="301" y="0" type="curve"/>
			<point x="503" y="0" type="line"/>
			<point x="503" y="0"/>
			<point x="498" y="90"/>
			<point x="514" y="172" type="curve" smooth="yes"/>
			<point x="575" y="483" type="line"/>
			<point x="575" y="483"/>
			<point x="384" y="536"/>
			<point x="265" y="536" type="curve" smooth="yes"/>
			<point x="117" y="536"/>
			<point x="8" y="336"/>
			<point x="8" y="174" type="curve" smooth="yes"/>
			<point x="8" y="46"/>
			<point x="68" y="-14"/>
		</contour>
		<contour>
			<point x="279" y="376" type="curve" smooth="yes"/>
			<point x="304" y="376"/>
			<point x="345" y="365"/>
			<point x="345" y="365" type="curve"/>
			<point x="311" y="202" type="line"/>
			<point x="311" y="202"/>
			<point x="282" y="162"/>
			<point x="256" y="162" type="curve" smooth="yes"/>
			<point x="241" y="162"/>
			<point x="225" y="176"/>
			<point x="225" y="223" type="curve" smooth="yes"/>
			<point x="225" y="296"/>
			<point x="245" y="376"/>
		</contour>
	</outline>
</glyph>
<glyph name="ae" format="2">
  <advance width="800"/>
  <unicode hex="00E6"/>
  <note>
ae
</note>
  <outline>
    <contour>
      <point x="517" y="152" type="curve" smooth="yes"/>
      <point x="488" y="152"/>
      <point x="474" y="160"/>
      <point x="474" y="191" type="curve" smooth="yes"/>
      <point x="474" y="197"/>
      <point x="475" y="204"/>
      <point x="477" y="213" type="curve"/>
      <point x="762" y="213" type="line"/>
      <point x="793" y="303" type="line"/>
      <point x="822" y="440"/>
      <point x="755" y="535"/>
      <point x="586" y="535" type="curve" smooth="yes"/>
      <point x="502" y="535"/>
      <point x="459" y="515"/>
      <point x="432" y="490" type="curve"/>
      <point x="402" y="519"/>
      <point x="360" y="535"/>
      <point x="291" y="535" type="curve" smooth="yes"/>
      <point x="186" y="535"/>
      <point x="90" y="500"/>
      <point x="90" y="500" type="curve"/>
      <point x="62" y="348" type="line"/>
      <point x="62" y="348"/>
      <point x="181" y="366"/>
      <point x="270" y="366" type="curve" smooth="yes"/>
      <point x="299" y="366"/>
      <point x="311" y="359"/>
      <point x="307" y="336" type="curve" smooth="yes"/>
      <point x="303" y="313" type="line"/>
      <point x="168" y="313" type="line" smooth="yes"/>
      <point x="53" y="313"/>
      <point x="-9" y="265"/>
      <point x="-9" y="143" type="curve" smooth="yes"/>
      <point x="-9" y="37"/>
      <point x="57" y="-13"/>
      <point x="164" y="-13" type="curve" smooth="yes"/>
      <point x="226" y="-13"/>
      <point x="271" y="3"/>
      <point x="307" y="21" type="curve" smooth="yes"/>
      <point x="333" y="34" type="line"/>
      <point x="368" y="4"/>
      <point x="405" y="-13"/>
      <point x="477" y="-13" type="curve" smooth="yes"/>
      <point x="587" y="-13"/>
      <point x="722" y="16"/>
      <point x="722" y="16" type="curve"/>
      <point x="748" y="161" type="line"/>
      <point x="748" y="161"/>
      <point x="601" y="152"/>
    </contour>
    <contour>
      <point x="595" y="318" type="curve"/>
      <point x="511" y="318" type="line"/>
      <point x="521" y="367"/>
      <point x="535" y="383"/>
      <point x="565" y="383" type="curve" smooth="yes"/>
      <point x="598" y="383"/>
      <point x="604" y="358"/>
    </contour>
    <contour>
      <point x="244" y="144" type="curve" smooth="yes"/>
      <point x="226" y="144"/>
      <point x="216" y="152"/>
      <point x="216" y="172" type="curve" smooth="yes"/>
      <point x="216" y="193"/>
      <point x="228" y="208"/>
      <point x="252" y="208" type="curve" smooth="yes"/>
      <point x="289" y="208" type="line"/>
      <point x="287" y="196"/>
      <point x="285" y="183"/>
      <point x="285" y="174" type="curve" smooth="yes"/>
      <point x="285" y="164"/>
      <point x="286" y="157"/>
      <point x="287" y="152" type="curve"/>
      <point x="277" y="148"/>
      <point x="262" y="144"/>
    </contour>
  </outline>
</glyph>
<glyph name="ccedilla" format="2">
  <advance width="470"/>
  <unicode hex="00E7"/>
  <note>
ccedilla
</note>
  <outline>
    <contour>
      <point x="335" y="-120" type="curve" smooth="yes"/>
      <point x="335" y="-71"/>
      <point x="299" y="-42"/>
      <point x="228" y="-41" type="curve"/>
      <point x="240" y="-12" type="line"/>
      <point x="341" y="-7"/>
      <point x="397" y="15"/>
      <point x="397" y="15" type="curve"/>
      <point x="427" y="190" type="line"/>
      <point x="427" y="190"/>
      <point x="323" y="183"/>
      <point x="285" y="183" type="curve" smooth="yes"/>
      <point x="254" y="183"/>
      <point x="239" y="193"/>
      <point x="239" y="222" type="curve" smooth="yes"/>
      <point x="239" y="286"/>
      <point x="264" y="340"/>
      <point x="318" y="340" type="curve" smooth="yes"/>
      <point x="355" y="340"/>
      <point x="455" y="332"/>
      <point x="455" y="332" type="curve"/>
      <point x="499" y="509" type="line"/>
      <point x="499" y="509"/>
      <point x="413" y="535"/>
      <point x="313" y="535" type="curve" smooth="yes"/>
      <point x="83" y="535"/>
      <point x="8" y="313"/>
      <point x="8" y="172" type="curve" smooth="yes"/>
      <point x="8" y="61"/>
      <point x="59" y="0"/>
      <point x="164" y="-11" type="curve"/>
      <point x="126" y="-109" type="line"/>
      <point x="135" y="-109" type="line" smooth="yes"/>
      <point x="160" y="-109"/>
      <point x="170" y="-114"/>
      <point x="170" y="-126" type="curve" smooth="yes"/>
      <point x="170" y="-145"/>
      <point x="160" y="-151"/>
      <point x="126" y="-151" type="curve" smooth="yes"/>
      <point x="109" y="-151"/>
      <point x="78" y="-150"/>
      <point x="78" y="-150" type="curve"/>
      <point x="57" y="-231" type="line"/>
      <point x="57" y="-231"/>
      <point x="115" y="-240"/>
      <point x="172" y="-240" type="curve" smooth="yes"/>
      <point x="278" y="-240"/>
      <point x="335" y="-211"/>
    </contour>
  </outline>
</glyph>
<glyph name="igrave" format="2">
	<advance width="281"/>
	<unicode hex="00EC"/>
	<note>
		igrave
	</note>
	<outline>
		<contour>
			<point x="392" y="680" type="line"/>
			<point x="122" y="805" type="line"/>
			<point x="53" y="640" type="line"/>
			<point x="343" y="561" type="line"/>
		</contour>
		<contour>
			<point x="306" y="520" type="line"/>
			<point x="86" y="520" type="line"/>
			<point x="-24" y="0" type="line"/>
			<point x="195" y="0" type="line"/>
		</contour>
	</outline>
</glyph>
<glyph name="iacute" format="2">
	<advance width="281"/>
	<unicode hex="00ED"/>
	<note>
		iacute
	</note>
	<outline>
		<contour>
			<point x="413" y="640" type="line"/>
			<point x="359" y="800" type="line"/>
			<point x="47" y="680" type="line"/>
			<point x="81" y="561" type="line"/>
		</contour>
		<contour>
			<point x="306" y="520" type="line"/>
			<point x="86" y="520" type="line"/>
			<point x="-24" y="0" type="line"/>
			<point x="195" y="0" type="line"/>
		</contour>
	</outline>
</glyph>
<glyph name="icircumflex" format="2">
  <advance width="281"/>
  <unicode hex="00EE"/>
  <note>
icircumflex
</note>
  <outline>
    <contour>
      <point x="186" y="576" type="line"/>
      <point x="235" y="659" type="line"/>
      <point x="248" y="576" type="line"/>
      <point x="401" y="576" type="line"/>
      <point x="358" y="756" type="line"/>
      <point x="134" y="756" type="line"/>
      <point x="15" y="576" type="line"/>
    </contour>
    <contour>
      <point x="306" y="520" type="line"/>
      <point x="86" y="520" type="line"/>
      <point x="-24" y="0" type="line"/>
      <point x="195" y="0" type="line"/>
    </contour>
  </outline>
</glyph>
<glyph name="idieresis" format="2">
	<advance width="281"/>
	<unicode hex="00EF"/>
	<note>
		idieresis
	</note>
	<outline>
		<contour>
			<point x="439" y="730" type="line"/>
			<point x="265" y="730" type="line"/>
			<point x="233" y="576" type="line"/>
			<point x="407" y="576" type="line"/>
		</contour>
		<contour>
			<point x="215" y="730" type="line"/>
			<point x="41" y="730" type="line"/>
			<point x="9" y="576" type="line"/>
			<point x="183" y="576" type="line"/>
		</contour>
		<contour>
			<point x="306" y="520" type="line"/>
			<point x="86" y="520" type="line"/>
			<point x="-24" y="0" type="line"/>
			<point x="195" y="0" type="line"/>
		</contour>
	</outline>
</glyph>
<glyph name="eth" format="2">
	<advance width="603"/>
	<unicode hex="00F0"/>
	<note>
		eth
	</note>
	<outline>
		<contour>
			<point x="204" y="612" type="curve"/>
			<point x="139" y="574" type="line"/>
			<point x="210" y="460" type="line"/>
			<point x="349" y="544" type="line"/>
			<point x="385" y="512"/>
			<point x="385" y="454"/>
			<point x="379" y="416" type="curve"/>
			<point x="349" y="425"/>
			<point x="315" y="430"/>
			<point x="279" y="430" type="curve" smooth="yes"/>
			<point x="83" y="430"/>
			<point x="10" y="337"/>
			<point x="10" y="206" type="curve" smooth="yes"/>
			<point x="10" y="46"/>
			<point x="104" y="-14"/>
			<point x="253" y="-14" type="curve" smooth="yes"/>
			<point x="527" y="-14"/>
			<point x="598" y="204"/>
			<point x="598" y="386" type="curve" smooth="yes"/>
			<point x="598" y="506"/>
			<point x="564" y="593"/>
			<point x="526" y="640" type="curve"/>
			<point x="601" y="682" type="line"/>
			<point x="525" y="805" type="line"/>
			<point x="398" y="731" type="line"/>
			<point x="347" y="751"/>
			<point x="270" y="764"/>
			<point x="174" y="768" type="curve"/>
			<point x="135" y="629" type="line"/>
			<point x="159" y="624"/>
			<point x="181" y="616"/>
		</contour>
		<contour>
			<point x="290" y="277" type="curve" smooth="yes"/>
			<point x="305" y="277"/>
			<point x="326" y="275"/>
			<point x="350" y="266" type="curve"/>
			<point x="340" y="179"/>
			<point x="314" y="156"/>
			<point x="277" y="156" type="curve" smooth="yes"/>
			<point x="243" y="156"/>
			<point x="226" y="176"/>
			<point x="226" y="208" type="curve" smooth="yes"/>
			<point x="226" y="248"/>
			<point x="244" y="277"/>
		</contour>
	</outline>
</glyph>
<glyph name="ntilde" format="2">
	<advance width="571"/>
	<unicode hex="00F1"/>
	<note>
		ntilde
	</note>
	<outline>
		<contour>
			<point x="579" y="660" type="curve"/>
			<point x="539" y="766" type="line"/>
			<point x="539" y="766"/>
			<point x="458" y="719"/>
			<point x="432" y="719" type="curve" smooth="yes"/>
			<point x="404" y="719"/>
			<point x="356" y="762"/>
			<point x="295" y="762" type="curve" smooth="yes"/>
			<point x="242" y="762"/>
			<point x="137" y="688"/>
			<point x="137" y="688" type="curve"/>
			<point x="180" y="585" type="line"/>
			<point x="180" y="585"/>
			<point x="239" y="622"/>
			<point x="267" y="622" type="curve" smooth="yes"/>
			<point x="300" y="622"/>
			<point x="355" y="578"/>
			<point x="407" y="578" type="curve" smooth="yes"/>
			<point x="461" y="578"/>
			<point x="579" y="660"/>
		</contour>
		<contour>
			<point x="86" y="520" type="line"/>
			<point x="-24" y="0" type="line"/>
			<point x="194" y="0" type="line"/>
			<point x="256" y="295" type="line"/>
			<point x="256" y="295"/>
			<point x="275" y="342"/>
			<point x="305" y="342" type="curve" smooth="yes"/>
			<point x="324" y="342"/>
			<point x="332" y="332"/>
			<point x="332" y="306" type="curve" smooth="yes"/>
			<point x="332" y="292"/>
			<point x="329" y="272"/>
			<point x="324" y="248" type="curve" smooth="yes"/>
			<point x="272" y="0" type="line"/>
			<point x="490" y="0" type="line"/>
			<point x="545" y="265" type="line" smooth="yes"/>
			<point x="557" y="325"/>
			<point x="567" y="374"/>
			<point x="567" y="415" type="curve" smooth="yes"/>
			<point x="567" y="496"/>
			<point x="520" y="536"/>
			<point x="451" y="536" type="curve" smooth="yes"/>
			<point x="352" y="536"/>
			<point x="276" y="453"/>
			<point x="276" y="453" type="curve"/>
			<point x="282" y="520" type="line"/>
		</contour>
	</outline>
</glyph>
<glyph name="ocircumflex" format="2">
  <advance width="577"/>
  <unicode hex="00F4"/>
  <note>
ocircumflex
</note>
  <outline>
    <contour>
      <point x="319" y="576" type="line"/>
      <point x="368" y="659" type="line"/>
      <point x="381" y="576" type="line"/>
      <point x="534" y="576" type="line"/>
      <point x="491" y="756" type="line"/>
      <point x="267" y="756" type="line"/>
      <point x="148" y="576" type="line"/>
    </contour>
    <contour>
      <point x="338" y="535" type="curve" smooth="yes"/>
      <point x="82" y="537"/>
      <point x="13" y="341"/>
      <point x="13" y="192" type="curve" smooth="yes"/>
      <point x="13" y="45"/>
      <point x="102" y="-12"/>
      <point x="240" y="-13" type="curve" smooth="yes"/>
      <point x="475" y="-15"/>
      <point x="565" y="157"/>
      <point x="565" y="330" type="curve" smooth="yes"/>
      <point x="565" y="476"/>
      <point x="476" y="534"/>
    </contour>
    <contour>
      <point x="271" y="168" type="curve" smooth="yes"/>
      <point x="246" y="168"/>
      <point x="238" y="179"/>
      <point x="238" y="199" type="curve" smooth="yes"/>
      <point x="238" y="224"/>
      <point x="253" y="355"/>
      <point x="306" y="355" type="curve" smooth="yes"/>
      <point x="331" y="355"/>
      <point x="340" y="346"/>
      <point x="340" y="322" type="curve" smooth="yes"/>
      <point x="340" y="288"/>
      <point x="324" y="168"/>
    </contour>
  </outline>
</glyph>
<glyph name="otilde" format="2">
  <advance width="577"/>
  <unicode hex="00F5"/>
  <note>
otilde
</note>
  <outline>
    <contour>
      <point x="574" y="660" type="curve"/>
      <point x="534" y="766" type="line"/>
      <point x="534" y="766"/>
      <point x="453" y="719"/>
      <point x="427" y="719" type="curve" smooth="yes"/>
      <point x="399" y="719"/>
      <point x="351" y="762"/>
      <point x="290" y="762" type="curve" smooth="yes"/>
      <point x="237" y="762"/>
      <point x="132" y="688"/>
      <point x="132" y="688" type="curve"/>
      <point x="175" y="585" type="line"/>
      <point x="175" y="585"/>
      <point x="234" y="622"/>
      <point x="262" y="622" type="curve" smooth="yes"/>
      <point x="295" y="622"/>
      <point x="350" y="578"/>
      <point x="402" y="578" type="curve" smooth="yes"/>
      <point x="456" y="578"/>
      <point x="574" y="660"/>
    </contour>
    <contour>
      <point x="338" y="535" type="curve" smooth="yes"/>
      <point x="82" y="537"/>
      <point x="13" y="341"/>
      <point x="13" y="192" type="curve" smooth="yes"/>
      <point x="13" y="45"/>
      <point x="102" y="-12"/>
      <point x="240" y="-13" type="curve" smooth="yes"/>
      <point x="475" y="-15"/>
      <point x="565" y="157"/>
      <point x="565" y="330" type="curve" smooth="yes"/>
      <point x="565" y="476"/>
      <point x="476" y="534"/>
    </contour>
    <contour>
      <point x="271" y="168" type="curve" smooth="yes"/>
      <point x="246" y="168"/>
      <point x="238" y="179"/>
      <point x="238" y="199" type="curve" smooth="yes"/>
      <point x="238" y="224"/>
      <point x="253" y="355"/>
      <point x="306" y="355" type="curve" smooth="yes"/>
      <point x="331" y="355"/>
      <point x="340" y="346"/>
      <point x="340" y="322" type="curve" smooth="yes"/>
      <point x="340" y="288"/>
      <point x="324" y="168"/>
    </contour>
  </outline>
</glyph>
<glyph name="odieresis" format="2">
	<advance width="577"/>
	<unicode hex="00F6"/>
	<note>
		odieresis
	</note>
	<outline>
		<contour>
			<point x="572" y="730" type="line"/>
			<point x="398" y="730" type="line"/>
			<point x="366" y="576" type="line"/>
			<point x="540" y="576" type="line"/>
		</contour>
		<contour>
			<point x="348" y="730" type="line"/>
			<point x="174" y="730" type="line"/>
			<point x="142" y="576" type="line"/>
			<point x="316" y="576" type="line"/>
		</contour>
		<contour>
			<point x="338" y="535" type="curve" smooth="yes"/>
			<point x="82" y="537"/>
			<point x="13" y="341"/>
			<point x="13" y="192" type="curve" smooth="yes"/>
			<point x="13" y="45"/>
			<point x="102" y="-12"/>
			<point x="240" y="-13" type="curve" smooth="yes"/>
			<point x="475" y="-15"/>
			<point x="565" y="157"/>
			<point x="565" y="330" type="curve" smooth="yes"/>
			<point x="565" y="476"/>
			<point x="476" y="534"/>
		</contour>
		<contour>
			<point x="271" y="168" type="curve" smooth="yes"/>
			<point x="246" y="168"/>
			<point x="238" y="179"/>
			<point x="238" y="199" type="curve" smooth="yes"/>
			<point x="238" y="224"/>
			<point x="253" y="355"/>
			<point x="306" y="355" type="curve" smooth="yes"/>
			<point x="331" y="355"/>
			<point x="340" y="346"/>
			<point x="340" y="322" type="curve" smooth="yes"/>
			<point x="340" y="288"/>
			<point x="324" y="168"/>
		</contour>
	</outline>
</glyph>
<glyph name="divide" format="2">
	<advance width="560"/>
	<unicode hex="00F7"/>
	<note>
		divide
	</note>
	<outline>
		<contour>
			<point x="440" y="544" type="line"/>
			<point x="240" y="544" type="line"/>
			<point x="211" y="404" type="line"/>
			<point x="411" y="404" type="line"/>
		</contour>
		<contour>
			<point x="500" y="204" type="line"/>
			<point x="534" y="364" type="line"/>
			<point x="70" y="364" type="line"/>
			<point x="36" y="204" type="line"/>
		</contour>
		<contour>
			<point x="359" y="164" type="line"/>
			<point x="159" y="164" type="line"/>
			<point x="130" y="24" type="line"/>
			<point x="330" y="24" type="line"/>
		</contour>
	</outline>
</glyph>
<glyph name="oslash" format="2">
	<advance width="577"/>
	<unicode hex="00F8"/>
	<note>
		oslash
	</note>
	<outline>
		<contour>
			<point x="338" y="535" type="curve" smooth="yes"/>
			<point x="82" y="537"/>
			<point x="13" y="341"/>
			<point x="13" y="192" type="curve" smooth="yes"/>
			<point x="13" y="119"/>
			<point x="35" y="68"/>
			<point x="75" y="35" type="curve"/>
			<point x="51" y="-9" type="line"/>
			<point x="151" y="-65" type="line"/>
			<point x="182" y="-9" type="line"/>
			<point x="200" y="-11"/>
			<point x="219" y="-13"/>
			<point x="240" y="-13" type="curve" smooth="yes"/>
			<point x="475" y="-15"/>
			<point x="565" y="157"/>
			<point x="565" y="330" type="curve" smooth="yes"/>
			<point x="565" y="414"/>
			<point x="535" y="469"/>
			<point x="483" y="501" type="curve"/>
			<point x="502" y="535" type="line"/>
			<point x="400" y="589" type="line"/>
			<point x="370" y="534" type="line"/>
			<point x="359" y="534"/>
			<point x="349" y="535"/>
		</contour>
		<contour>
			<point x="271" y="168" type="curve" smooth="yes"/>
			<point x="246" y="168"/>
			<point x="238" y="179"/>
			<point x="238" y="199" type="curve" smooth="yes"/>
			<point x="238" y="224"/>
			<point x="253" y="355"/>
			<point x="306" y="355" type="curve" smooth="yes"/>
			<point x="331" y="355"/>
			<point x="340" y="346"/>
			<point x="340" y="322" type="curve" smooth="yes"/>
			<point x="340" y="288"/>
			<point x="324" y="168"/>
		</contour>
	</outline>
</glyph>
<glyph name="udieresis" format="2">
  <advance width="571"/>
  <unicode hex="00FC"/>
  <note>
udieresis
</note>
  <outline>
    <contour>
      <point x="578" y="730" type="line"/>
      <point x="404" y="730" type="line"/>
      <point x="372" y="576" type="line"/>
      <point x="546" y="576" type="line"/>
    </contour>
    <contour>
      <point x="354" y="730" type="line"/>
      <point x="180" y="730" type="line"/>
      <point x="148" y="576" type="line"/>
      <point x="322" y="576" type="line"/>
    </contour>
    <contour>
      <point x="486" y="0" type="line"/>
      <point x="596" y="520" type="line"/>
      <point x="378" y="520" type="line"/>
      <point x="315" y="215" type="line"/>
      <point x="315" y="215"/>
      <point x="296" y="178"/>
      <point x="267" y="178" type="curve" smooth="yes"/>
      <point x="248" y="178"/>
      <point x="240" y="188"/>
      <point x="240" y="214" type="curve" smooth="yes"/>
      <point x="240" y="228"/>
      <point x="243" y="248"/>
      <point x="248" y="272" type="curve" smooth="yes"/>
      <point x="300" y="520" type="line"/>
      <point x="82" y="520" type="line"/>
      <point x="27" y="255" type="line" smooth="yes"/>
      <point x="15" y="195"/>
      <point x="5" y="146"/>
      <point x="5" y="105" type="curve" smooth="yes"/>
      <point x="5" y="24"/>
      <point x="52" y="-16"/>
      <point x="121" y="-16" type="curve" smooth="yes"/>
      <point x="220" y="-16"/>
      <point x="296" y="67"/>
      <point x="296" y="67" type="curve"/>
      <point x="290" y="0" type="line"/>
    </contour>
  </outline>
</glyph>
<glyph name="yacute" format="2">
	<advance width="553"/>
	<unicode hex="00FD"/>
	<note>
		yacute
	</note>
	<outline>
		<contour>
			<point x="541" y="640" type="line"/>
			<point x="487" y="800" type="line"/>
			<point x="175" y="680" type="line"/>
			<point x="209" y="561" type="line"/>
		</contour>
		<contour>
			<point x="290" y="520" type="line"/>
			<point x="61" y="520" type="line"/>
			<point x="39" y="0" type="line"/>
			<point x="179" y="0" type="line"/>
			<point x="93" y="-200" type="line"/>
			<point x="334" y="-200" type="line"/>
			<point x="600" y="520" type="line"/>
			<point x="371" y="520" type="line"/>
			<point x="267" y="187" type="line"/>
			<point x="242" y="187" type="line"/>
		</contour>
	</outline>
</glyph>
<glyph name="thorn" format="2">
  <advance width="585"/>
  <unicode hex="00FE"/>
  <note>
thorn
</note>
  <outline>
    <contour>
      <point x="348" y="730" type="line"/>
      <point x="131" y="730" type="line"/>
      <point x="-67" y="-200" type="line"/>
      <point x="150" y="-200" type="line"/>
      <point x="192" y="0" type="line"/>
      <point x="192" y="0"/>
      <point x="254" y="-13"/>
      <point x="286" y="-13" type="curve" smooth="yes"/>
      <point x="506" y="-13"/>
      <point x="574" y="180"/>
      <point x="574" y="358" type="curve" smooth="yes"/>
      <point x="574" y="462"/>
      <point x="519" y="535"/>
      <point x="424" y="535" type="curve" smooth="yes"/>
      <point x="338" y="535"/>
      <point x="291" y="476"/>
      <point x="291" y="476" type="curve"/>
    </contour>
    <contour>
      <point x="319" y="367" type="curve" smooth="yes"/>
      <point x="343" y="367"/>
      <point x="354" y="347"/>
      <point x="354" y="299" type="curve" smooth="yes"/>
      <point x="354" y="232"/>
      <point x="335" y="146"/>
      <point x="287" y="146" type="curve" smooth="yes"/>
      <point x="268" y="146"/>
      <point x="221" y="157"/>
      <point x="221" y="157" type="curve"/>
      <point x="254" y="310" type="line"/>
      <point x="254" y="310"/>
      <point x="283" y="367"/>
    </contour>
  </outline>
</glyph>
<glyph name="ydieresis" format="2">
  <advance width="553"/>
  <unicode hex="00FF"/>
  <note>
ydieresis
</note>
  <outline>
    <contour>
      <point x="567" y="730" type="line"/>
      <point x="393" y="730" type="line"/>
      <point x="361" y="576" type="line"/>
      <point x="535" y="576" type="line"/>
    </contour>
    <contour>
      <point x="343" y="730" type="line"/>
      <point x="169" y="730" type="line"/>
      <point x="137" y="576" type="line"/>
      <point x="311" y="576" type="line"/>
    </contour>
    <contour>
      <point x="290" y="520" type="line"/>
      <point x="61" y="520" type="line"/>
      <point x="39" y="0" type="line"/>
      <point x="179" y="0" type="line"/>
      <point x="93" y="-200" type="line"/>
      <point x="334" y="-200" type="line"/>
      <point x="600" y="520" type="line"/>
      <point x="371" y="520" type="line"/>
      <point x="267" y="187" type="line"/>
      <point x="242" y="187" type="line"/>
    </contour>
  </outline>
</glyph>
<glyph name="Amacron" format="2">
  <advance width="647"/>
  <unicode hex="0100"/>
  <note>
Amacron
</note>
  <outline>
    <contour>
      <point x="616" y="896" type="line"/>
      <point x="289" y="896" type="line"/>
      <point x="261" y="766" type="line"/>
      <point x="588" y="766" type="line"/>
    </contour>
    <contour>
      <point x="246" y="710" type="line"/>
      <point x="-48" y="0" type="line"/>
      <point x="176" y="0" type="line"/>
      <point x="217" y="111" type="line"/>
      <point x="367" y="111" type="line"/>
      <point x="362" y="0" type="line"/>
      <point x="589" y="0" type="line"/>
      <point x="590" y="710" type="line"/>
    </contour>
    <contour>
      <point x="367" y="528" type="line"/>
      <point x="392" y="528" type="line"/>
      <point x="377" y="288" type="line"/>
      <point x="281" y="288" type="line"/>
    </contour>
  </outline>
</glyph>
<glyph name="Abreve" format="2">
	<advance width="647"/>
	<unicode hex="0102"/>
	<note>
		Abreve
	</note>
	<outline>
		<contour>
			<point x="410" y="937" type="curve"/>
			<point x="290" y="937" type="line"/>
			<point x="267" y="827"/>
			<point x="300" y="752"/>
			<point x="430" y="752" type="curve" smooth="yes"/>
			<point x="550" y="752"/>
			<point x="605" y="817"/>
			<point x="631" y="937" type="curve"/>
			<point x="498" y="937" type="line"/>
			<point x="486" y="897"/>
			<point x="472" y="883"/>
			<point x="442" y="883" type="curve" smooth="yes"/>
			<point x="412" y="883"/>
			<point x="404" y="897"/>
		</contour>
		<contour>
			<point x="246" y="710" type="line"/>
			<point x="-48" y="0" type="line"/>
			<point x="176" y="0" type="line"/>
			<point x="217" y="111" type="line"/>
			<point x="367" y="111" type="line"/>
			<point x="362" y="0" type="line"/>
			<point x="589" y="0" type="line"/>
			<point x="590" y="710" type="line"/>
		</contour>
		<contour>
			<point x="367" y="528" type="line"/>
			<point x="392" y="528" type="line"/>
			<point x="377" y="288" type="line"/>
			<point x="281" y="288" type="line"/>
		</contour>
	</outline>
</glyph>
<glyph name="abreve" format="2">
  <advance width="570"/>
  <unicode hex="0103"/>
  <note>
abreve
</note>
  <outline>
    <contour>
      <point x="344" y="756" type="curve"/>
      <point x="224" y="756" type="line"/>
      <point x="200" y="646"/>
      <point x="239" y="571"/>
      <point x="369" y="571" type="curve" smooth="yes"/>
      <point x="491" y="571"/>
      <point x="547" y="634"/>
      <point x="564" y="756" type="curve"/>
      <point x="432" y="756" type="line"/>
      <point x="420" y="716"/>
      <point x="406" y="702"/>
      <point x="376" y="702" type="curve" smooth="yes"/>
      <point x="346" y="702"/>
      <point x="338" y="716"/>
    </contour>
    <contour>
      <point x="168" y="-14" type="curve" smooth="yes"/>
      <point x="251" y="-14"/>
      <point x="310" y="69"/>
      <point x="310" y="69" type="curve"/>
      <point x="300" y="33"/>
      <point x="301" y="0"/>
      <point x="301" y="0" type="curve"/>
      <point x="503" y="0" type="line"/>
      <point x="503" y="0"/>
      <point x="498" y="90"/>
      <point x="514" y="172" type="curve" smooth="yes"/>
      <point x="575" y="483" type="line"/>
      <point x="575" y="483"/>
      <point x="384" y="536"/>
      <point x="265" y="536" type="curve" smooth="yes"/>
      <point x="117" y="536"/>
      <point x="8" y="336"/>
      <point x="8" y="174" type="curve" smooth="yes"/>
      <point x="8" y="46"/>
      <point x="68" y="-14"/>
    </contour>
    <contour>
      <point x="279" y="376" type="curve" smooth="yes"/>
      <point x="304" y="376"/>
      <point x="345" y="365"/>
      <point x="345" y="365" type="curve"/>
      <point x="311" y="202" type="line"/>
      <point x="311" y="202"/>
      <point x="282" y="162"/>
      <point x="256" y="162" type="curve" smooth="yes"/>
      <point x="241" y="162"/>
      <point x="225" y="176"/>
      <point x="225" y="223" type="curve" smooth="yes"/>
      <point x="225" y="296"/>
      <point x="245" y="376"/>
    </contour>
  </outline>
</glyph>
<glyph name="Aogonek" format="2">
	<advance width="647"/>
	<unicode hex="0104"/>
	<note>
		Aogonek
	</note>
	<outline>
		<contour>
			<point x="246" y="710" type="line"/>
			<point x="-48" y="0" type="line"/>
			<point x="176" y="0" type="line"/>
			<point x="217" y="111" type="line"/>
			<point x="367" y="111" type="line"/>
			<point x="362" y="0" type="line"/>
			<point x="435" y="0" type="line"/>
			<point x="372" y="-54"/>
			<point x="333" y="-103"/>
			<point x="333" y="-155" type="curve" smooth="yes"/>
			<point x="333" y="-206"/>
			<point x="379" y="-230"/>
			<point x="463" y="-230" type="curve" smooth="yes"/>
			<point x="524" y="-230"/>
			<point x="577" y="-215"/>
			<point x="577" y="-215" type="curve"/>
			<point x="586" y="-107" type="line"/>
			<point x="586" y="-107"/>
			<point x="561" y="-111"/>
			<point x="540" y="-111" type="curve" smooth="yes"/>
			<point x="528" y="-111"/>
			<point x="522" y="-105"/>
			<point x="522" y="-93" type="curve" smooth="yes"/>
			<point x="522" y="-75"/>
			<point x="544" y="-43"/>
			<point x="589" y="0" type="curve"/>
			<point x="590" y="710" type="line"/>
		</contour>
		<contour>
			<point x="367" y="528" type="line"/>
			<point x="392" y="528" type="line"/>
			<point x="377" y="288" type="line"/>
			<point x="281" y="288" type="line"/>
		</contour>
	</outline>
</glyph>
<glyph name="aogonek" format="2">
  <advance width="570"/>
  <unicode hex="0105"/>
  <note>
aogonek
</note>
  <outline>
    <contour>
      <point x="168" y="-14" type="curve" smooth="yes"/>
      <point x="251" y="-14"/>
      <point x="310" y="69"/>
      <point x="310" y="69" type="curve"/>
      <point x="301" y="35"/>
      <point x="301" y="4"/>
      <point x="301" y="0" type="curve"/>
      <point x="237" y="-54"/>
      <point x="198" y="-103"/>
      <point x="198" y="-155" type="curve" smooth="yes"/>
      <point x="198" y="-206"/>
      <point x="244" y="-230"/>
      <point x="328" y="-230" type="curve" smooth="yes"/>
      <point x="389" y="-230"/>
      <point x="442" y="-215"/>
      <point x="442" y="-215" type="curve"/>
      <point x="451" y="-107" type="line"/>
      <point x="451" y="-107"/>
      <point x="426" y="-111"/>
      <point x="405" y="-111" type="curve" smooth="yes"/>
      <point x="393" y="-111"/>
      <point x="387" y="-105"/>
      <point x="387" y="-93" type="curve" smooth="yes"/>
      <point x="387" y="-75"/>
      <point x="409" y="-43"/>
      <point x="454" y="0" type="curve"/>
      <point x="503" y="0" type="line"/>
      <point x="503" y="0"/>
      <point x="498" y="90"/>
      <point x="514" y="172" type="curve" smooth="yes"/>
      <point x="575" y="483" type="line"/>
      <point x="575" y="483"/>
      <point x="384" y="536"/>
      <point x="265" y="536" type="curve" smooth="yes"/>
      <point x="117" y="536"/>
      <point x="8" y="336"/>
      <point x="8" y="174" type="curve" smooth="yes"/>
      <point x="8" y="46"/>
      <point x="68" y="-14"/>
    </contour>
    <contour>
      <point x="279" y="376" type="curve" smooth="yes"/>
      <point x="304" y="376"/>
      <point x="345" y="365"/>
      <point x="345" y="365" type="curve"/>
      <point x="311" y="202" type="line"/>
      <point x="311" y="202"/>
      <point x="282" y="162"/>
      <point x="256" y="162" type="curve" smooth="yes"/>
      <point x="241" y="162"/>
      <point x="225" y="176"/>
      <point x="225" y="223" type="curve" smooth="yes"/>
      <point x="225" y="296"/>
      <point x="245" y="376"/>
    </contour>
  </outline>
</glyph>
<glyph name="Cacute" format="2">
	<advance width="546"/>
	<unicode hex="0106"/>
	<note>
		Cacute
	</note>
	<outline>
		<contour>
			<point x="621" y="830" type="line"/>
			<point x="552" y="995" type="line"/>
			<point x="282" y="870" type="line"/>
			<point x="331" y="751" type="line"/>
		</contour>
		<contour>
			<point x="471" y="10" type="curve"/>
			<point x="505" y="188" type="line"/>
			<point x="505" y="188"/>
			<point x="425" y="179"/>
			<point x="370" y="179" type="curve" smooth="yes"/>
			<point x="297" y="179"/>
			<point x="268" y="191"/>
			<point x="268" y="248" type="curve" smooth="yes"/>
			<point x="268" y="364"/>
			<point x="300" y="530"/>
			<point x="439" y="530" type="curve" smooth="yes"/>
			<point x="486" y="530"/>
			<point x="570" y="521"/>
			<point x="570" y="521" type="curve"/>
			<point x="614" y="699" type="line"/>
			<point x="614" y="699"/>
			<point x="534" y="726"/>
			<point x="421" y="726" type="curve" smooth="yes"/>
			<point x="108" y="726"/>
			<point x="31" y="399"/>
			<point x="31" y="215" type="curve" smooth="yes"/>
			<point x="31" y="52"/>
			<point x="101" y="-14"/>
			<point x="266" y="-14" type="curve" smooth="yes"/>
			<point x="383" y="-14"/>
			<point x="471" y="10"/>
		</contour>
	</outline>
</glyph>
<glyph name="cacute" format="2">
  <advance width="470"/>
  <unicode hex="0107"/>
  <note>
cacute
</note>
  <outline>
    <contour>
      <point x="532" y="640" type="line"/>
      <point x="478" y="800" type="line"/>
      <point x="166" y="680" type="line"/>
      <point x="200" y="561" type="line"/>
    </contour>
    <contour>
      <point x="313" y="535" type="curve" smooth="yes"/>
      <point x="83" y="535"/>
      <point x="8" y="313"/>
      <point x="8" y="172" type="curve" smooth="yes"/>
      <point x="8" y="48"/>
      <point x="71" y="-13"/>
      <point x="202" y="-13" type="curve" smooth="yes"/>
      <point x="327" y="-13"/>
      <point x="397" y="15"/>
      <point x="397" y="15" type="curve"/>
      <point x="427" y="190" type="line"/>
      <point x="427" y="190"/>
      <point x="323" y="183"/>
      <point x="285" y="183" type="curve" smooth="yes"/>
      <point x="254" y="183"/>
      <point x="239" y="193"/>
      <point x="239" y="222" type="curve" smooth="yes"/>
      <point x="239" y="286"/>
      <point x="264" y="340"/>
      <point x="318" y="340" type="curve" smooth="yes"/>
      <point x="355" y="340"/>
      <point x="455" y="332"/>
      <point x="455" y="332" type="curve"/>
      <point x="499" y="509" type="line"/>
      <point x="499" y="509"/>
      <point x="413" y="535"/>
    </contour>
  </outline>
</glyph>
<glyph name="ccircumflex" format="2">
	<advance width="470"/>
	<unicode hex="0109"/>
	<note>
		ccircumflex
	</note>
	<outline>
		<contour>
			<point x="305" y="576" type="line"/>
			<point x="354" y="659" type="line"/>
			<point x="367" y="576" type="line"/>
			<point x="520" y="576" type="line"/>
			<point x="477" y="756" type="line"/>
			<point x="253" y="756" type="line"/>
			<point x="134" y="576" type="line"/>
		</contour>
		<contour>
			<point x="313" y="535" type="curve" smooth="yes"/>
			<point x="83" y="535"/>
			<point x="8" y="313"/>
			<point x="8" y="172" type="curve" smooth="yes"/>
			<point x="8" y="48"/>
			<point x="71" y="-13"/>
			<point x="202" y="-13" type="curve" smooth="yes"/>
			<point x="327" y="-13"/>
			<point x="397" y="15"/>
			<point x="397" y="15" type="curve"/>
			<point x="427" y="190" type="line"/>
			<point x="427" y="190"/>
			<point x="323" y="183"/>
			<point x="285" y="183" type="curve" smooth="yes"/>
			<point x="254" y="183"/>
			<point x="239" y="193"/>
			<point x="239" y="222" type="curve" smooth="yes"/>
			<point x="239" y="286"/>
			<point x="264" y="340"/>
			<point x="318" y="340" type="curve" smooth="yes"/>
			<point x="355" y="340"/>
			<point x="455" y="332"/>
			<point x="455" y="332" type="curve"/>
			<point x="499" y="509" type="line"/>
			<point x="499" y="509"/>
			<point x="413" y="535"/>
		</contour>
	</outline>
</glyph>
<glyph name="Cdotaccent" format="2">
	<advance width="546"/>
	<unicode hex="010A"/>
	<note>
		Cdotaccent
	</note>
	<outline>
		<contour>
			<point x="563" y="911" type="line"/>
			<point x="359" y="911" type="line"/>
			<point x="327" y="757" type="line"/>
			<point x="531" y="757" type="line"/>
		</contour>
		<contour>
			<point x="471" y="10" type="curve"/>
			<point x="505" y="188" type="line"/>
			<point x="505" y="188"/>
			<point x="425" y="179"/>
			<point x="370" y="179" type="curve" smooth="yes"/>
			<point x="297" y="179"/>
			<point x="268" y="191"/>
			<point x="268" y="248" type="curve" smooth="yes"/>
			<point x="268" y="364"/>
			<point x="300" y="530"/>
			<point x="439" y="530" type="curve" smooth="yes"/>
			<point x="486" y="530"/>
			<point x="570" y="521"/>
			<point x="570" y="521" type="curve"/>
			<point x="614" y="699" type="line"/>
			<point x="614" y="699"/>
			<point x="534" y="726"/>
			<point x="421" y="726" type="curve" smooth="yes"/>
			<point x="108" y="726"/>
			<point x="31" y="399"/>
			<point x="31" y="215" type="curve" smooth="yes"/>
			<point x="31" y="52"/>
			<point x="101" y="-14"/>
			<point x="266" y="-14" type="curve" smooth="yes"/>
			<point x="383" y="-14"/>
			<point x="471" y="10"/>
		</contour>
	</outline>
</glyph>
<glyph name="Ccaron" format="2">
	<advance width="546"/>
	<unicode hex="010C"/>
	<note>
		Ccaron
	</note>
	<outline>
		<contour>
			<point x="488" y="937" type="line"/>
			<point x="439" y="854" type="line"/>
			<point x="426" y="937" type="line"/>
			<point x="274" y="937" type="line"/>
			<point x="317" y="757" type="line"/>
			<point x="541" y="757" type="line"/>
			<point x="660" y="937" type="line"/>
		</contour>
		<contour>
			<point x="471" y="10" type="curve"/>
			<point x="505" y="188" type="line"/>
			<point x="505" y="188"/>
			<point x="425" y="179"/>
			<point x="370" y="179" type="curve" smooth="yes"/>
			<point x="297" y="179"/>
			<point x="268" y="191"/>
			<point x="268" y="248" type="curve" smooth="yes"/>
			<point x="268" y="364"/>
			<point x="300" y="530"/>
			<point x="439" y="530" type="curve" smooth="yes"/>
			<point x="486" y="530"/>
			<point x="570" y="521"/>
			<point x="570" y="521" type="curve"/>
			<point x="614" y="699" type="line"/>
			<point x="614" y="699"/>
			<point x="534" y="726"/>
			<point x="421" y="726" type="curve" smooth="yes"/>
			<point x="108" y="726"/>
			<point x="31" y="399"/>
			<point x="31" y="215" type="curve" smooth="yes"/>
			<point x="31" y="52"/>
			<point x="101" y="-14"/>
			<point x="266" y="-14" type="curve" smooth="yes"/>
			<point x="383" y="-14"/>
			<point x="471" y="10"/>
		</contour>
	</outline>
</glyph>
<glyph name="ccaron" format="2">
	<advance width="470"/>
	<unicode hex="010D"/>
	<note>
		ccaron
	</note>
	<outline>
		<contour>
			<point x="387" y="756" type="line"/>
			<point x="338" y="673" type="line"/>
			<point x="325" y="756" type="line"/>
			<point x="172" y="756" type="line"/>
			<point x="215" y="576" type="line"/>
			<point x="439" y="576" type="line"/>
			<point x="558" y="756" type="line"/>
		</contour>
		<contour>
			<point x="313" y="535" type="curve" smooth="yes"/>
			<point x="83" y="535"/>
			<point x="8" y="313"/>
			<point x="8" y="172" type="curve" smooth="yes"/>
			<point x="8" y="48"/>
			<point x="71" y="-13"/>
			<point x="202" y="-13" type="curve" smooth="yes"/>
			<point x="327" y="-13"/>
			<point x="397" y="15"/>
			<point x="397" y="15" type="curve"/>
			<point x="427" y="190" type="line"/>
			<point x="427" y="190"/>
			<point x="323" y="183"/>
			<point x="285" y="183" type="curve" smooth="yes"/>
			<point x="254" y="183"/>
			<point x="239" y="193"/>
			<point x="239" y="222" type="curve" smooth="yes"/>
			<point x="239" y="286"/>
			<point x="264" y="340"/>
			<point x="318" y="340" type="curve" smooth="yes"/>
			<point x="355" y="340"/>
			<point x="455" y="332"/>
			<point x="455" y="332" type="curve"/>
			<point x="499" y="509" type="line"/>
			<point x="499" y="509"/>
			<point x="413" y="535"/>
		</contour>
	</outline>
</glyph>
<glyph name="Dcaron" format="2">
	<advance width="669"/>
	<unicode hex="010E"/>
	<note>
		Dcaron
	</note>
	<outline>
		<contour>
			<point x="458" y="937" type="line"/>
			<point x="409" y="854" type="line"/>
			<point x="396" y="937" type="line"/>
			<point x="244" y="937" type="line"/>
			<point x="287" y="757" type="line"/>
			<point x="511" y="757" type="line"/>
			<point x="630" y="937" type="line"/>
		</contour>
		<contour>
			<point x="137" y="710" type="line"/>
			<point x="-15" y="0" type="line"/>
			<point x="322" y="0" type="line" smooth="yes"/>
			<point x="567" y="0"/>
			<point x="673" y="239"/>
			<point x="673" y="459" type="curve" smooth="yes"/>
			<point x="673" y="639"/>
			<point x="571" y="710"/>
			<point x="395" y="710" type="curve" smooth="yes"/>
		</contour>
		<contour>
			<point x="305" y="189" type="curve" smooth="yes"/>
			<point x="254" y="189" type="line"/>
			<point x="326" y="521" type="line"/>
			<point x="368" y="521" type="line" smooth="yes"/>
			<point x="418" y="521"/>
			<point x="437" y="501"/>
			<point x="437" y="426" type="curve" smooth="yes"/>
			<point x="437" y="300"/>
			<point x="391" y="189"/>
		</contour>
	</outline>
</glyph>
<glyph name="dcaron" format="2">
  <advance width="604"/>
  <unicode hex="010F"/>
  <note>
dcaron
</note>
  <outline>
    <contour>
      <point x="308" y="0" type="line"/>
      <point x="499" y="0" type="line"/>
      <point x="654" y="730" type="line"/>
      <point x="438" y="730" type="line"/>
      <point x="393" y="519" type="line"/>
      <point x="393" y="519"/>
      <point x="337" y="535"/>
      <point x="290" y="535" type="curve" smooth="yes"/>
      <point x="90" y="535"/>
      <point x="10" y="328"/>
      <point x="10" y="172" type="curve" smooth="yes"/>
      <point x="10" y="68"/>
      <point x="54" y="-14"/>
      <point x="176" y="-14" type="curve" smooth="yes"/>
      <point x="255" y="-14"/>
      <point x="312" y="67"/>
      <point x="312" y="67" type="curve"/>
    </contour>
    <contour>
      <point x="654" y="574" type="curve"/>
      <point x="798" y="546" type="line"/>
      <point x="798" y="546"/>
      <point x="866" y="603"/>
      <point x="875" y="648" type="curve" smooth="yes"/>
      <point x="882" y="679"/>
      <point x="890" y="730"/>
      <point x="890" y="730" type="curve"/>
      <point x="709" y="730" type="line"/>
      <point x="709" y="730"/>
      <point x="700" y="675"/>
      <point x="696" y="659" type="curve" smooth="yes"/>
      <point x="692" y="637"/>
      <point x="654" y="574"/>
    </contour>
    <contour>
      <point x="266" y="155" type="curve" smooth="yes"/>
      <point x="244" y="155"/>
      <point x="231" y="169"/>
      <point x="231" y="223" type="curve" smooth="yes"/>
      <point x="231" y="276"/>
      <point x="245" y="376"/>
      <point x="297" y="376" type="curve" smooth="yes"/>
      <point x="320" y="376"/>
      <point x="364" y="365"/>
      <point x="364" y="365" type="curve"/>
      <point x="331" y="212" type="line"/>
      <point x="331" y="212"/>
      <point x="302" y="155"/>
    </contour>
  </outline>
</glyph>
<glyph name="dcroat" format="2">
  <advance width="585"/>
  <unicode hex="0111"/>
  <note>
dcroat
</note>
  <outline>
    <contour>
      <point x="308" y="0" type="line"/>
      <point x="499" y="0" type="line"/>
      <point x="620" y="568" type="line"/>
      <point x="663" y="568" type="line"/>
      <point x="687" y="684" type="line"/>
      <point x="644" y="684" type="line"/>
      <point x="654" y="730" type="line"/>
      <point x="438" y="730" type="line"/>
      <point x="428" y="684" type="line"/>
      <point x="321" y="684" type="line"/>
      <point x="297" y="568" type="line"/>
      <point x="403" y="568" type="line"/>
      <point x="393" y="519" type="line"/>
      <point x="393" y="519"/>
      <point x="337" y="535"/>
      <point x="290" y="535" type="curve" smooth="yes"/>
      <point x="90" y="535"/>
      <point x="10" y="328"/>
      <point x="10" y="172" type="curve" smooth="yes"/>
      <point x="10" y="68"/>
      <point x="54" y="-14"/>
      <point x="176" y="-14" type="curve" smooth="yes"/>
      <point x="255" y="-14"/>
      <point x="312" y="67"/>
      <point x="312" y="67" type="curve"/>
    </contour>
    <contour>
      <point x="266" y="155" type="curve" smooth="yes"/>
      <point x="244" y="155"/>
      <point x="231" y="169"/>
      <point x="231" y="223" type="curve" smooth="yes"/>
      <point x="231" y="276"/>
      <point x="245" y="376"/>
      <point x="297" y="376" type="curve" smooth="yes"/>
      <point x="320" y="376"/>
      <point x="364" y="365"/>
      <point x="364" y="365" type="curve"/>
      <point x="331" y="212" type="line"/>
      <point x="331" y="212"/>
      <point x="302" y="155"/>
    </contour>
  </outline>
</glyph>
<glyph name="Emacron" format="2">
	<advance width="566"/>
	<unicode hex="0112"/>
	<note>
		Emacron
	</note>
	<outline>
		<contour>
			<point x="579" y="896" type="line"/>
			<point x="252" y="896" type="line"/>
			<point x="224" y="766" type="line"/>
			<point x="551" y="766" type="line"/>
		</contour>
		<contour>
			<point x="628" y="710" type="line"/>
			<point x="136" y="710" type="line"/>
			<point x="-14" y="0" type="line"/>
			<point x="486" y="0" type="line"/>
			<point x="526" y="185" type="line"/>
			<point x="254" y="185" type="line"/>
			<point x="273" y="276" type="line"/>
			<point x="473" y="276" type="line"/>
			<point x="513" y="446" type="line"/>
			<point x="309" y="446" type="line"/>
			<point x="326" y="525" type="line"/>
			<point x="588" y="525" type="line"/>
		</contour>
	</outline>
</glyph>
<glyph name="emacron" format="2">
  <advance width="537"/>
  <unicode hex="0113"/>
  <note>
emacron
</note>
  <outline>
    <contour>
      <point x="540" y="736" type="line"/>
      <point x="213" y="736" type="line"/>
      <point x="185" y="606" type="line"/>
      <point x="512" y="606" type="line"/>
    </contour>
    <contour>
      <point x="299" y="145" type="curve" smooth="yes"/>
      <point x="242" y="145"/>
      <point x="221" y="153"/>
      <point x="221" y="181" type="curve" smooth="yes"/>
      <point x="221" y="195"/>
      <point x="225" y="206"/>
      <point x="228" y="217" type="curve"/>
      <point x="281" y="217" type="line" smooth="yes"/>
      <point x="487" y="217"/>
      <point x="550" y="274"/>
      <point x="550" y="388" type="curve" smooth="yes"/>
      <point x="550" y="488"/>
      <point x="477" y="536"/>
      <point x="350" y="536" type="curve" smooth="yes"/>
      <point x="116" y="536"/>
      <point x="13" y="369"/>
      <point x="13" y="196" type="curve" smooth="yes"/>
      <point x="13" y="52"/>
      <point x="82" y="-14"/>
      <point x="223" y="-14" type="curve" smooth="yes"/>
      <point x="335" y="-14"/>
      <point x="444" y="15"/>
      <point x="444" y="15" type="curve"/>
      <point x="463" y="152" type="line"/>
      <point x="463" y="152"/>
      <point x="352" y="145"/>
    </contour>
    <contour>
      <point x="297" y="323" type="curve" smooth="yes"/>
      <point x="256" y="323" type="line"/>
      <point x="266" y="364"/>
      <point x="280" y="388"/>
      <point x="314" y="388" type="curve" smooth="yes"/>
      <point x="336" y="388"/>
      <point x="350" y="379"/>
      <point x="350" y="359" type="curve" smooth="yes"/>
      <point x="350" y="337"/>
      <point x="339" y="323"/>
    </contour>
  </outline>
</glyph>
<glyph name="Ebreve" format="2">
	<advance width="566"/>
	<unicode hex="0114"/>
	<note>
		Ebreve
	</note>
	<outline>
		<contour>
			<point x="373" y="937" type="curve"/>
			<point x="253" y="937" type="line"/>
			<point x="230" y="827"/>
			<point x="263" y="752"/>
			<point x="393" y="752" type="curve" smooth="yes"/>
			<point x="513" y="752"/>
			<point x="568" y="817"/>
			<point x="594" y="937" type="curve"/>
			<point x="461" y="937" type="line"/>
			<point x="449" y="897"/>
			<point x="435" y="883"/>
			<point x="405" y="883" type="curve" smooth="yes"/>
			<point x="375" y="883"/>
			<point x="367" y="897"/>
		</contour>
		<contour>
			<point x="628" y="710" type="line"/>
			<point x="136" y="710" type="line"/>
			<point x="-14" y="0" type="line"/>
			<point x="486" y="0" type="line"/>
			<point x="526" y="185" type="line"/>
			<point x="254" y="185" type="line"/>
			<point x="273" y="276" type="line"/>
			<point x="473" y="276" type="line"/>
			<point x="513" y="446" type="line"/>
			<point x="309" y="446" type="line"/>
			<point x="326" y="525" type="line"/>
			<point x="588" y="525" type="line"/>
		</contour>
	</outline>
</glyph>
<glyph name="ebreve" format="2">
	<advance width="537"/>
	<unicode hex="0115"/>
	<note>
		ebreve
	</note>
	<outline>
		<contour>
			<point x="330" y="756" type="curve"/>
			<point x="210" y="756" type="line"/>
			<point x="186" y="646"/>
			<point x="225" y="571"/>
			<point x="355" y="571" type="curve" smooth="yes"/>
			<point x="477" y="571"/>
			<point x="533" y="634"/>
			<point x="550" y="756" type="curve"/>
			<point x="418" y="756" type="line"/>
			<point x="406" y="716"/>
			<point x="392" y="702"/>
			<point x="362" y="702" type="curve" smooth="yes"/>
			<point x="332" y="702"/>
			<point x="324" y="716"/>
		</contour>
		<contour>
			<point x="299" y="145" type="curve" smooth="yes"/>
			<point x="242" y="145"/>
			<point x="221" y="153"/>
			<point x="221" y="181" type="curve" smooth="yes"/>
			<point x="221" y="195"/>
			<point x="225" y="206"/>
			<point x="228" y="217" type="curve"/>
			<point x="281" y="217" type="line" smooth="yes"/>
			<point x="487" y="217"/>
			<point x="550" y="274"/>
			<point x="550" y="388" type="curve" smooth="yes"/>
			<point x="550" y="488"/>
			<point x="477" y="536"/>
			<point x="350" y="536" type="curve" smooth="yes"/>
			<point x="116" y="536"/>
			<point x="13" y="369"/>
			<point x="13" y="196" type="curve" smooth="yes"/>
			<point x="13" y="52"/>
			<point x="82" y="-14"/>
			<point x="223" y="-14" type="curve" smooth="yes"/>
			<point x="335" y="-14"/>
			<point x="444" y="15"/>
			<point x="444" y="15" type="curve"/>
			<point x="463" y="152" type="line"/>
			<point x="463" y="152"/>
			<point x="352" y="145"/>
		</contour>
		<contour>
			<point x="297" y="323" type="curve" smooth="yes"/>
			<point x="256" y="323" type="line"/>
			<point x="266" y="364"/>
			<point x="280" y="388"/>
			<point x="314" y="388" type="curve" smooth="yes"/>
			<point x="336" y="388"/>
			<point x="350" y="379"/>
			<point x="350" y="359" type="curve" smooth="yes"/>
			<point x="350" y="337"/>
			<point x="339" y="323"/>
		</contour>
	</outline>
</glyph>
<glyph name="Edotaccent" format="2">
	<advance width="566"/>
	<unicode hex="0116"/>
	<note>
		Edotaccent
	</note>
	<outline>
		<contour>
			<point x="520" y="911" type="line"/>
			<point x="316" y="911" type="line"/>
			<point x="284" y="757" type="line"/>
			<point x="488" y="757" type="line"/>
		</contour>
		<contour>
			<point x="628" y="710" type="line"/>
			<point x="136" y="710" type="line"/>
			<point x="-14" y="0" type="line"/>
			<point x="486" y="0" type="line"/>
			<point x="526" y="185" type="line"/>
			<point x="254" y="185" type="line"/>
			<point x="273" y="276" type="line"/>
			<point x="473" y="276" type="line"/>
			<point x="513" y="446" type="line"/>
			<point x="309" y="446" type="line"/>
			<point x="326" y="525" type="line"/>
			<point x="588" y="525" type="line"/>
		</contour>
	</outline>
</glyph>
<glyph name="Eogonek" format="2">
  <advance width="566"/>
  <unicode hex="0118"/>
  <note>
Eogonek
</note>
  <outline>
    <contour>
      <point x="430" y="-215" type="curve"/>
      <point x="439" y="-107" type="line"/>
      <point x="439" y="-107"/>
      <point x="414" y="-111"/>
      <point x="393" y="-111" type="curve" smooth="yes"/>
      <point x="381" y="-111"/>
      <point x="375" y="-105"/>
      <point x="375" y="-93" type="curve" smooth="yes"/>
      <point x="375" y="-75"/>
      <point x="397" y="-43"/>
      <point x="442" y="0" type="curve"/>
      <point x="486" y="0" type="line"/>
      <point x="526" y="185" type="line"/>
      <point x="254" y="185" type="line"/>
      <point x="273" y="276" type="line"/>
      <point x="473" y="276" type="line"/>
      <point x="513" y="446" type="line"/>
      <point x="309" y="446" type="line"/>
      <point x="326" y="525" type="line"/>
      <point x="588" y="525" type="line"/>
      <point x="628" y="710" type="line"/>
      <point x="136" y="710" type="line"/>
      <point x="-14" y="0" type="line"/>
      <point x="288" y="0" type="line"/>
      <point x="225" y="-54"/>
      <point x="186" y="-103"/>
      <point x="186" y="-155" type="curve" smooth="yes"/>
      <point x="186" y="-206"/>
      <point x="232" y="-230"/>
      <point x="316" y="-230" type="curve" smooth="yes"/>
      <point x="377" y="-230"/>
      <point x="430" y="-215"/>
    </contour>
  </outline>
</glyph>
<glyph name="eogonek" format="2">
	<advance width="537"/>
	<unicode hex="0119"/>
	<note>
		eogonek
	</note>
	<outline>
		<contour>
			<point x="299" y="145" type="curve" smooth="yes"/>
			<point x="242" y="145"/>
			<point x="221" y="153"/>
			<point x="221" y="181" type="curve" smooth="yes"/>
			<point x="221" y="195"/>
			<point x="225" y="206"/>
			<point x="228" y="217" type="curve"/>
			<point x="281" y="217" type="line" smooth="yes"/>
			<point x="487" y="217"/>
			<point x="550" y="274"/>
			<point x="550" y="388" type="curve" smooth="yes"/>
			<point x="550" y="488"/>
			<point x="477" y="536"/>
			<point x="350" y="536" type="curve" smooth="yes"/>
			<point x="116" y="536"/>
			<point x="13" y="369"/>
			<point x="13" y="196" type="curve" smooth="yes"/>
			<point x="13" y="59"/>
			<point x="75" y="-7"/>
			<point x="202" y="-13" type="curve"/>
			<point x="147" y="-62"/>
			<point x="115" y="-107"/>
			<point x="115" y="-155" type="curve" smooth="yes"/>
			<point x="115" y="-206"/>
			<point x="161" y="-230"/>
			<point x="245" y="-230" type="curve" smooth="yes"/>
			<point x="306" y="-230"/>
			<point x="359" y="-215"/>
			<point x="359" y="-215" type="curve"/>
			<point x="368" y="-107" type="line"/>
			<point x="368" y="-107"/>
			<point x="343" y="-111"/>
			<point x="322" y="-111" type="curve" smooth="yes"/>
			<point x="310" y="-111"/>
			<point x="304" y="-105"/>
			<point x="304" y="-93" type="curve" smooth="yes"/>
			<point x="304" y="-75"/>
			<point x="324" y="-37"/>
			<point x="371" y="-11" type="curve" smooth="yes"/>
			<point x="410" y="11"/>
			<point x="444" y="15"/>
			<point x="444" y="15" type="curve"/>
			<point x="463" y="152" type="line"/>
			<point x="463" y="152"/>
			<point x="352" y="145"/>
		</contour>
		<contour>
			<point x="297" y="323" type="curve" smooth="yes"/>
			<point x="256" y="323" type="line"/>
			<point x="266" y="364"/>
			<point x="280" y="388"/>
			<point x="314" y="388" type="curve" smooth="yes"/>
			<point x="336" y="388"/>
			<point x="350" y="379"/>
			<point x="350" y="359" type="curve" smooth="yes"/>
			<point x="350" y="337"/>
			<point x="339" y="323"/>
		</contour>
	</outline>
</glyph>
<glyph name="Ecaron" format="2">
	<advance width="566"/>
	<unicode hex="011A"/>
	<note>
		Ecaron
	</note>
	<outline>
		<contour>
			<point x="445" y="937" type="line"/>
			<point x="396" y="854" type="line"/>
			<point x="383" y="937" type="line"/>
			<point x="231" y="937" type="line"/>
			<point x="274" y="757" type="line"/>
			<point x="498" y="757" type="line"/>
			<point x="617" y="937" type="line"/>
		</contour>
		<contour>
			<point x="628" y="710" type="line"/>
			<point x="136" y="710" type="line"/>
			<point x="-14" y="0" type="line"/>
			<point x="486" y="0" type="line"/>
			<point x="526" y="185" type="line"/>
			<point x="254" y="185" type="line"/>
			<point x="273" y="276" type="line"/>
			<point x="473" y="276" type="line"/>
			<point x="513" y="446" type="line"/>
			<point x="309" y="446" type="line"/>
			<point x="326" y="525" type="line"/>
			<point x="588" y="525" type="line"/>
		</contour>
	</outline>
</glyph>
<glyph name="Gbreve" format="2">
  <advance width="633"/>
  <unicode hex="011E"/>
  <note>
Gbreve
</note>
  <outline>
    <contour>
      <point x="436" y="937" type="curve"/>
      <point x="316" y="937" type="line"/>
      <point x="293" y="827"/>
      <point x="326" y="752"/>
      <point x="456" y="752" type="curve" smooth="yes"/>
      <point x="576" y="752"/>
      <point x="631" y="817"/>
      <point x="657" y="937" type="curve"/>
      <point x="524" y="937" type="line"/>
      <point x="512" y="897"/>
      <point x="498" y="883"/>
      <point x="468" y="883" type="curve" smooth="yes"/>
      <point x="438" y="883"/>
      <point x="430" y="897"/>
    </contour>
    <contour>
      <point x="628" y="399" type="line"/>
      <point x="376" y="399" type="line"/>
      <point x="343" y="237" type="line"/>
      <point x="390" y="237" type="line"/>
      <point x="378" y="187" type="line"/>
      <point x="378" y="187"/>
      <point x="354" y="181"/>
      <point x="336" y="181" type="curve" smooth="yes"/>
      <point x="290" y="181"/>
      <point x="269" y="186"/>
      <point x="269" y="255" type="curve" smooth="yes"/>
      <point x="269" y="360"/>
      <point x="290" y="530"/>
      <point x="428" y="530" type="curve" smooth="yes"/>
      <point x="489" y="530"/>
      <point x="644" y="517"/>
      <point x="644" y="517" type="curve"/>
      <point x="683" y="692" type="line"/>
      <point x="683" y="692"/>
      <point x="534" y="726"/>
      <point x="421" y="726" type="curve" smooth="yes"/>
      <point x="105" y="726"/>
      <point x="32" y="395"/>
      <point x="32" y="218" type="curve" smooth="yes"/>
      <point x="32" y="57"/>
      <point x="98" y="-14"/>
      <point x="255" y="-14" type="curve" smooth="yes"/>
      <point x="367" y="-14"/>
      <point x="547" y="16"/>
      <point x="547" y="16" type="curve"/>
    </contour>
  </outline>
</glyph>
<glyph name="Hcircumflex" format="2">
	<advance width="678"/>
	<unicode hex="0124"/>
	<note>
		Hcircumflex
	</note>
	<outline>
		<contour>
			<point x="419" y="757" type="line"/>
			<point x="468" y="840" type="line"/>
			<point x="481" y="757" type="line"/>
			<point x="633" y="757" type="line"/>
			<point x="590" y="937" type="line"/>
			<point x="366" y="937" type="line"/>
			<point x="247" y="757" type="line"/>
		</contour>
		<contour>
			<point x="269" y="259" type="line"/>
			<point x="408" y="259" type="line"/>
			<point x="353" y="0" type="line"/>
			<point x="582" y="0" type="line"/>
			<point x="734" y="710" type="line"/>
			<point x="505" y="710" type="line"/>
			<point x="449" y="449" type="line"/>
			<point x="310" y="449" type="line"/>
			<point x="366" y="710" type="line"/>
			<point x="137" y="710" type="line"/>
			<point x="-15" y="0" type="line"/>
			<point x="214" y="0" type="line"/>
		</contour>
	</outline>
</glyph>
<glyph name="Hbar" format="2">
  <advance width="753"/>
  <unicode hex="0126"/>
  <note>
Hbar
</note>
  <outline>
    <contour>
      <point x="167" y="637" type="line"/>
      <point x="98" y="637" type="line"/>
      <point x="70" y="502" type="line"/>
      <point x="138" y="502" type="line"/>
      <point x="31" y="0" type="line"/>
      <point x="260" y="0" type="line"/>
      <point x="315" y="259" type="line"/>
      <point x="454" y="259" type="line"/>
      <point x="399" y="0" type="line"/>
      <point x="628" y="0" type="line"/>
      <point x="735" y="502" type="line"/>
      <point x="787" y="502" type="line"/>
      <point x="815" y="637" type="line"/>
      <point x="764" y="637" type="line"/>
      <point x="780" y="710" type="line"/>
      <point x="551" y="710" type="line"/>
      <point x="535" y="637" type="line"/>
      <point x="396" y="637" type="line"/>
      <point x="412" y="710" type="line"/>
      <point x="183" y="710" type="line"/>
    </contour>
    <contour>
      <point x="495" y="449" type="line"/>
      <point x="356" y="449" type="line"/>
      <point x="367" y="502" type="line"/>
      <point x="506" y="502" type="line"/>
    </contour>
  </outline>
</glyph>
<glyph name="Itilde" format="2">
  <advance width="309"/>
  <unicode hex="0128"/>
  <note>
Itilde
</note>
  <outline>
    <contour>
      <point x="491" y="839" type="curve"/>
      <point x="451" y="945" type="line"/>
      <point x="451" y="945"/>
      <point x="370" y="898"/>
      <point x="344" y="898" type="curve" smooth="yes"/>
      <point x="316" y="898"/>
      <point x="288" y="941"/>
      <point x="227" y="941" type="curve" smooth="yes"/>
      <point x="174" y="941"/>
      <point x="69" y="867"/>
      <point x="69" y="867" type="curve"/>
      <point x="112" y="764" type="line"/>
      <point x="112" y="764"/>
      <point x="171" y="801"/>
      <point x="199" y="801" type="curve" smooth="yes"/>
      <point x="232" y="801"/>
      <point x="267" y="757"/>
      <point x="319" y="757" type="curve" smooth="yes"/>
      <point x="373" y="757"/>
      <point x="491" y="839"/>
    </contour>
    <contour>
      <point x="365" y="710" type="line"/>
      <point x="136" y="710" type="line"/>
      <point x="-15" y="0" type="line"/>
      <point x="214" y="0" type="line"/>
    </contour>
  </outline>
</glyph>
<glyph name="itilde" format="2">
	<advance width="281"/>
	<unicode hex="0129"/>
	<note>
		itilde
	</note>
	<outline>
		<contour>
			<point x="441" y="660" type="curve"/>
			<point x="401" y="766" type="line"/>
			<point x="401" y="766"/>
			<point x="320" y="719"/>
			<point x="294" y="719" type="curve" smooth="yes"/>
			<point x="266" y="719"/>
			<point x="218" y="762"/>
			<point x="157" y="762" type="curve" smooth="yes"/>
			<point x="104" y="762"/>
			<point x="-1" y="688"/>
			<point x="-1" y="688" type="curve"/>
			<point x="42" y="585" type="line"/>
			<point x="42" y="585"/>
			<point x="101" y="622"/>
			<point x="129" y="622" type="curve" smooth="yes"/>
			<point x="162" y="622"/>
			<point x="217" y="578"/>
			<point x="269" y="578" type="curve" smooth="yes"/>
			<point x="323" y="578"/>
			<point x="441" y="660"/>
		</contour>
		<contour>
			<point x="306" y="520" type="line"/>
			<point x="86" y="520" type="line"/>
			<point x="-24" y="0" type="line"/>
			<point x="195" y="0" type="line"/>
		</contour>
	</outline>
</glyph>
<glyph name="Imacron" format="2">
  <advance width="309"/>
  <unicode hex="012A"/>
  <note>
Imacron
</note>
  <outline>
    <contour>
      <point x="453" y="896" type="line"/>
      <point x="126" y="896" type="line"/>
      <point x="98" y="766" type="line"/>
      <point x="425" y="766" type="line"/>
    </contour>
    <contour>
      <point x="365" y="710" type="line"/>
      <point x="136" y="710" type="line"/>
      <point x="-15" y="0" type="line"/>
      <point x="214" y="0" type="line"/>
    </contour>
  </outline>
</glyph>
<glyph name="imacron" format="2">
	<advance width="281"/>
	<unicode hex="012B"/>
	<note>
		imacron
	</note>
	<outline>
		<contour>
			<point x="406" y="736" type="line"/>
			<point x="79" y="736" type="line"/>
			<point x="51" y="606" type="line"/>
			<point x="378" y="606" type="line"/>
		</contour>
		<contour>
			<point x="306" y="520" type="line"/>
			<point x="86" y="520" type="line"/>
			<point x="-24" y="0" type="line"/>
			<point x="195" y="0" type="line"/>
		</contour>
	</outline>
</glyph>
<glyph name="Ibreve" format="2">
  <advance width="309"/>
  <unicode hex="012C"/>
  <note>
Ibreve
</note>
  <outline>
    <contour>
      <point x="247" y="937" type="curve"/>
      <point x="127" y="937" type="line"/>
      <point x="104" y="827"/>
      <point x="137" y="752"/>
      <point x="267" y="752" type="curve" smooth="yes"/>
      <point x="387" y="752"/>
      <point x="442" y="817"/>
      <point x="468" y="937" type="curve"/>
      <point x="335" y="937" type="line"/>
      <point x="323" y="897"/>
      <point x="309" y="883"/>
      <point x="279" y="883" type="curve" smooth="yes"/>
      <point x="249" y="883"/>
      <point x="241" y="897"/>
    </contour>
    <contour>
      <point x="365" y="710" type="line"/>
      <point x="136" y="710" type="line"/>
      <point x="-15" y="0" type="line"/>
      <point x="214" y="0" type="line"/>
    </contour>
  </outline>
</glyph>
<glyph name="ibreve" format="2">
	<advance width="281"/>
	<unicode hex="012D"/>
	<note>
		ibreve
	</note>
	<outline>
		<contour>
			<point x="196" y="756" type="curve"/>
			<point x="76" y="756" type="line"/>
			<point x="52" y="646"/>
			<point x="91" y="571"/>
			<point x="221" y="571" type="curve" smooth="yes"/>
			<point x="343" y="571"/>
			<point x="399" y="634"/>
			<point x="416" y="756" type="curve"/>
			<point x="284" y="756" type="line"/>
			<point x="272" y="716"/>
			<point x="258" y="702"/>
			<point x="228" y="702" type="curve" smooth="yes"/>
			<point x="198" y="702"/>
			<point x="190" y="716"/>
		</contour>
		<contour>
			<point x="306" y="520" type="line"/>
			<point x="86" y="520" type="line"/>
			<point x="-24" y="0" type="line"/>
			<point x="195" y="0" type="line"/>
		</contour>
	</outline>
</glyph>
<glyph name="Iogonek" format="2">
  <advance width="309"/>
  <unicode hex="012E"/>
  <note>
Iogonek
</note>
  <outline>
    <contour>
      <point x="202" y="-215" type="curve"/>
      <point x="211" y="-107" type="line"/>
      <point x="211" y="-107"/>
      <point x="186" y="-111"/>
      <point x="165" y="-111" type="curve" smooth="yes"/>
      <point x="153" y="-111"/>
      <point x="147" y="-105"/>
      <point x="147" y="-93" type="curve" smooth="yes"/>
      <point x="147" y="-75"/>
      <point x="169" y="-43"/>
      <point x="214" y="0" type="curve"/>
      <point x="365" y="710" type="line"/>
      <point x="136" y="710" type="line"/>
      <point x="-15" y="0" type="line"/>
      <point x="60" y="0" type="line"/>
      <point x="-3" y="-54"/>
      <point x="-42" y="-103"/>
      <point x="-42" y="-155" type="curve" smooth="yes"/>
      <point x="-42" y="-206"/>
      <point x="4" y="-230"/>
      <point x="88" y="-230" type="curve" smooth="yes"/>
      <point x="149" y="-230"/>
      <point x="202" y="-215"/>
    </contour>
  </outline>
</glyph>
<glyph name="iogonek" format="2">
  <advance width="281"/>
  <unicode hex="012F"/>
  <note>
iogonek
</note>
  <outline>
    <contour>
      <point x="351" y="730" type="line"/>
      <point x="130" y="730" type="line"/>
      <point x="95" y="566" type="line"/>
      <point x="316" y="566" type="line"/>
    </contour>
    <contour>
      <point x="183" y="-215" type="curve"/>
      <point x="192" y="-107" type="line"/>
      <point x="192" y="-107"/>
      <point x="167" y="-111"/>
      <point x="146" y="-111" type="curve" smooth="yes"/>
      <point x="134" y="-111"/>
      <point x="128" y="-105"/>
      <point x="128" y="-93" type="curve" smooth="yes"/>
      <point x="128" y="-75"/>
      <point x="150" y="-43"/>
      <point x="195" y="0" type="curve"/>
      <point x="306" y="520" type="line"/>
      <point x="86" y="520" type="line"/>
      <point x="-24" y="0" type="line"/>
      <point x="41" y="0" type="line"/>
      <point x="-22" y="-54"/>
      <point x="-61" y="-103"/>
      <point x="-61" y="-155" type="curve" smooth="yes"/>
      <point x="-61" y="-206"/>
      <point x="-15" y="-230"/>
      <point x="69" y="-230" type="curve" smooth="yes"/>
      <point x="130" y="-230"/>
      <point x="183" y="-215"/>
    </contour>
  </outline>
</glyph>
<glyph name="Idotaccent" format="2">
	<advance width="309"/>
	<unicode hex="0130"/>
	<note>
		Idotaccent
	</note>
	<outline>
		<contour>
			<point x="394" y="911" type="line"/>
			<point x="190" y="911" type="line"/>
			<point x="158" y="757" type="line"/>
			<point x="362" y="757" type="line"/>
		</contour>
		<contour>
			<point x="365" y="710" type="line"/>
			<point x="136" y="710" type="line"/>
			<point x="-15" y="0" type="line"/>
			<point x="214" y="0" type="line"/>
		</contour>
	</outline>
</glyph>
<glyph name="idotless" format="2">
  <advance width="281"/>
  <unicode hex="0131"/>
  <note>
idotless
</note>
  <outline>
    <contour>
      <point x="306" y="520" type="line"/>
      <point x="86" y="520" type="line"/>
      <point x="-24" y="0" type="line"/>
      <point x="195" y="0" type="line"/>
    </contour>
  </outline>
</glyph>
<glyph name="IJ" format="2">
	<advance width="645"/>
	<unicode hex="0132"/>
	<note>
		IJ
	</note>
	<outline>
		<contour>
			<point x="365" y="710" type="line"/>
			<point x="136" y="710" type="line"/>
			<point x="-15" y="0" type="line"/>
			<point x="214" y="0" type="line"/>
		</contour>
		<contour>
			<point x="590" y="183" type="curve" smooth="yes"/>
			<point x="703" y="710" type="line"/>
			<point x="476" y="710" type="line"/>
			<point x="381" y="268" type="line" smooth="yes"/>
			<point x="364" y="187"/>
			<point x="360" y="184"/>
			<point x="308" y="184" type="curve"/>
			<point x="268" y="-7" type="line"/>
			<point x="496" y="-7"/>
			<point x="556" y="25"/>
		</contour>
	</outline>
</glyph>
<glyph name="ij" format="2">
  <advance width="580"/>
  <unicode hex="0133"/>
  <note>
ij
</note>
  <outline>
    <contour>
      <point x="351" y="730" type="line"/>
      <point x="130" y="730" type="line"/>
      <point x="95" y="566" type="line"/>
      <point x="316" y="566" type="line"/>
    </contour>
    <contour>
      <point x="649" y="730" type="line"/>
      <point x="428" y="730" type="line"/>
      <point x="393" y="566" type="line"/>
      <point x="614" y="566" type="line"/>
    </contour>
    <contour>
      <point x="306" y="520" type="line"/>
      <point x="86" y="520" type="line"/>
      <point x="-24" y="0" type="line"/>
      <point x="195" y="0" type="line"/>
    </contour>
    <contour>
      <point x="605" y="520" type="line"/>
      <point x="385" y="520" type="line"/>
      <point x="291" y="76" type="line" smooth="yes"/>
      <point x="276" y="4"/>
      <point x="266" y="-2"/>
      <point x="179" y="-40" type="curve"/>
      <point x="213" y="-210" type="line"/>
      <point x="421" y="-148"/>
      <point x="469" y="-118"/>
      <point x="512" y="83" type="curve" smooth="yes"/>
    </contour>
  </outline>
</glyph>
<glyph name="Jcircumflex" format="2">
	<advance width="345"/>
	<unicode hex="0134"/>
	<note>
		Jcircumflex
	</note>
	<outline>
		<contour>
			<point x="274" y="757" type="line"/>
			<point x="323" y="840" type="line"/>
			<point x="336" y="757" type="line"/>
			<point x="488" y="757" type="line"/>
			<point x="445" y="937" type="line"/>
			<point x="221" y="937" type="line"/>
			<point x="102" y="757" type="line"/>
		</contour>
		<contour>
			<point x="290" y="183" type="curve" smooth="yes"/>
			<point x="403" y="710" type="line"/>
			<point x="176" y="710" type="line"/>
			<point x="81" y="268" type="line" smooth="yes"/>
			<point x="64" y="187"/>
			<point x="60" y="184"/>
			<point x="8" y="184" type="curve"/>
			<point x="-32" y="-7" type="line"/>
			<point x="196" y="-7"/>
			<point x="256" y="25"/>
		</contour>
	</outline>
</glyph>
<glyph name="jcircumflex" format="2">
	<advance width="284"/>
	<unicode hex="0135"/>
	<note>
		jcircumflex
	</note>
	<outline>
		<contour>
			<point x="188" y="576" type="line"/>
			<point x="237" y="659" type="line"/>
			<point x="250" y="576" type="line"/>
			<point x="403" y="576" type="line"/>
			<point x="360" y="756" type="line"/>
			<point x="136" y="756" type="line"/>
			<point x="17" y="576" type="line"/>
		</contour>
		<contour>
			<point x="309" y="520" type="line"/>
			<point x="89" y="520" type="line"/>
			<point x="-5" y="76" type="line" smooth="yes"/>
			<point x="-20" y="4"/>
			<point x="-30" y="-2"/>
			<point x="-117" y="-40" type="curve"/>
			<point x="-83" y="-210" type="line"/>
			<point x="125" y="-148"/>
			<point x="173" y="-118"/>
			<point x="216" y="83" type="curve" smooth="yes"/>
		</contour>
	</outline>
</glyph>
<glyph name="Kcommaaccent" format="2">
  <advance width="619"/>
  <unicode hex="0136"/>
  <note>
Kcommaaccent
</note>
  <outline>
    <contour>
      <point x="265" y="241" type="line"/>
      <point x="314" y="241" type="line"/>
      <point x="335" y="0" type="line"/>
      <point x="560" y="0" type="line"/>
      <point x="522" y="361" type="line"/>
      <point x="699" y="710" type="line"/>
      <point x="474" y="710" type="line"/>
      <point x="347" y="451" type="line"/>
      <point x="308" y="451" type="line"/>
      <point x="365" y="710" type="line"/>
      <point x="137" y="710" type="line"/>
      <point x="-15" y="0" type="line"/>
      <point x="214" y="0" type="line"/>
    </contour>
    <contour>
      <point x="341" y="-160" type="line"/>
      <point x="196" y="-54" type="line"/>
      <point x="84" y="-242" type="line"/>
      <point x="204" y="-327" type="line"/>
    </contour>
  </outline>
</glyph>
